solid platform
facet normal 0.0 0.0 -1.0
  outer loop
    vertex 8.702906074992395 0.8717385790405507 0.0
    vertex 8.702906074992395 0.8199747700200466 0.0
    vertex 8.699498657621298 0.8458566745302988 0.0
  endloop
endfacet
facet normal 0.0 0.0 -1.0
  outer loop
    vertex 8.702906074992395 0.8199747700200466 0.0
    vertex 8.702906074992395 0.8717385790405507 0.0
    vertex 8.712896117242856 0.8958566745302989 0.0
  endloop
endfacet
facet normal 0.0 0.0 -1.0
  outer loop
    vertex 8.702906074992395 0.8199747700200466 0.0
    vertex 8.712896117242856 0.8958566745302989 0.0
    vertex 8.712896117242856 0.7958566745302987 0.0
  endloop
endfacet
facet normal 0.0 0.0 -1.0
  outer loop
    vertex 8.712896117242856 0.7958566745302987 0.0
    vertex 8.712896117242856 0.8958566745302989 0.0
    vertex 8.728787979502643 0.9165673526489541 0.0
  endloop
endfacet
facet normal 0.0 0.0 -1.0
  outer loop
    vertex 8.712896117242856 0.7958566745302987 0.0
    vertex 8.728787979502643 0.9165673526489541 0.0
    vertex 8.728787979502643 0.7751459964116441 0.0
  endloop
endfacet
facet normal 0.0 0.0 -1.0
  outer loop
    vertex 8.728787979502643 0.7751459964116441 0.0
    vertex 8.728787979502643 0.9165673526489541 0.0
    vertex 8.7494986576213 0.9324592149087431 0.0
  endloop
endfacet
facet normal 0.0 0.0 -1.0
  outer loop
    vertex 8.728787979502643 0.7751459964116441 0.0
    vertex 8.7494986576213 0.9324592149087431 0.0
    vertex 8.7494986576213 0.7592541341518549 0.0
  endloop
endfacet
facet normal 0.0 0.0 -1.0
  outer loop
    vertex 8.7494986576213 0.7592541341518549 0.0
    vertex 8.7494986576213 0.9324592149087431 0.0
    vertex 8.77361675311105 0.9424492571592064 0.0
  endloop
endfacet
facet normal 0.0 0.0 -1.0
  outer loop
    vertex 8.7494986576213 0.7592541341518549 0.0
    vertex 8.77361675311105 0.9424492571592064 0.0
    vertex 8.77361675311105 0.7492640919013921 0.0
  endloop
endfacet
facet normal 0.0 0.0 -1.0
  outer loop
    vertex 8.77361675311105 0.7492640919013921 0.0
    vertex 8.77361675311105 0.9424492571592064 0.0
    vertex 8.799498657621301 0.9458566745302995 0.0
  endloop
endfacet
facet normal 0.0 0.0 -1.0
  outer loop
    vertex 8.77361675311105 0.7492640919013921 0.0
    vertex 8.799498657621301 0.9458566745302995 0.0
    vertex 8.799498657621301 0.7458566745302988 0.0
  endloop
endfacet
facet normal 0.0 0.0 -1.0
  outer loop
    vertex 8.799498657621301 0.7458566745302988 0.0
    vertex 8.799498657621301 0.9458566745302995 0.0
    vertex 8.825380562131551 0.9424492571592064 0.0
  endloop
endfacet
facet normal 0.0 0.0 -1.0
  outer loop
    vertex 8.799498657621301 0.7458566745302988 0.0
    vertex 8.825380562131551 0.9424492571592064 0.0
    vertex 8.825380562131551 0.7492640919013921 0.0
  endloop
endfacet
facet normal 0.0 0.0 -1.0
  outer loop
    vertex 8.825380562131551 0.7492640919013921 0.0
    vertex 8.825380562131551 0.9424492571592064 0.0
    vertex 8.849498657621298 0.9324592149087431 0.0
  endloop
endfacet
facet normal 0.0 0.0 -1.0
  outer loop
    vertex 8.825380562131551 0.7492640919013921 0.0
    vertex 8.849498657621298 0.9324592149087431 0.0
    vertex 8.849498657621298 0.7592541341518549 0.0
  endloop
endfacet
facet normal 0.0 0.0 -1.0
  outer loop
    vertex 8.849498657621298 0.7592541341518549 0.0
    vertex 8.849498657621298 0.9324592149087431 0.0
    vertex 8.870209335739956 0.9165673526489541 0.0
  endloop
endfacet
facet normal 0.0 0.0 -1.0
  outer loop
    vertex 8.849498657621298 0.7592541341518549 0.0
    vertex 8.870209335739956 0.9165673526489541 0.0
    vertex 8.870209335739956 0.7751459964116441 0.0
  endloop
endfacet
facet normal 0.0 0.0 -1.0
  outer loop
    vertex 8.870209335739956 0.7751459964116441 0.0
    vertex 8.870209335739956 0.9165673526489541 0.0
    vertex 8.886101197999741 0.8958566745302986 0.0
  endloop
endfacet
facet normal 0.0 0.0 -1.0
  outer loop
    vertex 8.870209335739956 0.7751459964116441 0.0
    vertex 8.886101197999741 0.8958566745302986 0.0
    vertex 8.886101197999741 0.7958566745302987 0.0
  endloop
endfacet
facet normal 0.0 0.0 -1.0
  outer loop
    vertex 8.886101197999741 0.7958566745302987 0.0
    vertex 8.886101197999741 0.8958566745302986 0.0
    vertex 8.896091240250207 0.8717385790405502 0.0
  endloop
endfacet
facet normal 0.0 0.0 -1.0
  outer loop
    vertex 8.886101197999741 0.7958566745302987 0.0
    vertex 8.896091240250207 0.8717385790405502 0.0
    vertex 8.896091240250207 0.8199747700200466 0.0
  endloop
endfacet
facet normal 0.0 0.0 -1.0
  outer loop
    vertex 8.896091240250207 0.8199747700200466 0.0
    vertex 8.896091240250207 0.8717385790405502 0.0
    vertex 8.899498657621299 0.8458566745302988 0.0
  endloop
endfacet
facet normal 0.0 0.0 1.0
  outer loop
    vertex 8.702906074992395 0.8199747700200466 0.004127659574468087
    vertex 8.702906074992395 0.8717385790405507 0.004127659574468087
    vertex 8.699498657621298 0.8458566745302988 0.004127659574468087
  endloop
endfacet
facet normal 0.0 0.0 1.0
  outer loop
    vertex 8.702906074992395 0.8717385790405507 0.004127659574468087
    vertex 8.702906074992395 0.8199747700200466 0.004127659574468087
    vertex 8.712896117242856 0.7958566745302987 0.004127659574468087
  endloop
endfacet
facet normal 0.0 0.0 1.0
  outer loop
    vertex 8.702906074992395 0.8717385790405507 0.004127659574468087
    vertex 8.712896117242856 0.7958566745302987 0.004127659574468087
    vertex 8.712896117242856 0.8958566745302989 0.004127659574468087
  endloop
endfacet
facet normal 0.0 0.0 1.0
  outer loop
    vertex 8.712896117242856 0.8958566745302989 0.004127659574468087
    vertex 8.712896117242856 0.7958566745302987 0.004127659574468087
    vertex 8.728787979502643 0.7751459964116441 0.004127659574468087
  endloop
endfacet
facet normal 0.0 0.0 1.0
  outer loop
    vertex 8.712896117242856 0.8958566745302989 0.004127659574468087
    vertex 8.728787979502643 0.7751459964116441 0.004127659574468087
    vertex 8.728787979502643 0.9165673526489541 0.004127659574468087
  endloop
endfacet
facet normal 0.0 0.0 1.0
  outer loop
    vertex 8.728787979502643 0.9165673526489541 0.004127659574468087
    vertex 8.728787979502643 0.7751459964116441 0.004127659574468087
    vertex 8.7494986576213 0.7592541341518549 0.004127659574468087
  endloop
endfacet
facet normal 0.0 0.0 1.0
  outer loop
    vertex 8.728787979502643 0.9165673526489541 0.004127659574468087
    vertex 8.7494986576213 0.7592541341518549 0.004127659574468087
    vertex 8.7494986576213 0.9324592149087431 0.004127659574468087
  endloop
endfacet
facet normal 0.0 0.0 1.0
  outer loop
    vertex 8.7494986576213 0.9324592149087431 0.004127659574468087
    vertex 8.7494986576213 0.7592541341518549 0.004127659574468087
    vertex 8.77361675311105 0.7492640919013921 0.004127659574468087
  endloop
endfacet
facet normal 0.0 0.0 1.0
  outer loop
    vertex 8.7494986576213 0.9324592149087431 0.004127659574468087
    vertex 8.77361675311105 0.7492640919013921 0.004127659574468087
    vertex 8.77361675311105 0.9424492571592064 0.004127659574468087
  endloop
endfacet
facet normal 0.0 0.0 1.0
  outer loop
    vertex 8.77361675311105 0.9424492571592064 0.004127659574468087
    vertex 8.77361675311105 0.7492640919013921 0.004127659574468087
    vertex 8.799498657621301 0.7458566745302988 0.004127659574468087
  endloop
endfacet
facet normal 0.0 0.0 1.0
  outer loop
    vertex 8.77361675311105 0.9424492571592064 0.004127659574468087
    vertex 8.799498657621301 0.7458566745302988 0.004127659574468087
    vertex 8.799498657621301 0.9458566745302995 0.004127659574468087
  endloop
endfacet
facet normal 0.0 0.0 1.0
  outer loop
    vertex 8.799498657621301 0.9458566745302995 0.004127659574468087
    vertex 8.799498657621301 0.7458566745302988 0.004127659574468087
    vertex 8.825380562131551 0.7492640919013921 0.004127659574468087
  endloop
endfacet
facet normal 0.0 0.0 1.0
  outer loop
    vertex 8.799498657621301 0.9458566745302995 0.004127659574468087
    vertex 8.825380562131551 0.7492640919013921 0.004127659574468087
    vertex 8.825380562131551 0.9424492571592064 0.004127659574468087
  endloop
endfacet
facet normal 0.0 0.0 1.0
  outer loop
    vertex 8.825380562131551 0.9424492571592064 0.004127659574468087
    vertex 8.825380562131551 0.7492640919013921 0.004127659574468087
    vertex 8.849498657621298 0.7592541341518549 0.004127659574468087
  endloop
endfacet
facet normal 0.0 0.0 1.0
  outer loop
    vertex 8.825380562131551 0.9424492571592064 0.004127659574468087
    vertex 8.849498657621298 0.7592541341518549 0.004127659574468087
    vertex 8.849498657621298 0.9324592149087431 0.004127659574468087
  endloop
endfacet
facet normal 0.0 0.0 1.0
  outer loop
    vertex 8.849498657621298 0.9324592149087431 0.004127659574468087
    vertex 8.849498657621298 0.7592541341518549 0.004127659574468087
    vertex 8.870209335739956 0.7751459964116441 0.004127659574468087
  endloop
endfacet
facet normal 0.0 0.0 1.0
  outer loop
    vertex 8.849498657621298 0.9324592149087431 0.004127659574468087
    vertex 8.870209335739956 0.7751459964116441 0.004127659574468087
    vertex 8.870209335739956 0.9165673526489541 0.004127659574468087
  endloop
endfacet
facet normal 0.0 0.0 1.0
  outer loop
    vertex 8.870209335739956 0.9165673526489541 0.004127659574468087
    vertex 8.870209335739956 0.7751459964116441 0.004127659574468087
    vertex 8.886101197999741 0.7958566745302987 0.004127659574468087
  endloop
endfacet
facet normal 0.0 0.0 1.0
  outer loop
    vertex 8.870209335739956 0.9165673526489541 0.004127659574468087
    vertex 8.886101197999741 0.7958566745302987 0.004127659574468087
    vertex 8.886101197999741 0.8958566745302986 0.004127659574468087
  endloop
endfacet
facet normal 0.0 0.0 1.0
  outer loop
    vertex 8.886101197999741 0.8958566745302986 0.004127659574468087
    vertex 8.886101197999741 0.7958566745302987 0.004127659574468087
    vertex 8.896091240250207 0.8199747700200466 0.004127659574468087
  endloop
endfacet
facet normal 0.0 0.0 1.0
  outer loop
    vertex 8.886101197999741 0.8958566745302986 0.004127659574468087
    vertex 8.896091240250207 0.8199747700200466 0.004127659574468087
    vertex 8.896091240250207 0.8717385790405502 0.004127659574468087
  endloop
endfacet
facet normal 0.0 0.0 1.0
  outer loop
    vertex 8.896091240250207 0.8717385790405502 0.004127659574468087
    vertex 8.896091240250207 0.8199747700200466 0.004127659574468087
    vertex 8.899498657621299 0.8458566745302988 0.004127659574468087
  endloop
endfacet
facet normal 0.6087614290086838 0.7933533402912636 0.0
  outer loop
    vertex 8.849498657621298 0.9324592149087431 0.004127659574468087
    vertex 8.870209335739956 0.9165673526489541 0.0
    vertex 8.849498657621298 0.9324592149087431 0.0
  endloop
endfacet
facet normal 0.6087614290086838 0.7933533402912636 0.0
  outer loop
    vertex 8.870209335739956 0.9165673526489541 0.0
    vertex 8.849498657621298 0.9324592149087431 0.004127659574468087
    vertex 8.870209335739956 0.9165673526489541 0.004127659574468087
  endloop
endfacet
facet normal 0.7933533402912898 0.6087614290086495 0.0
  outer loop
    vertex 8.870209335739956 0.9165673526489541 0.0
    vertex 8.886101197999741 0.8958566745302986 0.004127659574468087
    vertex 8.886101197999741 0.8958566745302986 0.0
  endloop
endfacet
facet normal 0.7933533402912898 0.6087614290086495 0.0
  outer loop
    vertex 8.886101197999741 0.8958566745302986 0.004127659574468087
    vertex 8.870209335739956 0.9165673526489541 0.0
    vertex 8.870209335739956 0.9165673526489541 0.004127659574468087
  endloop
endfacet
facet normal 0.9238795325112538 0.38268343236516966 0.0
  outer loop
    vertex 8.886101197999741 0.8958566745302986 0.0
    vertex 8.896091240250207 0.8717385790405502 0.004127659574468087
    vertex 8.896091240250207 0.8717385790405502 0.0
  endloop
endfacet
facet normal 0.9238795325112538 0.38268343236516966 0.0
  outer loop
    vertex 8.896091240250207 0.8717385790405502 0.004127659574468087
    vertex 8.886101197999741 0.8958566745302986 0.0
    vertex 8.886101197999741 0.8958566745302986 0.004127659574468087
  endloop
endfacet
facet normal 0.9914448613738155 0.13052619222001313 0.0
  outer loop
    vertex 8.896091240250207 0.8717385790405502 0.0
    vertex 8.899498657621299 0.8458566745302988 0.004127659574468087
    vertex 8.899498657621299 0.8458566745302988 0.0
  endloop
endfacet
facet normal 0.9914448613738155 0.13052619222001313 0.0
  outer loop
    vertex 8.899498657621299 0.8458566745302988 0.004127659574468087
    vertex 8.896091240250207 0.8717385790405502 0.0
    vertex 8.896091240250207 0.8717385790405502 0.004127659574468087
  endloop
endfacet
facet normal 0.991444861373816 -0.13052619222000986 0.0
  outer loop
    vertex 8.899498657621299 0.8458566745302988 0.0
    vertex 8.896091240250207 0.8199747700200466 0.004127659574468087
    vertex 8.896091240250207 0.8199747700200466 0.0
  endloop
endfacet
facet normal 0.991444861373816 -0.13052619222000986 0.0
  outer loop
    vertex 8.896091240250207 0.8199747700200466 0.004127659574468087
    vertex 8.899498657621299 0.8458566745302988 0.0
    vertex 8.899498657621299 0.8458566745302988 0.004127659574468087
  endloop
endfacet
facet normal 0.9238795325112515 -0.38268343236517494 0.0
  outer loop
    vertex 8.896091240250207 0.8199747700200466 0.0
    vertex 8.886101197999741 0.7958566745302987 0.004127659574468087
    vertex 8.886101197999741 0.7958566745302987 0.0
  endloop
endfacet
facet normal 0.9238795325112515 -0.38268343236517494 0.0
  outer loop
    vertex 8.886101197999741 0.7958566745302987 0.004127659574468087
    vertex 8.896091240250207 0.8199747700200466 0.0
    vertex 8.896091240250207 0.8199747700200466 0.004127659574468087
  endloop
endfacet
facet normal 0.7933533402912789 -0.6087614290086636 0.0
  outer loop
    vertex 8.886101197999741 0.7958566745302987 0.0
    vertex 8.870209335739956 0.7751459964116441 0.004127659574468087
    vertex 8.870209335739956 0.7751459964116441 0.0
  endloop
endfacet
facet normal 0.7933533402912789 -0.6087614290086636 0.0
  outer loop
    vertex 8.870209335739956 0.7751459964116441 0.004127659574468087
    vertex 8.886101197999741 0.7958566745302987 0.0
    vertex 8.886101197999741 0.7958566745302987 0.004127659574468087
  endloop
endfacet
facet normal 0.6087614290086882 -0.79335334029126 0.0
  outer loop
    vertex 8.870209335739956 0.7751459964116441 0.004127659574468087
    vertex 8.849498657621298 0.7592541341518549 0.0
    vertex 8.870209335739956 0.7751459964116441 0.0
  endloop
endfacet
facet normal 0.6087614290086882 -0.79335334029126 0.0
  outer loop
    vertex 8.849498657621298 0.7592541341518549 0.0
    vertex 8.870209335739956 0.7751459964116441 0.004127659574468087
    vertex 8.849498657621298 0.7592541341518549 0.004127659574468087
  endloop
endfacet
facet normal 0.38268343236507674 -0.9238795325112923 0.0
  outer loop
    vertex 8.849498657621298 0.7592541341518549 0.004127659574468087
    vertex 8.825380562131551 0.7492640919013921 0.0
    vertex 8.849498657621298 0.7592541341518549 0.0
  endloop
endfacet
facet normal 0.38268343236507674 -0.9238795325112923 0.0
  outer loop
    vertex 8.825380562131551 0.7492640919013921 0.0
    vertex 8.849498657621298 0.7592541341518549 0.004127659574468087
    vertex 8.825380562131551 0.7492640919013921 0.004127659574468087
  endloop
endfacet
facet normal 0.13052619222006745 -0.9914448613738085 0.0
  outer loop
    vertex 8.825380562131551 0.7492640919013921 0.004127659574468087
    vertex 8.799498657621301 0.7458566745302988 0.0
    vertex 8.825380562131551 0.7492640919013921 0.0
  endloop
endfacet
facet normal 0.13052619222006745 -0.9914448613738085 0.0
  outer loop
    vertex 8.799498657621301 0.7458566745302988 0.0
    vertex 8.825380562131551 0.7492640919013921 0.004127659574468087
    vertex 8.799498657621301 0.7458566745302988 0.004127659574468087
  endloop
endfacet
facet normal -0.13052619222005224 -0.9914448613738104 0.0
  outer loop
    vertex 8.799498657621301 0.7458566745302988 0.004127659574468087
    vertex 8.77361675311105 0.7492640919013921 0.0
    vertex 8.799498657621301 0.7458566745302988 0.0
  endloop
endfacet
facet normal -0.13052619222005224 -0.9914448613738104 0.0
  outer loop
    vertex 8.77361675311105 0.7492640919013921 0.0
    vertex 8.799498657621301 0.7458566745302988 0.004127659574468087
    vertex 8.77361675311105 0.7492640919013921 0.004127659574468087
  endloop
endfacet
facet normal -0.38268343236507674 -0.9238795325112923 0.0
  outer loop
    vertex 8.77361675311105 0.7492640919013921 0.004127659574468087
    vertex 8.7494986576213 0.7592541341518549 0.0
    vertex 8.77361675311105 0.7492640919013921 0.0
  endloop
endfacet
facet normal -0.38268343236507674 -0.9238795325112923 0.0
  outer loop
    vertex 8.7494986576213 0.7592541341518549 0.0
    vertex 8.77361675311105 0.7492640919013921 0.004127659574468087
    vertex 8.7494986576213 0.7592541341518549 0.004127659574468087
  endloop
endfacet
facet normal -0.6087614290086882 -0.79335334029126 0.0
  outer loop
    vertex 8.7494986576213 0.7592541341518549 0.004127659574468087
    vertex 8.728787979502643 0.7751459964116441 0.0
    vertex 8.7494986576213 0.7592541341518549 0.0
  endloop
endfacet
facet normal -0.6087614290086882 -0.79335334029126 0.0
  outer loop
    vertex 8.728787979502643 0.7751459964116441 0.0
    vertex 8.7494986576213 0.7592541341518549 0.004127659574468087
    vertex 8.728787979502643 0.7751459964116441 0.004127659574468087
  endloop
endfacet
facet normal -0.7933533402912789 -0.6087614290086636 0.0
  outer loop
    vertex 8.712896117242856 0.7958566745302987 0.004127659574468087
    vertex 8.728787979502643 0.7751459964116441 0.0
    vertex 8.728787979502643 0.7751459964116441 0.004127659574468087
  endloop
endfacet
facet normal -0.7933533402912789 -0.6087614290086636 0.0
  outer loop
    vertex 8.728787979502643 0.7751459964116441 0.0
    vertex 8.712896117242856 0.7958566745302987 0.004127659574468087
    vertex 8.712896117242856 0.7958566745302987 0.0
  endloop
endfacet
facet normal -0.9238795325112933 -0.3826834323650745 0.0
  outer loop
    vertex 8.702906074992395 0.8199747700200466 0.004127659574468087
    vertex 8.712896117242856 0.7958566745302987 0.0
    vertex 8.712896117242856 0.7958566745302987 0.004127659574468087
  endloop
endfacet
facet normal -0.9238795325112933 -0.3826834323650745 0.0
  outer loop
    vertex 8.712896117242856 0.7958566745302987 0.0
    vertex 8.702906074992395 0.8199747700200466 0.004127659574468087
    vertex 8.702906074992395 0.8199747700200466 0.0
  endloop
endfacet
facet normal -0.9914448613738007 -0.1305261922201255 0.0
  outer loop
    vertex 8.699498657621298 0.8458566745302988 0.004127659574468087
    vertex 8.702906074992395 0.8199747700200466 0.0
    vertex 8.702906074992395 0.8199747700200466 0.004127659574468087
  endloop
endfacet
facet normal -0.9914448613738007 -0.1305261922201255 0.0
  outer loop
    vertex 8.702906074992395 0.8199747700200466 0.0
    vertex 8.699498657621298 0.8458566745302988 0.004127659574468087
    vertex 8.699498657621298 0.8458566745302988 0.0
  endloop
endfacet
facet normal -0.9914448613738006 0.1305261922201269 0.0
  outer loop
    vertex 8.702906074992395 0.8717385790405507 0.004127659574468087
    vertex 8.699498657621298 0.8458566745302988 0.0
    vertex 8.699498657621298 0.8458566745302988 0.004127659574468087
  endloop
endfacet
facet normal -0.9914448613738006 0.1305261922201269 0.0
  outer loop
    vertex 8.699498657621298 0.8458566745302988 0.0
    vertex 8.702906074992395 0.8717385790405507 0.004127659574468087
    vertex 8.702906074992395 0.8717385790405507 0.0
  endloop
endfacet
facet normal -0.9238795325112954 0.38268343236506946 0.0
  outer loop
    vertex 8.712896117242856 0.8958566745302989 0.004127659574468087
    vertex 8.702906074992395 0.8717385790405507 0.0
    vertex 8.702906074992395 0.8717385790405507 0.004127659574468087
  endloop
endfacet
facet normal -0.9238795325112954 0.38268343236506946 0.0
  outer loop
    vertex 8.702906074992395 0.8717385790405507 0.0
    vertex 8.712896117242856 0.8958566745302989 0.004127659574468087
    vertex 8.712896117242856 0.8958566745302989 0.0
  endloop
endfacet
facet normal -0.7933533402912846 0.6087614290086565 0.0
  outer loop
    vertex 8.728787979502643 0.9165673526489541 0.004127659574468087
    vertex 8.712896117242856 0.8958566745302989 0.0
    vertex 8.712896117242856 0.8958566745302989 0.004127659574468087
  endloop
endfacet
facet normal -0.7933533402912846 0.6087614290086565 0.0
  outer loop
    vertex 8.712896117242856 0.8958566745302989 0.0
    vertex 8.728787979502643 0.9165673526489541 0.004127659574468087
    vertex 8.728787979502643 0.9165673526489541 0.0
  endloop
endfacet
facet normal -0.6087614290086838 0.7933533402912636 -0.0
  outer loop
    vertex 8.728787979502643 0.9165673526489541 0.004127659574468087
    vertex 8.7494986576213 0.9324592149087431 0.0
    vertex 8.728787979502643 0.9165673526489541 0.0
  endloop
endfacet
facet normal -0.6087614290086838 0.7933533402912636 -0.0
  outer loop
    vertex 8.7494986576213 0.9324592149087431 0.0
    vertex 8.728787979502643 0.9165673526489541 0.004127659574468087
    vertex 8.7494986576213 0.9324592149087431 0.004127659574468087
  endloop
endfacet
facet normal -0.38268343236508934 0.9238795325112871 -0.0
  outer loop
    vertex 8.7494986576213 0.9324592149087431 0.004127659574468087
    vertex 8.77361675311105 0.9424492571592064 0.0
    vertex 8.7494986576213 0.9324592149087431 0.0
  endloop
endfacet
facet normal -0.38268343236508934 0.9238795325112871 -0.0
  outer loop
    vertex 8.77361675311105 0.9424492571592064 0.0
    vertex 8.7494986576213 0.9324592149087431 0.004127659574468087
    vertex 8.77361675311105 0.9424492571592064 0.004127659574468087
  endloop
endfacet
facet normal -0.13052619222005224 0.9914448613738104 -0.0
  outer loop
    vertex 8.77361675311105 0.9424492571592064 0.004127659574468087
    vertex 8.799498657621301 0.9458566745302995 0.0
    vertex 8.77361675311105 0.9424492571592064 0.0
  endloop
endfacet
facet normal -0.13052619222005224 0.9914448613738104 -0.0
  outer loop
    vertex 8.799498657621301 0.9458566745302995 0.0
    vertex 8.77361675311105 0.9424492571592064 0.004127659574468087
    vertex 8.799498657621301 0.9458566745302995 0.004127659574468087
  endloop
endfacet
facet normal 0.13052619222006745 0.9914448613738085 0.0
  outer loop
    vertex 8.799498657621301 0.9458566745302995 0.004127659574468087
    vertex 8.825380562131551 0.9424492571592064 0.0
    vertex 8.799498657621301 0.9458566745302995 0.0
  endloop
endfacet
facet normal 0.13052619222006745 0.9914448613738085 0.0
  outer loop
    vertex 8.825380562131551 0.9424492571592064 0.0
    vertex 8.799498657621301 0.9458566745302995 0.004127659574468087
    vertex 8.825380562131551 0.9424492571592064 0.004127659574468087
  endloop
endfacet
facet normal 0.38268343236508934 0.9238795325112871 0.0
  outer loop
    vertex 8.825380562131551 0.9424492571592064 0.004127659574468087
    vertex 8.849498657621298 0.9324592149087431 0.0
    vertex 8.825380562131551 0.9424492571592064 0.0
  endloop
endfacet
facet normal 0.38268343236508934 0.9238795325112871 0.0
  outer loop
    vertex 8.849498657621298 0.9324592149087431 0.0
    vertex 8.825380562131551 0.9424492571592064 0.004127659574468087
    vertex 8.849498657621298 0.9324592149087431 0.004127659574468087
  endloop
endfacet
endsolid platform
