solid rod
facet normal -0.32206629200808495 0.9467171190763178 -0.0
  outer loop
    vertex 1.5041532205092845 0.6120663467493145 0.06600000000000227
    vertex 1.5044003632706098 0.6121504229227909 -0.004000000000000443
    vertex 1.5041532205092845 0.6120663467493145 -0.004000000000000443
  endloop
endfacet
facet normal -0.32206629200808495 0.9467171190763178 -0.0
  outer loop
    vertex 1.5044003632706098 0.6121504229227909 -0.004000000000000443
    vertex 1.5041532205092845 0.6120663467493145 0.06600000000000227
    vertex 1.5044003632706098 0.6121504229227909 0.06600000000000227
  endloop
endfacet
facet normal -0.06606372848599466 0.997815405663056 -0.0
  outer loop
    vertex 1.5044003632706098 0.6121504229227909 0.06600000000000227
    vertex 1.504660845361489 0.6121676690166372 -0.004000000000000443
    vertex 1.5044003632706098 0.6121504229227909 -0.004000000000000443
  endloop
endfacet
facet normal -0.06606372848599466 0.997815405663056 -0.0
  outer loop
    vertex 1.504660845361489 0.6121676690166372 -0.004000000000000443
    vertex 1.5044003632706098 0.6121504229227909 0.06600000000000227
    vertex 1.504660845361489 0.6121676690166372 0.06600000000000227
  endloop
endfacet
facet normal 0.19444096895550922 0.9809142213219476 0.0
  outer loop
    vertex 1.504660845361489 0.6121676690166372 0.06600000000000227
    vertex 1.504916915357896 0.6121169097380585 -0.004000000000000443
    vertex 1.504660845361489 0.6121676690166372 -0.004000000000000443
  endloop
endfacet
facet normal 0.19444096895550922 0.9809142213219476 0.0
  outer loop
    vertex 1.504916915357896 0.6121169097380585 -0.004000000000000443
    vertex 1.504660845361489 0.6121676690166372 0.06600000000000227
    vertex 1.504916915357896 0.6121169097380585 0.06600000000000227
  endloop
endfacet
facet normal 0.44169483569297163 0.8971653538351548 0.0
  outer loop
    vertex 1.504916915357896 0.6121169097380585 0.06600000000000227
    vertex 1.5051511225127527 0.6120016042480058 -0.004000000000000443
    vertex 1.504916915357896 0.6121169097380585 -0.004000000000000443
  endloop
endfacet
facet normal 0.44169483569297163 0.8971653538351548 0.0
  outer loop
    vertex 1.5051511225127527 0.6120016042480058 -0.004000000000000443
    vertex 1.504916915357896 0.6121169097380585 0.06600000000000227
    vertex 1.5051511225127527 0.6120016042480058 0.06600000000000227
  endloop
endfacet
facet normal 0.6588479293144552 0.7522761501191264 0.0
  outer loop
    vertex 1.5051511225127527 0.6120016042480058 0.06600000000000227
    vertex 1.5053475059954982 0.6118296104250751 -0.004000000000000443
    vertex 1.5051511225127527 0.6120016042480058 -0.004000000000000443
  endloop
endfacet
facet normal 0.6588479293144552 0.7522761501191264 0.0
  outer loop
    vertex 1.5053475059954982 0.6118296104250751 -0.004000000000000443
    vertex 1.5051511225127527 0.6120016042480058 0.06600000000000227
    vertex 1.5053475059954982 0.6118296104250751 0.06600000000000227
  endloop
endfacet
facet normal 0.831101625348272 0.556120569969733 0.0
  outer loop
    vertex 1.5053475059954982 0.6118296104250751 -0.004000000000000443
    vertex 1.505492682596325 0.6116126493640657 0.06600000000000227
    vertex 1.505492682596325 0.6116126493640657 -0.004000000000000443
  endloop
endfacet
facet normal 0.831101625348272 0.556120569969733 0.0
  outer loop
    vertex 1.505492682596325 0.6116126493640657 0.06600000000000227
    vertex 1.5053475059954982 0.6118296104250751 -0.004000000000000443
    vertex 1.5053475059954982 0.6118296104250751 0.06600000000000227
  endloop
endfacet
facet normal 0.9467171190768063 0.32206629200664966 0.0
  outer loop
    vertex 1.505492682596325 0.6116126493640657 -0.004000000000000443
    vertex 1.5055767587698012 0.6113655066027402 0.06600000000000227
    vertex 1.5055767587698012 0.6113655066027402 -0.004000000000000443
  endloop
endfacet
facet normal 0.9467171190768063 0.32206629200664966 0.0
  outer loop
    vertex 1.5055767587698012 0.6113655066027402 0.06600000000000227
    vertex 1.505492682596325 0.6116126493640657 -0.004000000000000443
    vertex 1.505492682596325 0.6116126493640657 0.06600000000000227
  endloop
endfacet
facet normal 0.9978154056630055 0.0660637284867564 0.0
  outer loop
    vertex 1.5055767587698012 0.6113655066027402 -0.004000000000000443
    vertex 1.505594004863648 0.6111050245118611 0.06600000000000227
    vertex 1.505594004863648 0.6111050245118611 -0.004000000000000443
  endloop
endfacet
facet normal 0.9978154056630055 0.0660637284867564 0.0
  outer loop
    vertex 1.505594004863648 0.6111050245118611 0.06600000000000227
    vertex 1.5055767587698012 0.6113655066027402 -0.004000000000000443
    vertex 1.5055767587698012 0.6113655066027402 0.06600000000000227
  endloop
endfacet
facet normal 0.9809142213218713 -0.19444096895589405 0.0
  outer loop
    vertex 1.505594004863648 0.6111050245118611 -0.004000000000000443
    vertex 1.505543245585069 0.6108489545154538 0.06600000000000227
    vertex 1.505543245585069 0.6108489545154538 -0.004000000000000443
  endloop
endfacet
facet normal 0.9809142213218713 -0.19444096895589405 0.0
  outer loop
    vertex 1.505543245585069 0.6108489545154538 0.06600000000000227
    vertex 1.505594004863648 0.6111050245118611 -0.004000000000000443
    vertex 1.505594004863648 0.6111050245118611 0.06600000000000227
  endloop
endfacet
facet normal 0.897165353834382 -0.4416948356945419 0.0
  outer loop
    vertex 1.505543245585069 0.6108489545154538 -0.004000000000000443
    vertex 1.505427940095016 0.6106147473605982 0.06600000000000227
    vertex 1.505427940095016 0.6106147473605982 -0.004000000000000443
  endloop
endfacet
facet normal 0.897165353834382 -0.4416948356945419 0.0
  outer loop
    vertex 1.505427940095016 0.6106147473605982 0.06600000000000227
    vertex 1.505543245585069 0.6108489545154538 -0.004000000000000443
    vertex 1.505543245585069 0.6108489545154538 0.06600000000000227
  endloop
endfacet
facet normal 0.7522761501202755 -0.6588479293131435 0.0
  outer loop
    vertex 1.505427940095016 0.6106147473605982 -0.004000000000000443
    vertex 1.5052559462720854 0.610418363877852 0.06600000000000227
    vertex 1.5052559462720854 0.610418363877852 -0.004000000000000443
  endloop
endfacet
facet normal 0.7522761501202755 -0.6588479293131435 0.0
  outer loop
    vertex 1.5052559462720854 0.610418363877852 0.06600000000000227
    vertex 1.505427940095016 0.6106147473605982 -0.004000000000000443
    vertex 1.505427940095016 0.6106147473605982 0.06600000000000227
  endloop
endfacet
facet normal 0.5561205699701014 -0.8311016253480255 0.0
  outer loop
    vertex 1.5052559462720854 0.610418363877852 0.06600000000000227
    vertex 1.5050389852110764 0.6102731872770252 -0.004000000000000443
    vertex 1.5052559462720854 0.610418363877852 -0.004000000000000443
  endloop
endfacet
facet normal 0.5561205699701014 -0.8311016253480255 0.0
  outer loop
    vertex 1.5050389852110764 0.6102731872770252 -0.004000000000000443
    vertex 1.5052559462720854 0.610418363877852 0.06600000000000227
    vertex 1.5050389852110764 0.6102731872770252 0.06600000000000227
  endloop
endfacet
facet normal 0.3220662920070661 -0.9467171190766644 0.0
  outer loop
    vertex 1.5050389852110764 0.6102731872770252 0.06600000000000227
    vertex 1.504791842449751 0.610189111103549 -0.004000000000000443
    vertex 1.5050389852110764 0.6102731872770252 -0.004000000000000443
  endloop
endfacet
facet normal 0.3220662920070661 -0.9467171190766644 0.0
  outer loop
    vertex 1.504791842449751 0.610189111103549 -0.004000000000000443
    vertex 1.5050389852110764 0.6102731872770252 0.06600000000000227
    vertex 1.504791842449751 0.610189111103549 0.06600000000000227
  endloop
endfacet
facet normal 0.06606372848728931 -0.9978154056629702 0.0
  outer loop
    vertex 1.504791842449751 0.610189111103549 0.06600000000000227
    vertex 1.5045313603588715 0.6101718650097022 -0.004000000000000443
    vertex 1.504791842449751 0.610189111103549 -0.004000000000000443
  endloop
endfacet
facet normal 0.06606372848728931 -0.9978154056629702 0.0
  outer loop
    vertex 1.5045313603588715 0.6101718650097022 -0.004000000000000443
    vertex 1.504791842449751 0.610189111103549 0.06600000000000227
    vertex 1.5045313603588715 0.6101718650097022 0.06600000000000227
  endloop
endfacet
facet normal -0.19444096895658378 -0.9809142213217346 0.0
  outer loop
    vertex 1.5045313603588715 0.6101718650097022 0.06600000000000227
    vertex 1.5042752903624648 0.6102226242882812 -0.004000000000000443
    vertex 1.5045313603588715 0.6101718650097022 -0.004000000000000443
  endloop
endfacet
facet normal -0.19444096895658378 -0.9809142213217346 0.0
  outer loop
    vertex 1.5042752903624648 0.6102226242882812 -0.004000000000000443
    vertex 1.5045313603588715 0.6101718650097022 0.06600000000000227
    vertex 1.5042752903624648 0.6102226242882812 0.06600000000000227
  endloop
endfacet
facet normal -0.44169483569279544 -0.8971653538352418 0.0
  outer loop
    vertex 1.5042752903624648 0.6102226242882812 0.06600000000000227
    vertex 1.5040410832076085 0.6103379297783338 -0.004000000000000443
    vertex 1.5042752903624648 0.6102226242882812 -0.004000000000000443
  endloop
endfacet
facet normal -0.44169483569279544 -0.8971653538352418 0.0
  outer loop
    vertex 1.5040410832076085 0.6103379297783338 -0.004000000000000443
    vertex 1.5042752903624648 0.6102226242882812 0.06600000000000227
    vertex 1.5040410832076085 0.6103379297783338 0.06600000000000227
  endloop
endfacet
facet normal -0.6588479293138283 -0.7522761501196756 0.0
  outer loop
    vertex 1.5040410832076085 0.6103379297783338 0.06600000000000227
    vertex 1.5038446997248625 0.6105099236012645 -0.004000000000000443
    vertex 1.5040410832076085 0.6103379297783338 -0.004000000000000443
  endloop
endfacet
facet normal -0.6588479293138283 -0.7522761501196756 0.0
  outer loop
    vertex 1.5038446997248625 0.6105099236012645 -0.004000000000000443
    vertex 1.5040410832076085 0.6103379297783338 0.06600000000000227
    vertex 1.5038446997248625 0.6105099236012645 0.06600000000000227
  endloop
endfacet
facet normal -0.8311016253480805 -0.5561205699700191 0.0
  outer loop
    vertex 1.5036995231240355 0.610726884662274 0.06600000000000227
    vertex 1.5038446997248625 0.6105099236012645 -0.004000000000000443
    vertex 1.5038446997248625 0.6105099236012645 0.06600000000000227
  endloop
endfacet
facet normal -0.8311016253480805 -0.5561205699700191 0.0
  outer loop
    vertex 1.5038446997248625 0.6105099236012645 -0.004000000000000443
    vertex 1.5036995231240355 0.610726884662274 0.06600000000000227
    vertex 1.5036995231240355 0.610726884662274 -0.004000000000000443
  endloop
endfacet
facet normal -0.9467171190759739 -0.3220662920090963 0.0
  outer loop
    vertex 1.5036154469505587 0.6109740274235991 0.06600000000000227
    vertex 1.5036995231240355 0.610726884662274 -0.004000000000000443
    vertex 1.5036995231240355 0.610726884662274 0.06600000000000227
  endloop
endfacet
facet normal -0.9467171190759739 -0.3220662920090963 0.0
  outer loop
    vertex 1.5036995231240355 0.610726884662274 -0.004000000000000443
    vertex 1.5036154469505587 0.6109740274235991 0.06600000000000227
    vertex 1.5036154469505587 0.6109740274235991 -0.004000000000000443
  endloop
endfacet
facet normal -0.9978154056632652 -0.06606372848283336 0.0
  outer loop
    vertex 1.503598200856713 0.6112345095144784 0.06600000000000227
    vertex 1.5036154469505587 0.6109740274235991 -0.004000000000000443
    vertex 1.5036154469505587 0.6109740274235991 0.06600000000000227
  endloop
endfacet
facet normal -0.9978154056632652 -0.06606372848283336 0.0
  outer loop
    vertex 1.5036154469505587 0.6109740274235991 -0.004000000000000443
    vertex 1.503598200856713 0.6112345095144784 0.06600000000000227
    vertex 1.503598200856713 0.6112345095144784 -0.004000000000000443
  endloop
endfacet
facet normal -0.9809142213222986 0.19444096895373897 0.0
  outer loop
    vertex 1.5036489601352914 0.6114905795108858 0.06600000000000227
    vertex 1.503598200856713 0.6112345095144784 -0.004000000000000443
    vertex 1.503598200856713 0.6112345095144784 0.06600000000000227
  endloop
endfacet
facet normal -0.9809142213222986 0.19444096895373897 0.0
  outer loop
    vertex 1.503598200856713 0.6112345095144784 -0.004000000000000443
    vertex 1.5036489601352914 0.6114905795108858 0.06600000000000227
    vertex 1.5036489601352914 0.6114905795108858 -0.004000000000000443
  endloop
endfacet
facet normal -0.8971653538347664 0.44169483569376117 0.0
  outer loop
    vertex 1.503764265625344 0.6117247866657414 0.06600000000000227
    vertex 1.5036489601352914 0.6114905795108858 -0.004000000000000443
    vertex 1.5036489601352914 0.6114905795108858 0.06600000000000227
  endloop
endfacet
facet normal -0.8971653538347664 0.44169483569376117 0.0
  outer loop
    vertex 1.5036489601352914 0.6114905795108858 -0.004000000000000443
    vertex 1.503764265625344 0.6117247866657414 0.06600000000000227
    vertex 1.503764265625344 0.6117247866657414 -0.004000000000000443
  endloop
endfacet
facet normal -0.7522761501194746 0.658847929314058 0.0
  outer loop
    vertex 1.503936259448275 0.6119211701484877 0.06600000000000227
    vertex 1.503764265625344 0.6117247866657414 -0.004000000000000443
    vertex 1.503764265625344 0.6117247866657414 0.06600000000000227
  endloop
endfacet
facet normal -0.7522761501194746 0.658847929314058 0.0
  outer loop
    vertex 1.503764265625344 0.6117247866657414 -0.004000000000000443
    vertex 1.503936259448275 0.6119211701484877 0.06600000000000227
    vertex 1.503936259448275 0.6119211701484877 -0.004000000000000443
  endloop
endfacet
facet normal -0.5561205699694778 0.8311016253484427 -0.0
  outer loop
    vertex 1.503936259448275 0.6119211701484877 0.06600000000000227
    vertex 1.5041532205092845 0.6120663467493145 -0.004000000000000443
    vertex 1.503936259448275 0.6119211701484877 -0.004000000000000443
  endloop
endfacet
facet normal -0.5561205699694778 0.8311016253484427 -0.0
  outer loop
    vertex 1.5041532205092845 0.6120663467493145 -0.004000000000000443
    vertex 1.503936259448275 0.6119211701484877 0.06600000000000227
    vertex 1.5041532205092845 0.6120663467493145 0.06600000000000227
  endloop
endfacet
facet normal 0.0 0.0 1.0
  outer loop
    vertex 1.5036154469505587 0.6109740274235991 0.06600000000000227
    vertex 1.5036489601352914 0.6114905795108858 0.06600000000000227
    vertex 1.503598200856713 0.6112345095144784 0.06600000000000227
  endloop
endfacet
facet normal 0.0 0.0 1.0
  outer loop
    vertex 1.5036489601352914 0.6114905795108858 0.06600000000000227
    vertex 1.5036154469505587 0.6109740274235991 0.06600000000000227
    vertex 1.5036995231240355 0.610726884662274 0.06600000000000227
  endloop
endfacet
facet normal 0.0 0.0 1.0
  outer loop
    vertex 1.5036489601352914 0.6114905795108858 0.06600000000000227
    vertex 1.5036995231240355 0.610726884662274 0.06600000000000227
    vertex 1.503764265625344 0.6117247866657414 0.06600000000000227
  endloop
endfacet
facet normal 0.0 0.0 1.0
  outer loop
    vertex 1.503764265625344 0.6117247866657414 0.06600000000000227
    vertex 1.5036995231240355 0.610726884662274 0.06600000000000227
    vertex 1.5038446997248625 0.6105099236012645 0.06600000000000227
  endloop
endfacet
facet normal 0.0 0.0 1.0
  outer loop
    vertex 1.503764265625344 0.6117247866657414 0.06600000000000227
    vertex 1.5038446997248625 0.6105099236012645 0.06600000000000227
    vertex 1.503936259448275 0.6119211701484877 0.06600000000000227
  endloop
endfacet
facet normal 0.0 0.0 1.0
  outer loop
    vertex 1.503936259448275 0.6119211701484877 0.06600000000000227
    vertex 1.5038446997248625 0.6105099236012645 0.06600000000000227
    vertex 1.5040410832076085 0.6103379297783338 0.06600000000000227
  endloop
endfacet
facet normal 0.0 0.0 1.0
  outer loop
    vertex 1.503936259448275 0.6119211701484877 0.06600000000000227
    vertex 1.5040410832076085 0.6103379297783338 0.06600000000000227
    vertex 1.5041532205092845 0.6120663467493145 0.06600000000000227
  endloop
endfacet
facet normal 0.0 0.0 1.0
  outer loop
    vertex 1.5041532205092845 0.6120663467493145 0.06600000000000227
    vertex 1.5040410832076085 0.6103379297783338 0.06600000000000227
    vertex 1.5042752903624648 0.6102226242882812 0.06600000000000227
  endloop
endfacet
facet normal 0.0 0.0 1.0
  outer loop
    vertex 1.5041532205092845 0.6120663467493145 0.06600000000000227
    vertex 1.5042752903624648 0.6102226242882812 0.06600000000000227
    vertex 1.5044003632706098 0.6121504229227909 0.06600000000000227
  endloop
endfacet
facet normal 0.0 0.0 1.0
  outer loop
    vertex 1.5044003632706098 0.6121504229227909 0.06600000000000227
    vertex 1.5042752903624648 0.6102226242882812 0.06600000000000227
    vertex 1.5045313603588715 0.6101718650097022 0.06600000000000227
  endloop
endfacet
facet normal 0.0 0.0 1.0
  outer loop
    vertex 1.5044003632706098 0.6121504229227909 0.06600000000000227
    vertex 1.5045313603588715 0.6101718650097022 0.06600000000000227
    vertex 1.504660845361489 0.6121676690166372 0.06600000000000227
  endloop
endfacet
facet normal 0.0 0.0 1.0
  outer loop
    vertex 1.504660845361489 0.6121676690166372 0.06600000000000227
    vertex 1.5045313603588715 0.6101718650097022 0.06600000000000227
    vertex 1.504791842449751 0.610189111103549 0.06600000000000227
  endloop
endfacet
facet normal 0.0 0.0 1.0
  outer loop
    vertex 1.504660845361489 0.6121676690166372 0.06600000000000227
    vertex 1.504791842449751 0.610189111103549 0.06600000000000227
    vertex 1.504916915357896 0.6121169097380585 0.06600000000000227
  endloop
endfacet
facet normal 0.0 0.0 1.0
  outer loop
    vertex 1.504916915357896 0.6121169097380585 0.06600000000000227
    vertex 1.504791842449751 0.610189111103549 0.06600000000000227
    vertex 1.5050389852110764 0.6102731872770252 0.06600000000000227
  endloop
endfacet
facet normal 0.0 0.0 1.0
  outer loop
    vertex 1.504916915357896 0.6121169097380585 0.06600000000000227
    vertex 1.5050389852110764 0.6102731872770252 0.06600000000000227
    vertex 1.5051511225127527 0.6120016042480058 0.06600000000000227
  endloop
endfacet
facet normal 0.0 0.0 1.0
  outer loop
    vertex 1.5051511225127527 0.6120016042480058 0.06600000000000227
    vertex 1.5050389852110764 0.6102731872770252 0.06600000000000227
    vertex 1.5052559462720854 0.610418363877852 0.06600000000000227
  endloop
endfacet
facet normal 0.0 0.0 1.0
  outer loop
    vertex 1.5051511225127527 0.6120016042480058 0.06600000000000227
    vertex 1.5052559462720854 0.610418363877852 0.06600000000000227
    vertex 1.5053475059954982 0.6118296104250751 0.06600000000000227
  endloop
endfacet
facet normal 0.0 0.0 1.0
  outer loop
    vertex 1.5053475059954982 0.6118296104250751 0.06600000000000227
    vertex 1.5052559462720854 0.610418363877852 0.06600000000000227
    vertex 1.505427940095016 0.6106147473605982 0.06600000000000227
  endloop
endfacet
facet normal 0.0 0.0 1.0
  outer loop
    vertex 1.5053475059954982 0.6118296104250751 0.06600000000000227
    vertex 1.505427940095016 0.6106147473605982 0.06600000000000227
    vertex 1.505492682596325 0.6116126493640657 0.06600000000000227
  endloop
endfacet
facet normal 0.0 0.0 1.0
  outer loop
    vertex 1.505492682596325 0.6116126493640657 0.06600000000000227
    vertex 1.505427940095016 0.6106147473605982 0.06600000000000227
    vertex 1.505543245585069 0.6108489545154538 0.06600000000000227
  endloop
endfacet
facet normal 0.0 0.0 1.0
  outer loop
    vertex 1.505492682596325 0.6116126493640657 0.06600000000000227
    vertex 1.505543245585069 0.6108489545154538 0.06600000000000227
    vertex 1.5055767587698012 0.6113655066027402 0.06600000000000227
  endloop
endfacet
facet normal 0.0 0.0 1.0
  outer loop
    vertex 1.5055767587698012 0.6113655066027402 0.06600000000000227
    vertex 1.505543245585069 0.6108489545154538 0.06600000000000227
    vertex 1.505594004863648 0.6111050245118611 0.06600000000000227
  endloop
endfacet
facet normal 0.0 0.0 1.0
  outer loop
    vertex 1.50344169371435 0.6095365678446591 -0.004000000000000443
    vertex 1.5036154469505587 0.6109740274235991 -0.004000000000000443
    vertex 1.503598200856713 0.6112345095144784 -0.004000000000000443
  endloop
endfacet
facet normal 0.0 0.0 1.0
  outer loop
    vertex 1.5036154469505587 0.6109740274235991 -0.004000000000000443
    vertex 1.50344169371435 0.6095365678446591 -0.004000000000000443
    vertex 1.5039037323013744 0.6092934346840501 -0.004000000000000443
  endloop
endfacet
facet normal 0.0 0.0 1.0
  outer loop
    vertex 1.5036154469505587 0.6109740274235991 -0.004000000000000443
    vertex 1.5039037323013744 0.6092934346840501 -0.004000000000000443
    vertex 1.5036995231240355 0.610726884662274 -0.004000000000000443
  endloop
endfacet
facet normal 0.0 0.0 1.0
  outer loop
    vertex 1.5036995231240355 0.610726884662274 -0.004000000000000443
    vertex 1.5039037323013744 0.6092934346840501 -0.004000000000000443
    vertex 1.5038446997248625 0.6105099236012645 -0.004000000000000443
  endloop
endfacet
facet normal 0.0 0.0 1.0
  outer loop
    vertex 1.5038446997248625 0.6105099236012645 -0.004000000000000443
    vertex 1.5039037323013744 0.6092934346840501 -0.004000000000000443
    vertex 1.5040410832076085 0.6103379297783338 -0.004000000000000443
  endloop
endfacet
facet normal 0.0 0.0 1.0
  outer loop
    vertex 1.5040410832076085 0.6103379297783338 -0.004000000000000443
    vertex 1.5039037323013744 0.6092934346840501 -0.004000000000000443
    vertex 1.5044129547977851 0.6091781704708845 -0.004000000000000443
  endloop
endfacet
facet normal 0.0 0.0 1.0
  outer loop
    vertex 1.5040410832076085 0.6103379297783338 -0.004000000000000443
    vertex 1.5044129547977851 0.6091781704708845 -0.004000000000000443
    vertex 1.5042752903624648 0.6102226242882812 -0.004000000000000443
  endloop
endfacet
facet normal 0.0 0.0 1.0
  outer loop
    vertex 1.5042752903624648 0.6102226242882812 -0.004000000000000443
    vertex 1.5044129547977851 0.6091781704708845 -0.004000000000000443
    vertex 1.5045313603588715 0.6101718650097022 -0.004000000000000443
  endloop
endfacet
facet normal 0.0 0.0 1.0
  outer loop
    vertex 1.5045313603588715 0.6101718650097022 -0.004000000000000443
    vertex 1.5044129547977851 0.6091781704708845 -0.004000000000000443
    vertex 1.5049346585319816 0.609198630270807 -0.004000000000000443
  endloop
endfacet
facet normal 0.0 0.0 1.0
  outer loop
    vertex 1.5045313603588715 0.6101718650097022 -0.004000000000000443
    vertex 1.5049346585319816 0.609198630270807 -0.004000000000000443
    vertex 1.504791842449751 0.610189111103549 -0.004000000000000443
  endloop
endfacet
facet normal 0.0 0.0 1.0
  outer loop
    vertex 1.504791842449751 0.610189111103549 -0.004000000000000443
    vertex 1.5049346585319816 0.609198630270807 -0.004000000000000443
    vertex 1.5050389852110764 0.6102731872770252 -0.004000000000000443
  endloop
endfacet
facet normal 0.0 0.0 1.0
  outer loop
    vertex 1.5050389852110764 0.6102731872770252 -0.004000000000000443
    vertex 1.5049346585319816 0.609198630270807 -0.004000000000000443
    vertex 1.505433290256635 0.6093534197822639 -0.004000000000000443
  endloop
endfacet
facet normal 0.0 0.0 1.0
  outer loop
    vertex 1.5050389852110764 0.6102731872770252 -0.004000000000000443
    vertex 1.505433290256635 0.6093534197822639 -0.004000000000000443
    vertex 1.5052559462720854 0.610418363877852 -0.004000000000000443
  endloop
endfacet
facet normal 0.0 0.0 1.0
  outer loop
    vertex 1.5052559462720854 0.610418363877852 -0.004000000000000443
    vertex 1.505433290256635 0.6093534197822639 -0.004000000000000443
    vertex 1.505427940095016 0.6106147473605982 -0.004000000000000443
  endloop
endfacet
facet normal 0.0 0.0 1.0
  outer loop
    vertex 1.505427940095016 0.6106147473605982 -0.004000000000000443
    vertex 1.505433290256635 0.6093534197822639 -0.004000000000000443
    vertex 1.505543245585069 0.6108489545154538 -0.004000000000000443
  endloop
endfacet
facet normal 0.0 0.0 1.0
  outer loop
    vertex 1.505543245585069 0.6108489545154538 -0.004000000000000443
    vertex 1.505433290256635 0.6093534197822639 -0.004000000000000443
    vertex 1.5058748690437371 0.6096319903558512 -0.004000000000000443
  endloop
endfacet
facet normal 0.0 0.0 1.0
  outer loop
    vertex 1.505543245585069 0.6108489545154538 -0.004000000000000443
    vertex 1.5058748690437371 0.6096319903558512 -0.004000000000000443
    vertex 1.505594004863648 0.6111050245118611 -0.004000000000000443
  endloop
endfacet
facet normal 0.0 0.0 1.0
  outer loop
    vertex 1.505594004863648 0.6111050245118611 -0.004000000000000443
    vertex 1.5058748690437371 0.6096319903558512 -0.004000000000000443
    vertex 1.5057505120060113 0.6128029661816801 -0.004000000000000443
  endloop
endfacet
facet normal 0.0 0.0 1.0
  outer loop
    vertex 1.5057505120060113 0.6128029661816801 -0.004000000000000443
    vertex 1.5058748690437371 0.6096319903558512 -0.004000000000000443
    vertex 1.5061338795174988 0.6124485331967262 -0.004000000000000443
  endloop
endfacet
facet normal 0.0 0.0 1.0
  outer loop
    vertex 1.5061338795174988 0.6124485331967262 -0.004000000000000443
    vertex 1.5058748690437371 0.6096319903558512 -0.004000000000000443
    vertex 1.5062293020286908 0.6100153578673388 -0.004000000000000443
  endloop
endfacet
facet normal 0.0 0.0 1.0
  outer loop
    vertex 1.5061338795174988 0.6124485331967262 -0.004000000000000443
    vertex 1.5062293020286908 0.6100153578673388 -0.004000000000000443
    vertex 1.5064124500910865 0.6120069544096239 -0.004000000000000443
  endloop
endfacet
facet normal 0.0 0.0 1.0
  outer loop
    vertex 1.5064124500910865 0.6120069544096239 -0.004000000000000443
    vertex 1.5062293020286908 0.6100153578673388 -0.004000000000000443
    vertex 1.5064724351893002 0.6104773964543635 -0.004000000000000443
  endloop
endfacet
facet normal 0.0 0.0 1.0
  outer loop
    vertex 1.5064124500910865 0.6120069544096239 -0.004000000000000443
    vertex 1.5064724351893002 0.6104773964543635 -0.004000000000000443
    vertex 1.5065672396025431 0.6115083226849709 -0.004000000000000443
  endloop
endfacet
facet normal 0.0 0.0 1.0
  outer loop
    vertex 1.5065672396025431 0.6115083226849709 -0.004000000000000443
    vertex 1.5064724351893002 0.6104773964543635 -0.004000000000000443
    vertex 1.5065876994024656 0.6109866189507742 -0.004000000000000443
  endloop
endfacet
facet normal 0.0 0.0 1.0
  outer loop
    vertex 1.5026249661178177 0.6108312113413683 -0.004000000000000443
    vertex 1.5027197705310607 0.6118621375719757 -0.004000000000000443
    vertex 1.5026045063178952 0.6113529150755649 -0.004000000000000443
  endloop
endfacet
facet normal 0.0 0.0 1.0
  outer loop
    vertex 1.5027197705310607 0.6118621375719757 -0.004000000000000443
    vertex 1.5026249661178177 0.6108312113413683 -0.004000000000000443
    vertex 1.5027797556292748 0.6103325796167152 -0.004000000000000443
  endloop
endfacet
facet normal 0.0 0.0 1.0
  outer loop
    vertex 1.5027197705310607 0.6118621375719757 -0.004000000000000443
    vertex 1.5027797556292748 0.6103325796167152 -0.004000000000000443
    vertex 1.50296290369167 0.6123241761590004 -0.004000000000000443
  endloop
endfacet
facet normal 0.0 0.0 1.0
  outer loop
    vertex 1.50296290369167 0.6123241761590004 -0.004000000000000443
    vertex 1.5027797556292748 0.6103325796167152 -0.004000000000000443
    vertex 1.5030583262028623 0.609891000829613 -0.004000000000000443
  endloop
endfacet
facet normal 0.0 0.0 1.0
  outer loop
    vertex 1.50296290369167 0.6123241761590004 -0.004000000000000443
    vertex 1.5030583262028623 0.609891000829613 -0.004000000000000443
    vertex 1.5033173366766237 0.6127075436704879 -0.004000000000000443
  endloop
endfacet
facet normal 0.0 0.0 1.0
  outer loop
    vertex 1.5033173366766237 0.6127075436704879 -0.004000000000000443
    vertex 1.5030583262028623 0.609891000829613 -0.004000000000000443
    vertex 1.50344169371435 0.6095365678446591 -0.004000000000000443
  endloop
endfacet
facet normal 0.0 0.0 1.0
  outer loop
    vertex 1.5033173366766237 0.6127075436704879 -0.004000000000000443
    vertex 1.50344169371435 0.6095365678446591 -0.004000000000000443
    vertex 1.5037589154637263 0.6129861142440753 -0.004000000000000443
  endloop
endfacet
facet normal 0.0 0.0 1.0
  outer loop
    vertex 1.5037589154637263 0.6129861142440753 -0.004000000000000443
    vertex 1.50344169371435 0.6095365678446591 -0.004000000000000443
    vertex 1.503598200856713 0.6112345095144784 -0.004000000000000443
  endloop
endfacet
facet normal 0.0 0.0 1.0
  outer loop
    vertex 1.5037589154637263 0.6129861142440753 -0.004000000000000443
    vertex 1.503598200856713 0.6112345095144784 -0.004000000000000443
    vertex 1.5036489601352914 0.6114905795108858 -0.004000000000000443
  endloop
endfacet
facet normal 0.0 0.0 1.0
  outer loop
    vertex 1.5037589154637263 0.6129861142440753 -0.004000000000000443
    vertex 1.5036489601352914 0.6114905795108858 -0.004000000000000443
    vertex 1.503764265625344 0.6117247866657414 -0.004000000000000443
  endloop
endfacet
facet normal 0.0 0.0 1.0
  outer loop
    vertex 1.5037589154637263 0.6129861142440753 -0.004000000000000443
    vertex 1.503764265625344 0.6117247866657414 -0.004000000000000443
    vertex 1.5042575471883792 0.6131409037555322 -0.004000000000000443
  endloop
endfacet
facet normal 0.0 0.0 1.0
  outer loop
    vertex 1.5042575471883792 0.6131409037555322 -0.004000000000000443
    vertex 1.503764265625344 0.6117247866657414 -0.004000000000000443
    vertex 1.503936259448275 0.6119211701484877 -0.004000000000000443
  endloop
endfacet
facet normal 0.0 0.0 1.0
  outer loop
    vertex 1.5042575471883792 0.6131409037555322 -0.004000000000000443
    vertex 1.503936259448275 0.6119211701484877 -0.004000000000000443
    vertex 1.5041532205092845 0.6120663467493145 -0.004000000000000443
  endloop
endfacet
facet normal 0.0 0.0 1.0
  outer loop
    vertex 1.5042575471883792 0.6131409037555322 -0.004000000000000443
    vertex 1.5041532205092845 0.6120663467493145 -0.004000000000000443
    vertex 1.5044003632706098 0.6121504229227909 -0.004000000000000443
  endloop
endfacet
facet normal 0.0 0.0 1.0
  outer loop
    vertex 1.5042575471883792 0.6131409037555322 -0.004000000000000443
    vertex 1.5044003632706098 0.6121504229227909 -0.004000000000000443
    vertex 1.5047792509225757 0.6131613635554546 -0.004000000000000443
  endloop
endfacet
facet normal 0.0 0.0 1.0
  outer loop
    vertex 1.5047792509225757 0.6131613635554546 -0.004000000000000443
    vertex 1.5044003632706098 0.6121504229227909 -0.004000000000000443
    vertex 1.504660845361489 0.6121676690166372 -0.004000000000000443
  endloop
endfacet
facet normal 0.0 0.0 1.0
  outer loop
    vertex 1.5047792509225757 0.6131613635554546 -0.004000000000000443
    vertex 1.504660845361489 0.6121676690166372 -0.004000000000000443
    vertex 1.504916915357896 0.6121169097380585 -0.004000000000000443
  endloop
endfacet
facet normal 0.0 0.0 1.0
  outer loop
    vertex 1.5047792509225757 0.6131613635554546 -0.004000000000000443
    vertex 1.504916915357896 0.6121169097380585 -0.004000000000000443
    vertex 1.5052884734189864 0.6130460993422892 -0.004000000000000443
  endloop
endfacet
facet normal 0.0 0.0 1.0
  outer loop
    vertex 1.5052884734189864 0.6130460993422892 -0.004000000000000443
    vertex 1.504916915357896 0.6121169097380585 -0.004000000000000443
    vertex 1.5051511225127527 0.6120016042480058 -0.004000000000000443
  endloop
endfacet
facet normal 0.0 0.0 1.0
  outer loop
    vertex 1.5052884734189864 0.6130460993422892 -0.004000000000000443
    vertex 1.5051511225127527 0.6120016042480058 -0.004000000000000443
    vertex 1.5053475059954982 0.6118296104250751 -0.004000000000000443
  endloop
endfacet
facet normal 0.0 0.0 1.0
  outer loop
    vertex 1.5052884734189864 0.6130460993422892 -0.004000000000000443
    vertex 1.5053475059954982 0.6118296104250751 -0.004000000000000443
    vertex 1.5057505120060113 0.6128029661816801 -0.004000000000000443
  endloop
endfacet
facet normal 0.0 0.0 1.0
  outer loop
    vertex 1.5057505120060113 0.6128029661816801 -0.004000000000000443
    vertex 1.5053475059954982 0.6118296104250751 -0.004000000000000443
    vertex 1.505492682596325 0.6116126493640657 -0.004000000000000443
  endloop
endfacet
facet normal 0.0 0.0 1.0
  outer loop
    vertex 1.5057505120060113 0.6128029661816801 -0.004000000000000443
    vertex 1.505492682596325 0.6116126493640657 -0.004000000000000443
    vertex 1.5055767587698012 0.6113655066027402 -0.004000000000000443
  endloop
endfacet
facet normal 0.0 0.0 1.0
  outer loop
    vertex 1.5057505120060113 0.6128029661816801 -0.004000000000000443
    vertex 1.5055767587698012 0.6113655066027402 -0.004000000000000443
    vertex 1.505594004863648 0.6111050245118611 -0.004000000000000443
  endloop
endfacet
facet normal -0.9992318884875346 -0.039187153885364805 0.0
  outer loop
    vertex 1.5026045063178952 0.6113529150755649 -0.004000000000000443
    vertex 1.5026249661178177 0.6108312113413683 -0.005000000000000554
    vertex 1.5026249661178177 0.6108312113413683 -0.004000000000000443
  endloop
endfacet
facet normal -0.9992318884875346 -0.039187153885364805 0.0
  outer loop
    vertex 1.5026249661178177 0.6108312113413683 -0.005000000000000554
    vertex 1.5026045063178952 0.6113529150755649 -0.004000000000000443
    vertex 1.5026045063178952 0.6113529150755649 -0.005000000000000554
  endloop
endfacet
facet normal -0.9753262692906056 0.22076835921768634 0.0
  outer loop
    vertex 1.5027197705310607 0.6118621375719757 -0.004000000000000443
    vertex 1.5026045063178952 0.6113529150755649 -0.005000000000000554
    vertex 1.5026045063178952 0.6113529150755649 -0.004000000000000443
  endloop
endfacet
facet normal -0.9753262692906056 0.22076835921768634 0.0
  outer loop
    vertex 1.5026045063178952 0.6113529150755649 -0.005000000000000554
    vertex 1.5027197705310607 0.6118621375719757 -0.004000000000000443
    vertex 1.5027197705310607 0.6118621375719757 -0.005000000000000554
  endloop
endfacet
facet normal -0.8849537766443568 0.4656788734770884 0.0
  outer loop
    vertex 1.50296290369167 0.6123241761590004 -0.004000000000000443
    vertex 1.5027197705310607 0.6118621375719757 -0.005000000000000554
    vertex 1.5027197705310607 0.6118621375719757 -0.004000000000000443
  endloop
endfacet
facet normal -0.8849537766443568 0.4656788734770884 0.0
  outer loop
    vertex 1.5027197705310607 0.6118621375719757 -0.005000000000000554
    vertex 1.50296290369167 0.6123241761590004 -0.004000000000000443
    vertex 1.50296290369167 0.6123241761590004 -0.005000000000000554
  endloop
endfacet
facet normal -0.7342731465751224 0.6788541420796288 0.0
  outer loop
    vertex 1.5033173366766237 0.6127075436704879 -0.004000000000000443
    vertex 1.50296290369167 0.6123241761590004 -0.005000000000000554
    vertex 1.50296290369167 0.6123241761590004 -0.004000000000000443
  endloop
endfacet
facet normal -0.7342731465751224 0.6788541420796288 0.0
  outer loop
    vertex 1.50296290369167 0.6123241761590004 -0.005000000000000554
    vertex 1.5033173366766237 0.6127075436704879 -0.004000000000000443
    vertex 1.5033173366766237 0.6127075436704879 -0.005000000000000554
  endloop
endfacet
facet normal -0.5335530150105057 0.8457666227590205 0.0
  outer loop
    vertex 1.5033173366766237 0.6127075436704879 -0.004000000000000443
    vertex 1.5037589154637263 0.6129861142440753 -0.005000000000000554
    vertex 1.5033173366766237 0.6127075436704879 -0.005000000000000554
  endloop
endfacet
facet normal -0.5335530150105057 0.8457666227590205 0.0
  outer loop
    vertex 1.5037589154637263 0.6129861142440753 -0.005000000000000554
    vertex 1.5033173366766237 0.6127075436704879 -0.004000000000000443
    vertex 1.5037589154637263 0.6129861142440753 -0.004000000000000443
  endloop
endfacet
facet normal -0.2964721272109531 0.9550415057928178 0.0
  outer loop
    vertex 1.5037589154637263 0.6129861142440753 -0.004000000000000443
    vertex 1.5042575471883792 0.6131409037555322 -0.005000000000000554
    vertex 1.5037589154637263 0.6129861142440753 -0.005000000000000554
  endloop
endfacet
facet normal -0.2964721272109531 0.9550415057928178 0.0
  outer loop
    vertex 1.5042575471883792 0.6131409037555322 -0.005000000000000554
    vertex 1.5037589154637263 0.6129861142440753 -0.004000000000000443
    vertex 1.5042575471883792 0.6131409037555322 -0.004000000000000443
  endloop
endfacet
facet normal -0.039187153885366144 0.9992318884875346 0.0
  outer loop
    vertex 1.5042575471883792 0.6131409037555322 -0.004000000000000443
    vertex 1.5047792509225757 0.6131613635554546 -0.005000000000000554
    vertex 1.5042575471883792 0.6131409037555322 -0.005000000000000554
  endloop
endfacet
facet normal -0.039187153885366144 0.9992318884875346 0.0
  outer loop
    vertex 1.5047792509225757 0.6131613635554546 -0.005000000000000554
    vertex 1.5042575471883792 0.6131409037555322 -0.004000000000000443
    vertex 1.5047792509225757 0.6131613635554546 -0.004000000000000443
  endloop
endfacet
facet normal 0.22076835921771915 0.9753262692905981 0.0
  outer loop
    vertex 1.5047792509225757 0.6131613635554546 -0.004000000000000443
    vertex 1.5052884734189864 0.6130460993422892 -0.005000000000000554
    vertex 1.5047792509225757 0.6131613635554546 -0.005000000000000554
  endloop
endfacet
facet normal 0.22076835921771915 0.9753262692905981 0.0
  outer loop
    vertex 1.5052884734189864 0.6130460993422892 -0.005000000000000554
    vertex 1.5047792509225757 0.6131613635554546 -0.004000000000000443
    vertex 1.5052884734189864 0.6130460993422892 -0.004000000000000443
  endloop
endfacet
facet normal 0.4656788734770341 0.8849537766443852 0.0
  outer loop
    vertex 1.5052884734189864 0.6130460993422892 -0.004000000000000443
    vertex 1.5057505120060113 0.6128029661816801 -0.005000000000000554
    vertex 1.5052884734189864 0.6130460993422892 -0.005000000000000554
  endloop
endfacet
facet normal 0.4656788734770341 0.8849537766443852 0.0
  outer loop
    vertex 1.5057505120060113 0.6128029661816801 -0.005000000000000554
    vertex 1.5052884734189864 0.6130460993422892 -0.004000000000000443
    vertex 1.5057505120060113 0.6128029661816801 -0.004000000000000443
  endloop
endfacet
facet normal 0.6788541420796474 0.7342731465751052 0.0
  outer loop
    vertex 1.5057505120060113 0.6128029661816801 -0.004000000000000443
    vertex 1.5061338795174988 0.6124485331967262 -0.005000000000000554
    vertex 1.5057505120060113 0.6128029661816801 -0.005000000000000554
  endloop
endfacet
facet normal 0.6788541420796474 0.7342731465751052 0.0
  outer loop
    vertex 1.5061338795174988 0.6124485331967262 -0.005000000000000554
    vertex 1.5057505120060113 0.6128029661816801 -0.004000000000000443
    vertex 1.5061338795174988 0.6124485331967262 -0.004000000000000443
  endloop
endfacet
facet normal 0.8457666227590362 0.5335530150104809 0.0
  outer loop
    vertex 1.5061338795174988 0.6124485331967262 -0.005000000000000554
    vertex 1.5064124500910865 0.6120069544096239 -0.004000000000000443
    vertex 1.5064124500910865 0.6120069544096239 -0.005000000000000554
  endloop
endfacet
facet normal 0.8457666227590362 0.5335530150104809 0.0
  outer loop
    vertex 1.5064124500910865 0.6120069544096239 -0.004000000000000443
    vertex 1.5061338795174988 0.6124485331967262 -0.005000000000000554
    vertex 1.5061338795174988 0.6124485331967262 -0.004000000000000443
  endloop
endfacet
facet normal 0.9550415057928048 0.2964721272109944 0.0
  outer loop
    vertex 1.5064124500910865 0.6120069544096239 -0.005000000000000554
    vertex 1.5065672396025431 0.6115083226849709 -0.004000000000000443
    vertex 1.5065672396025431 0.6115083226849709 -0.005000000000000554
  endloop
endfacet
facet normal 0.9550415057928048 0.2964721272109944 0.0
  outer loop
    vertex 1.5065672396025431 0.6115083226849709 -0.004000000000000443
    vertex 1.5064124500910865 0.6120069544096239 -0.005000000000000554
    vertex 1.5064124500910865 0.6120069544096239 -0.004000000000000443
  endloop
endfacet
facet normal 0.9992318884875346 0.039187153885364805 0.0
  outer loop
    vertex 1.5065672396025431 0.6115083226849709 -0.005000000000000554
    vertex 1.5065876994024656 0.6109866189507742 -0.004000000000000443
    vertex 1.5065876994024656 0.6109866189507742 -0.005000000000000554
  endloop
endfacet
facet normal 0.9992318884875346 0.039187153885364805 0.0
  outer loop
    vertex 1.5065876994024656 0.6109866189507742 -0.004000000000000443
    vertex 1.5065672396025431 0.6115083226849709 -0.005000000000000554
    vertex 1.5065672396025431 0.6115083226849709 -0.004000000000000443
  endloop
endfacet
facet normal 0.9753262692906056 -0.22076835921768634 0.0
  outer loop
    vertex 1.5065876994024656 0.6109866189507742 -0.005000000000000554
    vertex 1.5064724351893002 0.6104773964543635 -0.004000000000000443
    vertex 1.5064724351893002 0.6104773964543635 -0.005000000000000554
  endloop
endfacet
facet normal 0.9753262692906056 -0.22076835921768634 0.0
  outer loop
    vertex 1.5064724351893002 0.6104773964543635 -0.004000000000000443
    vertex 1.5065876994024656 0.6109866189507742 -0.005000000000000554
    vertex 1.5065876994024656 0.6109866189507742 -0.004000000000000443
  endloop
endfacet
facet normal 0.8849537766443568 -0.4656788734770884 0.0
  outer loop
    vertex 1.5064724351893002 0.6104773964543635 -0.005000000000000554
    vertex 1.5062293020286908 0.6100153578673388 -0.004000000000000443
    vertex 1.5062293020286908 0.6100153578673388 -0.005000000000000554
  endloop
endfacet
facet normal 0.8849537766443568 -0.4656788734770884 0.0
  outer loop
    vertex 1.5062293020286908 0.6100153578673388 -0.004000000000000443
    vertex 1.5064724351893002 0.6104773964543635 -0.005000000000000554
    vertex 1.5064724351893002 0.6104773964543635 -0.004000000000000443
  endloop
endfacet
facet normal 0.7342731465751224 -0.6788541420796288 0.0
  outer loop
    vertex 1.5062293020286908 0.6100153578673388 -0.005000000000000554
    vertex 1.5058748690437371 0.6096319903558512 -0.004000000000000443
    vertex 1.5058748690437371 0.6096319903558512 -0.005000000000000554
  endloop
endfacet
facet normal 0.7342731465751224 -0.6788541420796288 0.0
  outer loop
    vertex 1.5058748690437371 0.6096319903558512 -0.004000000000000443
    vertex 1.5062293020286908 0.6100153578673388 -0.005000000000000554
    vertex 1.5062293020286908 0.6100153578673388 -0.004000000000000443
  endloop
endfacet
facet normal 0.5335530150105057 -0.8457666227590205 0.0
  outer loop
    vertex 1.5058748690437371 0.6096319903558512 -0.004000000000000443
    vertex 1.505433290256635 0.6093534197822639 -0.005000000000000554
    vertex 1.5058748690437371 0.6096319903558512 -0.005000000000000554
  endloop
endfacet
facet normal 0.5335530150105057 -0.8457666227590205 0.0
  outer loop
    vertex 1.505433290256635 0.6093534197822639 -0.005000000000000554
    vertex 1.5058748690437371 0.6096319903558512 -0.004000000000000443
    vertex 1.505433290256635 0.6093534197822639 -0.004000000000000443
  endloop
endfacet
facet normal 0.2964721272109531 -0.9550415057928178 0.0
  outer loop
    vertex 1.505433290256635 0.6093534197822639 -0.004000000000000443
    vertex 1.5049346585319816 0.609198630270807 -0.005000000000000554
    vertex 1.505433290256635 0.6093534197822639 -0.005000000000000554
  endloop
endfacet
facet normal 0.2964721272109531 -0.9550415057928178 0.0
  outer loop
    vertex 1.5049346585319816 0.609198630270807 -0.005000000000000554
    vertex 1.505433290256635 0.6093534197822639 -0.004000000000000443
    vertex 1.5049346585319816 0.609198630270807 -0.004000000000000443
  endloop
endfacet
facet normal 0.039187153885366144 -0.9992318884875346 0.0
  outer loop
    vertex 1.5049346585319816 0.609198630270807 -0.004000000000000443
    vertex 1.5044129547977851 0.6091781704708845 -0.005000000000000554
    vertex 1.5049346585319816 0.609198630270807 -0.005000000000000554
  endloop
endfacet
facet normal 0.039187153885366144 -0.9992318884875346 0.0
  outer loop
    vertex 1.5044129547977851 0.6091781704708845 -0.005000000000000554
    vertex 1.5049346585319816 0.609198630270807 -0.004000000000000443
    vertex 1.5044129547977851 0.6091781704708845 -0.004000000000000443
  endloop
endfacet
facet normal -0.22076835921771915 -0.9753262692905981 0.0
  outer loop
    vertex 1.5044129547977851 0.6091781704708845 -0.004000000000000443
    vertex 1.5039037323013744 0.6092934346840501 -0.005000000000000554
    vertex 1.5044129547977851 0.6091781704708845 -0.005000000000000554
  endloop
endfacet
facet normal -0.22076835921771915 -0.9753262692905981 0.0
  outer loop
    vertex 1.5039037323013744 0.6092934346840501 -0.005000000000000554
    vertex 1.5044129547977851 0.6091781704708845 -0.004000000000000443
    vertex 1.5039037323013744 0.6092934346840501 -0.004000000000000443
  endloop
endfacet
facet normal -0.4656788734770341 -0.8849537766443852 0.0
  outer loop
    vertex 1.5039037323013744 0.6092934346840501 -0.004000000000000443
    vertex 1.50344169371435 0.6095365678446591 -0.005000000000000554
    vertex 1.5039037323013744 0.6092934346840501 -0.005000000000000554
  endloop
endfacet
facet normal -0.4656788734770341 -0.8849537766443852 0.0
  outer loop
    vertex 1.50344169371435 0.6095365678446591 -0.005000000000000554
    vertex 1.5039037323013744 0.6092934346840501 -0.004000000000000443
    vertex 1.50344169371435 0.6095365678446591 -0.004000000000000443
  endloop
endfacet
facet normal -0.6788541420796474 -0.7342731465751052 0.0
  outer loop
    vertex 1.50344169371435 0.6095365678446591 -0.004000000000000443
    vertex 1.5030583262028623 0.609891000829613 -0.005000000000000554
    vertex 1.50344169371435 0.6095365678446591 -0.005000000000000554
  endloop
endfacet
facet normal -0.6788541420796474 -0.7342731465751052 0.0
  outer loop
    vertex 1.5030583262028623 0.609891000829613 -0.005000000000000554
    vertex 1.50344169371435 0.6095365678446591 -0.004000000000000443
    vertex 1.5030583262028623 0.609891000829613 -0.004000000000000443
  endloop
endfacet
facet normal -0.8457666227590362 -0.5335530150104809 0.0
  outer loop
    vertex 1.5027797556292748 0.6103325796167152 -0.004000000000000443
    vertex 1.5030583262028623 0.609891000829613 -0.005000000000000554
    vertex 1.5030583262028623 0.609891000829613 -0.004000000000000443
  endloop
endfacet
facet normal -0.8457666227590362 -0.5335530150104809 0.0
  outer loop
    vertex 1.5030583262028623 0.609891000829613 -0.005000000000000554
    vertex 1.5027797556292748 0.6103325796167152 -0.004000000000000443
    vertex 1.5027797556292748 0.6103325796167152 -0.005000000000000554
  endloop
endfacet
facet normal -0.9550415057928048 -0.2964721272109944 0.0
  outer loop
    vertex 1.5026249661178177 0.6108312113413683 -0.004000000000000443
    vertex 1.5027797556292748 0.6103325796167152 -0.005000000000000554
    vertex 1.5027797556292748 0.6103325796167152 -0.004000000000000443
  endloop
endfacet
facet normal -0.9550415057928048 -0.2964721272109944 0.0
  outer loop
    vertex 1.5027797556292748 0.6103325796167152 -0.005000000000000554
    vertex 1.5026249661178177 0.6108312113413683 -0.004000000000000443
    vertex 1.5026249661178177 0.6108312113413683 -0.005000000000000554
  endloop
endfacet
facet normal 0.0 0.0 -1.0
  outer loop
    vertex 1.5036489601352914 0.6114905795108858 -0.005000000000000554
    vertex 1.5036154469505587 0.6109740274235991 -0.005000000000000554
    vertex 1.503598200856713 0.6112345095144784 -0.005000000000000554
  endloop
endfacet
facet normal 0.0 0.0 -1.0
  outer loop
    vertex 1.5036154469505587 0.6109740274235991 -0.005000000000000554
    vertex 1.5036489601352914 0.6114905795108858 -0.005000000000000554
    vertex 1.5036995231240355 0.610726884662274 -0.005000000000000554
  endloop
endfacet
facet normal 0.0 0.0 -1.0
  outer loop
    vertex 1.5036995231240355 0.610726884662274 -0.005000000000000554
    vertex 1.5036489601352914 0.6114905795108858 -0.005000000000000554
    vertex 1.503764265625344 0.6117247866657414 -0.005000000000000554
  endloop
endfacet
facet normal 0.0 0.0 -1.0
  outer loop
    vertex 1.5036995231240355 0.610726884662274 -0.005000000000000554
    vertex 1.503764265625344 0.6117247866657414 -0.005000000000000554
    vertex 1.5038446997248625 0.6105099236012645 -0.005000000000000554
  endloop
endfacet
facet normal 0.0 0.0 -1.0
  outer loop
    vertex 1.5038446997248625 0.6105099236012645 -0.005000000000000554
    vertex 1.503764265625344 0.6117247866657414 -0.005000000000000554
    vertex 1.503936259448275 0.6119211701484877 -0.005000000000000554
  endloop
endfacet
facet normal 0.0 0.0 -1.0
  outer loop
    vertex 1.5038446997248625 0.6105099236012645 -0.005000000000000554
    vertex 1.503936259448275 0.6119211701484877 -0.005000000000000554
    vertex 1.5040410832076085 0.6103379297783338 -0.005000000000000554
  endloop
endfacet
facet normal 0.0 0.0 -1.0
  outer loop
    vertex 1.5040410832076085 0.6103379297783338 -0.005000000000000554
    vertex 1.503936259448275 0.6119211701484877 -0.005000000000000554
    vertex 1.5041532205092845 0.6120663467493145 -0.005000000000000554
  endloop
endfacet
facet normal 0.0 0.0 -1.0
  outer loop
    vertex 1.5040410832076085 0.6103379297783338 -0.005000000000000554
    vertex 1.5041532205092845 0.6120663467493145 -0.005000000000000554
    vertex 1.5042752903624648 0.6102226242882812 -0.005000000000000554
  endloop
endfacet
facet normal 0.0 0.0 -1.0
  outer loop
    vertex 1.5042752903624648 0.6102226242882812 -0.005000000000000554
    vertex 1.5041532205092845 0.6120663467493145 -0.005000000000000554
    vertex 1.5044003632706098 0.6121504229227909 -0.005000000000000554
  endloop
endfacet
facet normal 0.0 0.0 -1.0
  outer loop
    vertex 1.5042752903624648 0.6102226242882812 -0.005000000000000554
    vertex 1.5044003632706098 0.6121504229227909 -0.005000000000000554
    vertex 1.5045313603588715 0.6101718650097022 -0.005000000000000554
  endloop
endfacet
facet normal 0.0 0.0 -1.0
  outer loop
    vertex 1.5045313603588715 0.6101718650097022 -0.005000000000000554
    vertex 1.5044003632706098 0.6121504229227909 -0.005000000000000554
    vertex 1.504660845361489 0.6121676690166372 -0.005000000000000554
  endloop
endfacet
facet normal 0.0 0.0 -1.0
  outer loop
    vertex 1.5045313603588715 0.6101718650097022 -0.005000000000000554
    vertex 1.504660845361489 0.6121676690166372 -0.005000000000000554
    vertex 1.504791842449751 0.610189111103549 -0.005000000000000554
  endloop
endfacet
facet normal 0.0 0.0 -1.0
  outer loop
    vertex 1.504791842449751 0.610189111103549 -0.005000000000000554
    vertex 1.504660845361489 0.6121676690166372 -0.005000000000000554
    vertex 1.504916915357896 0.6121169097380585 -0.005000000000000554
  endloop
endfacet
facet normal 0.0 0.0 -1.0
  outer loop
    vertex 1.504791842449751 0.610189111103549 -0.005000000000000554
    vertex 1.504916915357896 0.6121169097380585 -0.005000000000000554
    vertex 1.5050389852110764 0.6102731872770252 -0.005000000000000554
  endloop
endfacet
facet normal 0.0 0.0 -1.0
  outer loop
    vertex 1.5050389852110764 0.6102731872770252 -0.005000000000000554
    vertex 1.504916915357896 0.6121169097380585 -0.005000000000000554
    vertex 1.5051511225127527 0.6120016042480058 -0.005000000000000554
  endloop
endfacet
facet normal 0.0 0.0 -1.0
  outer loop
    vertex 1.5050389852110764 0.6102731872770252 -0.005000000000000554
    vertex 1.5051511225127527 0.6120016042480058 -0.005000000000000554
    vertex 1.5052559462720854 0.610418363877852 -0.005000000000000554
  endloop
endfacet
facet normal 0.0 0.0 -1.0
  outer loop
    vertex 1.5052559462720854 0.610418363877852 -0.005000000000000554
    vertex 1.5051511225127527 0.6120016042480058 -0.005000000000000554
    vertex 1.5053475059954982 0.6118296104250751 -0.005000000000000554
  endloop
endfacet
facet normal 0.0 0.0 -1.0
  outer loop
    vertex 1.5052559462720854 0.610418363877852 -0.005000000000000554
    vertex 1.5053475059954982 0.6118296104250751 -0.005000000000000554
    vertex 1.505427940095016 0.6106147473605982 -0.005000000000000554
  endloop
endfacet
facet normal 0.0 0.0 -1.0
  outer loop
    vertex 1.505427940095016 0.6106147473605982 -0.005000000000000554
    vertex 1.5053475059954982 0.6118296104250751 -0.005000000000000554
    vertex 1.505492682596325 0.6116126493640657 -0.005000000000000554
  endloop
endfacet
facet normal 0.0 0.0 -1.0
  outer loop
    vertex 1.505427940095016 0.6106147473605982 -0.005000000000000554
    vertex 1.505492682596325 0.6116126493640657 -0.005000000000000554
    vertex 1.505543245585069 0.6108489545154538 -0.005000000000000554
  endloop
endfacet
facet normal 0.0 0.0 -1.0
  outer loop
    vertex 1.505543245585069 0.6108489545154538 -0.005000000000000554
    vertex 1.505492682596325 0.6116126493640657 -0.005000000000000554
    vertex 1.5055767587698012 0.6113655066027402 -0.005000000000000554
  endloop
endfacet
facet normal 0.0 0.0 -1.0
  outer loop
    vertex 1.505543245585069 0.6108489545154538 -0.005000000000000554
    vertex 1.5055767587698012 0.6113655066027402 -0.005000000000000554
    vertex 1.505594004863648 0.6111050245118611 -0.005000000000000554
  endloop
endfacet
facet normal 0.19444096895565482 0.9809142213219189 -3.766372491525076e-29
  outer loop
    vertex 1.504660845361489 0.6121676690166372 -0.004000000000000443
    vertex 1.504916915357896 0.6121169097380585 -0.005000000000000554
    vertex 1.504660845361489 0.6121676690166372 -0.005000000000000554
  endloop
endfacet
facet normal 0.19444096895565482 0.9809142213219189 -3.766372491525076e-29
  outer loop
    vertex 1.504916915357896 0.6121169097380585 -0.005000000000000554
    vertex 1.504660845361489 0.6121676690166372 -0.004000000000000443
    vertex 1.504916915357896 0.6121169097380585 -0.004000000000000443
  endloop
endfacet
facet normal 0.4416948356927493 0.8971653538352646 -3.861980182803823e-18
  outer loop
    vertex 1.504916915357896 0.6121169097380585 -0.004000000000000443
    vertex 1.5051511225127527 0.6120016042480058 -0.005000000000000554
    vertex 1.504916915357896 0.6121169097380585 -0.005000000000000554
  endloop
endfacet
facet normal 0.4416948356927493 0.8971653538352646 -3.861980182803823e-18
  outer loop
    vertex 1.5051511225127527 0.6120016042480058 -0.005000000000000554
    vertex 1.504916915357896 0.6121169097380585 -0.004000000000000443
    vertex 1.5051511225127527 0.6120016042480058 -0.004000000000000443
  endloop
endfacet
facet normal 0.6588479293142497 0.7522761501193066 0.0
  outer loop
    vertex 1.5051511225127527 0.6120016042480058 -0.004000000000000443
    vertex 1.5053475059954982 0.6118296104250751 -0.005000000000000554
    vertex 1.5051511225127527 0.6120016042480058 -0.005000000000000554
  endloop
endfacet
facet normal 0.6588479293142497 0.7522761501193066 0.0
  outer loop
    vertex 1.5053475059954982 0.6118296104250751 -0.005000000000000554
    vertex 1.5051511225127527 0.6120016042480058 -0.004000000000000443
    vertex 1.5053475059954982 0.6118296104250751 -0.004000000000000443
  endloop
endfacet
facet normal 0.8311016253485918 0.5561205699692553 3.633388651697685e-18
  outer loop
    vertex 1.5053475059954982 0.6118296104250751 -0.005000000000000554
    vertex 1.505492682596325 0.6116126493640657 -0.004000000000000443
    vertex 1.505492682596325 0.6116126493640657 -0.005000000000000554
  endloop
endfacet
facet normal 0.8311016253485918 0.5561205699692553 3.633388651697685e-18
  outer loop
    vertex 1.505492682596325 0.6116126493640657 -0.004000000000000443
    vertex 1.5053475059954982 0.6118296104250751 -0.005000000000000554
    vertex 1.5053475059954982 0.6118296104250751 -0.004000000000000443
  endloop
endfacet
facet normal 0.9467171190765882 0.32206629200729026 2.04891127841155e-29
  outer loop
    vertex 1.505492682596325 0.6116126493640657 -0.005000000000000554
    vertex 1.5055767587698012 0.6113655066027402 -0.004000000000000443
    vertex 1.5055767587698012 0.6113655066027402 -0.005000000000000554
  endloop
endfacet
facet normal 0.9467171190765882 0.32206629200729026 2.04891127841155e-29
  outer loop
    vertex 1.5055767587698012 0.6113655066027402 -0.004000000000000443
    vertex 1.505492682596325 0.6116126493640657 -0.005000000000000554
    vertex 1.505492682596325 0.6116126493640657 -0.004000000000000443
  endloop
endfacet
facet normal 0.9978154056630241 0.06606372848647651 -2.5391483544505663e-28
  outer loop
    vertex 1.5055767587698012 0.6113655066027402 -0.005000000000000554
    vertex 1.505594004863648 0.6111050245118611 -0.004000000000000443
    vertex 1.505594004863648 0.6111050245118611 -0.005000000000000554
  endloop
endfacet
facet normal 0.9978154056630241 0.06606372848647651 -2.5391483544505663e-28
  outer loop
    vertex 1.505594004863648 0.6111050245118611 -0.004000000000000443
    vertex 1.5055767587698012 0.6113655066027402 -0.005000000000000554
    vertex 1.5055767587698012 0.6113655066027402 -0.004000000000000443
  endloop
endfacet
facet normal 0.9809142213218398 -0.19444096895605337 -1.1243710434868806e-28
  outer loop
    vertex 1.505594004863648 0.6111050245118611 -0.005000000000000554
    vertex 1.505543245585069 0.6108489545154538 -0.004000000000000443
    vertex 1.505543245585069 0.6108489545154538 -0.005000000000000554
  endloop
endfacet
facet normal 0.9809142213218398 -0.19444096895605337 -1.1243710434868806e-28
  outer loop
    vertex 1.505543245585069 0.6108489545154538 -0.004000000000000443
    vertex 1.505594004863648 0.6111050245118611 -0.005000000000000554
    vertex 1.505594004863648 0.6111050245118611 -0.004000000000000443
  endloop
endfacet
facet normal 0.8971653538345186 -0.4416948356942646 3.861980182903125e-18
  outer loop
    vertex 1.505543245585069 0.6108489545154538 -0.005000000000000554
    vertex 1.505427940095016 0.6106147473605982 -0.004000000000000443
    vertex 1.505427940095016 0.6106147473605982 -0.005000000000000554
  endloop
endfacet
facet normal 0.8971653538345186 -0.4416948356942646 3.861980182903125e-18
  outer loop
    vertex 1.505427940095016 0.6106147473605982 -0.004000000000000443
    vertex 1.505543245585069 0.6108489545154538 -0.005000000000000554
    vertex 1.505543245585069 0.6108489545154538 -0.004000000000000443
  endloop
endfacet
facet normal 0.7522761501202071 -0.6588479293132217 -9.571613836734101e-29
  outer loop
    vertex 1.505427940095016 0.6106147473605982 -0.005000000000000554
    vertex 1.5052559462720854 0.610418363877852 -0.004000000000000443
    vertex 1.5052559462720854 0.610418363877852 -0.005000000000000554
  endloop
endfacet
facet normal 0.7522761501202071 -0.6588479293132217 -9.571613836734101e-29
  outer loop
    vertex 1.5052559462720854 0.610418363877852 -0.004000000000000443
    vertex 1.505427940095016 0.6106147473605982 -0.005000000000000554
    vertex 1.505427940095016 0.6106147473605982 -0.004000000000000443
  endloop
endfacet
facet normal 0.5561205699701329 -0.8311016253480044 -3.633388651642242e-18
  outer loop
    vertex 1.5052559462720854 0.610418363877852 -0.004000000000000443
    vertex 1.5050389852110764 0.6102731872770252 -0.005000000000000554
    vertex 1.5052559462720854 0.610418363877852 -0.005000000000000554
  endloop
endfacet
facet normal 0.5561205699701329 -0.8311016253480044 -3.633388651642242e-18
  outer loop
    vertex 1.5050389852110764 0.6102731872770252 -0.005000000000000554
    vertex 1.5052559462720854 0.610418363877852 -0.004000000000000443
    vertex 1.5050389852110764 0.6102731872770252 -0.004000000000000443
  endloop
endfacet
facet normal 0.3220662920067763 -0.9467171190767631 -1.2045590804627036e-28
  outer loop
    vertex 1.5050389852110764 0.6102731872770252 -0.004000000000000443
    vertex 1.504791842449751 0.610189111103549 -0.005000000000000554
    vertex 1.5050389852110764 0.6102731872770252 -0.005000000000000554
  endloop
endfacet
facet normal 0.3220662920067763 -0.9467171190767631 -1.2045590804627036e-28
  outer loop
    vertex 1.504791842449751 0.610189111103549 -0.005000000000000554
    vertex 1.5050389852110764 0.6102731872770252 -0.004000000000000443
    vertex 1.504791842449751 0.610189111103549 -0.004000000000000443
  endloop
endfacet
facet normal 0.06606372848741784 -0.9978154056629618 -5.776314087642042e-19
  outer loop
    vertex 1.504791842449751 0.610189111103549 -0.004000000000000443
    vertex 1.5045313603588715 0.6101718650097022 -0.005000000000000554
    vertex 1.504791842449751 0.610189111103549 -0.005000000000000554
  endloop
endfacet
facet normal 0.06606372848741784 -0.9978154056629618 -5.776314087642042e-19
  outer loop
    vertex 1.5045313603588715 0.6101718650097022 -0.005000000000000554
    vertex 1.504791842449751 0.610189111103549 -0.004000000000000443
    vertex 1.5045313603588715 0.6101718650097022 -0.004000000000000443
  endloop
endfacet
facet normal -0.19444096895671567 -0.9809142213217086 6.240349459405204e-29
  outer loop
    vertex 1.5045313603588715 0.6101718650097022 -0.004000000000000443
    vertex 1.5042752903624648 0.6102226242882812 -0.005000000000000554
    vertex 1.5045313603588715 0.6101718650097022 -0.005000000000000554
  endloop
endfacet
facet normal -0.19444096895671567 -0.9809142213217086 6.240349459405204e-29
  outer loop
    vertex 1.5042752903624648 0.6102226242882812 -0.005000000000000554
    vertex 1.5045313603588715 0.6101718650097022 -0.004000000000000443
    vertex 1.5042752903624648 0.6102226242882812 -0.004000000000000443
  endloop
endfacet
facet normal -0.44169483569274065 -0.8971653538352687 -3.861980182691351e-18
  outer loop
    vertex 1.5042752903624648 0.6102226242882812 -0.004000000000000443
    vertex 1.5040410832076085 0.6103379297783338 -0.005000000000000554
    vertex 1.5042752903624648 0.6102226242882812 -0.005000000000000554
  endloop
endfacet
facet normal -0.44169483569274065 -0.8971653538352687 -3.861980182691351e-18
  outer loop
    vertex 1.5040410832076085 0.6103379297783338 -0.005000000000000554
    vertex 1.5042752903624648 0.6102226242882812 -0.004000000000000443
    vertex 1.5040410832076085 0.6103379297783338 -0.004000000000000443
  endloop
endfacet
facet normal -0.6588479293136129 -0.7522761501198644 -8.38287636197706e-29
  outer loop
    vertex 1.5040410832076085 0.6103379297783338 -0.004000000000000443
    vertex 1.5038446997248625 0.6105099236012645 -0.005000000000000554
    vertex 1.5040410832076085 0.6103379297783338 -0.005000000000000554
  endloop
endfacet
facet normal -0.6588479293136129 -0.7522761501198644 -8.38287636197706e-29
  outer loop
    vertex 1.5038446997248625 0.6105099236012645 -0.005000000000000554
    vertex 1.5040410832076085 0.6103379297783338 -0.004000000000000443
    vertex 1.5038446997248625 0.6105099236012645 -0.004000000000000443
  endloop
endfacet
facet normal -0.8311016253482721 -0.5561205699697327 0.0
  outer loop
    vertex 1.5036995231240355 0.610726884662274 -0.004000000000000443
    vertex 1.5038446997248625 0.6105099236012645 -0.005000000000000554
    vertex 1.5038446997248625 0.6105099236012645 -0.004000000000000443
  endloop
endfacet
facet normal -0.8311016253482721 -0.5561205699697327 0.0
  outer loop
    vertex 1.5038446997248625 0.6105099236012645 -0.005000000000000554
    vertex 1.5036995231240355 0.610726884662274 -0.004000000000000443
    vertex 1.5036995231240355 0.610726884662274 -0.005000000000000554
  endloop
endfacet
facet normal -0.9467171190758125 -0.3220662920095707 -9.996679526188879e-29
  outer loop
    vertex 1.5036154469505587 0.6109740274235991 -0.004000000000000443
    vertex 1.5036995231240355 0.610726884662274 -0.005000000000000554
    vertex 1.5036995231240355 0.610726884662274 -0.004000000000000443
  endloop
endfacet
facet normal -0.9467171190758125 -0.3220662920095707 -9.996679526188879e-29
  outer loop
    vertex 1.5036995231240355 0.610726884662274 -0.005000000000000554
    vertex 1.5036154469505587 0.6109740274235991 -0.004000000000000443
    vertex 1.5036154469505587 0.6109740274235991 -0.005000000000000554
  endloop
endfacet
facet normal -0.9978154056632564 -0.0660637284829665 1.2275459607552858e-28
  outer loop
    vertex 1.503598200856713 0.6112345095144784 -0.004000000000000443
    vertex 1.5036154469505587 0.6109740274235991 -0.005000000000000554
    vertex 1.5036154469505587 0.6109740274235991 -0.004000000000000443
  endloop
endfacet
facet normal -0.9978154056632564 -0.0660637284829665 1.2275459607552858e-28
  outer loop
    vertex 1.5036154469505587 0.6109740274235991 -0.005000000000000554
    vertex 1.503598200856713 0.6112345095144784 -0.004000000000000443
    vertex 1.503598200856713 0.6112345095144784 -0.005000000000000554
  endloop
endfacet
facet normal -0.9809142213222484 0.19444096895399188 0.0
  outer loop
    vertex 1.5036489601352914 0.6114905795108858 -0.004000000000000443
    vertex 1.503598200856713 0.6112345095144784 -0.005000000000000554
    vertex 1.503598200856713 0.6112345095144784 -0.004000000000000443
  endloop
endfacet
facet normal -0.9809142213222484 0.19444096895399188 0.0
  outer loop
    vertex 1.503598200856713 0.6112345095144784 -0.005000000000000554
    vertex 1.5036489601352914 0.6114905795108858 -0.004000000000000443
    vertex 1.5036489601352914 0.6114905795108858 -0.005000000000000554
  endloop
endfacet
facet normal -0.8971653538347252 0.441694835693845 5.619920823311557e-29
  outer loop
    vertex 1.503764265625344 0.6117247866657414 -0.004000000000000443
    vertex 1.5036489601352914 0.6114905795108858 -0.005000000000000554
    vertex 1.5036489601352914 0.6114905795108858 -0.004000000000000443
  endloop
endfacet
facet normal -0.8971653538347252 0.441694835693845 5.619920823311557e-29
  outer loop
    vertex 1.5036489601352914 0.6114905795108858 -0.005000000000000554
    vertex 1.503764265625344 0.6117247866657414 -0.004000000000000443
    vertex 1.503764265625344 0.6117247866657414 -0.005000000000000554
  endloop
endfacet
facet normal -0.7522761501195216 0.658847929314004 9.57161383672538e-29
  outer loop
    vertex 1.503936259448275 0.6119211701484877 -0.004000000000000443
    vertex 1.503764265625344 0.6117247866657414 -0.005000000000000554
    vertex 1.503764265625344 0.6117247866657414 -0.004000000000000443
  endloop
endfacet
facet normal -0.7522761501195216 0.658847929314004 9.57161383672538e-29
  outer loop
    vertex 1.503764265625344 0.6117247866657414 -0.005000000000000554
    vertex 1.503936259448275 0.6119211701484877 -0.004000000000000443
    vertex 1.503936259448275 0.6119211701484877 -0.005000000000000554
  endloop
endfacet
facet normal -0.5561205699694131 0.8311016253484859 4.862467130820001e-18
  outer loop
    vertex 1.503936259448275 0.6119211701484877 -0.004000000000000443
    vertex 1.5041532205092845 0.6120663467493145 -0.005000000000000554
    vertex 1.503936259448275 0.6119211701484877 -0.005000000000000554
  endloop
endfacet
facet normal -0.5561205699694131 0.8311016253484859 4.862467130820001e-18
  outer loop
    vertex 1.5041532205092845 0.6120663467493145 -0.005000000000000554
    vertex 1.503936259448275 0.6119211701484877 -0.004000000000000443
    vertex 1.5041532205092845 0.6120663467493145 -0.004000000000000443
  endloop
endfacet
facet normal -0.32206629200781733 0.946717119076409 -0.0
  outer loop
    vertex 1.5041532205092845 0.6120663467493145 -0.004000000000000443
    vertex 1.5044003632706098 0.6121504229227909 -0.005000000000000554
    vertex 1.5041532205092845 0.6120663467493145 -0.005000000000000554
  endloop
endfacet
facet normal -0.32206629200781733 0.946717119076409 -0.0
  outer loop
    vertex 1.5044003632706098 0.6121504229227909 -0.005000000000000554
    vertex 1.5041532205092845 0.6120663467493145 -0.004000000000000443
    vertex 1.5044003632706098 0.6121504229227909 -0.004000000000000443
  endloop
endfacet
facet normal -0.06606372848613236 0.9978154056630469 7.18843521557269e-29
  outer loop
    vertex 1.5044003632706098 0.6121504229227909 -0.004000000000000443
    vertex 1.504660845361489 0.6121676690166372 -0.005000000000000554
    vertex 1.5044003632706098 0.6121504229227909 -0.005000000000000554
  endloop
endfacet
facet normal -0.06606372848613236 0.9978154056630469 7.18843521557269e-29
  outer loop
    vertex 1.504660845361489 0.6121676690166372 -0.005000000000000554
    vertex 1.5044003632706098 0.6121504229227909 -0.004000000000000443
    vertex 1.504660845361489 0.6121676690166372 -0.004000000000000443
  endloop
endfacet
facet normal 0.0 0.0 -1.0
  outer loop
    vertex 1.5027197705310607 0.6118621375719757 -0.005000000000000554
    vertex 1.5026249661178177 0.6108312113413683 -0.005000000000000554
    vertex 1.5026045063178952 0.6113529150755649 -0.005000000000000554
  endloop
endfacet
facet normal 0.0 0.0 -1.0
  outer loop
    vertex 1.5026249661178177 0.6108312113413683 -0.005000000000000554
    vertex 1.5027197705310607 0.6118621375719757 -0.005000000000000554
    vertex 1.5027797556292748 0.6103325796167152 -0.005000000000000554
  endloop
endfacet
facet normal 0.0 0.0 -1.0
  outer loop
    vertex 1.5027797556292748 0.6103325796167152 -0.005000000000000554
    vertex 1.5027197705310607 0.6118621375719757 -0.005000000000000554
    vertex 1.50296290369167 0.6123241761590004 -0.005000000000000554
  endloop
endfacet
facet normal 0.0 0.0 -1.0
  outer loop
    vertex 1.5027797556292748 0.6103325796167152 -0.005000000000000554
    vertex 1.50296290369167 0.6123241761590004 -0.005000000000000554
    vertex 1.5030583262028623 0.609891000829613 -0.005000000000000554
  endloop
endfacet
facet normal 0.0 0.0 -1.0
  outer loop
    vertex 1.5030583262028623 0.609891000829613 -0.005000000000000554
    vertex 1.50296290369167 0.6123241761590004 -0.005000000000000554
    vertex 1.5033173366766237 0.6127075436704879 -0.005000000000000554
  endloop
endfacet
facet normal 0.0 0.0 -1.0
  outer loop
    vertex 1.5030583262028623 0.609891000829613 -0.005000000000000554
    vertex 1.5033173366766237 0.6127075436704879 -0.005000000000000554
    vertex 1.50344169371435 0.6095365678446591 -0.005000000000000554
  endloop
endfacet
facet normal 0.0 0.0 -1.0
  outer loop
    vertex 1.50344169371435 0.6095365678446591 -0.005000000000000554
    vertex 1.5033173366766237 0.6127075436704879 -0.005000000000000554
    vertex 1.5037589154637263 0.6129861142440753 -0.005000000000000554
  endloop
endfacet
facet normal 0.0 0.0 -1.0
  outer loop
    vertex 1.50344169371435 0.6095365678446591 -0.005000000000000554
    vertex 1.5037589154637263 0.6129861142440753 -0.005000000000000554
    vertex 1.503598200856713 0.6112345095144784 -0.005000000000000554
  endloop
endfacet
facet normal 0.0 0.0 -1.0
  outer loop
    vertex 1.503598200856713 0.6112345095144784 -0.005000000000000554
    vertex 1.5037589154637263 0.6129861142440753 -0.005000000000000554
    vertex 1.5036489601352914 0.6114905795108858 -0.005000000000000554
  endloop
endfacet
facet normal 0.0 0.0 -1.0
  outer loop
    vertex 1.5036489601352914 0.6114905795108858 -0.005000000000000554
    vertex 1.5037589154637263 0.6129861142440753 -0.005000000000000554
    vertex 1.503764265625344 0.6117247866657414 -0.005000000000000554
  endloop
endfacet
facet normal 0.0 0.0 -1.0
  outer loop
    vertex 1.503764265625344 0.6117247866657414 -0.005000000000000554
    vertex 1.5037589154637263 0.6129861142440753 -0.005000000000000554
    vertex 1.5042575471883792 0.6131409037555322 -0.005000000000000554
  endloop
endfacet
facet normal 0.0 0.0 -1.0
  outer loop
    vertex 1.503764265625344 0.6117247866657414 -0.005000000000000554
    vertex 1.5042575471883792 0.6131409037555322 -0.005000000000000554
    vertex 1.503936259448275 0.6119211701484877 -0.005000000000000554
  endloop
endfacet
facet normal 0.0 0.0 -1.0
  outer loop
    vertex 1.503936259448275 0.6119211701484877 -0.005000000000000554
    vertex 1.5042575471883792 0.6131409037555322 -0.005000000000000554
    vertex 1.5041532205092845 0.6120663467493145 -0.005000000000000554
  endloop
endfacet
facet normal 0.0 0.0 -1.0
  outer loop
    vertex 1.5041532205092845 0.6120663467493145 -0.005000000000000554
    vertex 1.5042575471883792 0.6131409037555322 -0.005000000000000554
    vertex 1.5044003632706098 0.6121504229227909 -0.005000000000000554
  endloop
endfacet
facet normal 0.0 0.0 -1.0
  outer loop
    vertex 1.5044003632706098 0.6121504229227909 -0.005000000000000554
    vertex 1.5042575471883792 0.6131409037555322 -0.005000000000000554
    vertex 1.5047792509225757 0.6131613635554546 -0.005000000000000554
  endloop
endfacet
facet normal 0.0 0.0 -1.0
  outer loop
    vertex 1.5044003632706098 0.6121504229227909 -0.005000000000000554
    vertex 1.5047792509225757 0.6131613635554546 -0.005000000000000554
    vertex 1.504660845361489 0.6121676690166372 -0.005000000000000554
  endloop
endfacet
facet normal 0.0 0.0 -1.0
  outer loop
    vertex 1.504660845361489 0.6121676690166372 -0.005000000000000554
    vertex 1.5047792509225757 0.6131613635554546 -0.005000000000000554
    vertex 1.504916915357896 0.6121169097380585 -0.005000000000000554
  endloop
endfacet
facet normal 0.0 0.0 -1.0
  outer loop
    vertex 1.504916915357896 0.6121169097380585 -0.005000000000000554
    vertex 1.5047792509225757 0.6131613635554546 -0.005000000000000554
    vertex 1.5052884734189864 0.6130460993422892 -0.005000000000000554
  endloop
endfacet
facet normal 0.0 0.0 -1.0
  outer loop
    vertex 1.504916915357896 0.6121169097380585 -0.005000000000000554
    vertex 1.5052884734189864 0.6130460993422892 -0.005000000000000554
    vertex 1.5051511225127527 0.6120016042480058 -0.005000000000000554
  endloop
endfacet
facet normal 0.0 0.0 -1.0
  outer loop
    vertex 1.5051511225127527 0.6120016042480058 -0.005000000000000554
    vertex 1.5052884734189864 0.6130460993422892 -0.005000000000000554
    vertex 1.5053475059954982 0.6118296104250751 -0.005000000000000554
  endloop
endfacet
facet normal 0.0 0.0 -1.0
  outer loop
    vertex 1.5053475059954982 0.6118296104250751 -0.005000000000000554
    vertex 1.5052884734189864 0.6130460993422892 -0.005000000000000554
    vertex 1.5057505120060113 0.6128029661816801 -0.005000000000000554
  endloop
endfacet
facet normal 0.0 0.0 -1.0
  outer loop
    vertex 1.5053475059954982 0.6118296104250751 -0.005000000000000554
    vertex 1.5057505120060113 0.6128029661816801 -0.005000000000000554
    vertex 1.505492682596325 0.6116126493640657 -0.005000000000000554
  endloop
endfacet
facet normal 0.0 0.0 -1.0
  outer loop
    vertex 1.505492682596325 0.6116126493640657 -0.005000000000000554
    vertex 1.5057505120060113 0.6128029661816801 -0.005000000000000554
    vertex 1.5055767587698012 0.6113655066027402 -0.005000000000000554
  endloop
endfacet
facet normal 0.0 0.0 -1.0
  outer loop
    vertex 1.5055767587698012 0.6113655066027402 -0.005000000000000554
    vertex 1.5057505120060113 0.6128029661816801 -0.005000000000000554
    vertex 1.505594004863648 0.6111050245118611 -0.005000000000000554
  endloop
endfacet
facet normal 0.0 0.0 -1.0
  outer loop
    vertex 1.50344169371435 0.6095365678446591 -0.005000000000000554
    vertex 1.5036154469505587 0.6109740274235991 -0.005000000000000554
    vertex 1.5039037323013744 0.6092934346840501 -0.005000000000000554
  endloop
endfacet
facet normal 0.0 0.0 -1.0
  outer loop
    vertex 1.5036154469505587 0.6109740274235991 -0.005000000000000554
    vertex 1.50344169371435 0.6095365678446591 -0.005000000000000554
    vertex 1.503598200856713 0.6112345095144784 -0.005000000000000554
  endloop
endfacet
facet normal 0.0 0.0 -1.0
  outer loop
    vertex 1.5039037323013744 0.6092934346840501 -0.005000000000000554
    vertex 1.5036154469505587 0.6109740274235991 -0.005000000000000554
    vertex 1.5036995231240355 0.610726884662274 -0.005000000000000554
  endloop
endfacet
facet normal 0.0 0.0 -1.0
  outer loop
    vertex 1.5039037323013744 0.6092934346840501 -0.005000000000000554
    vertex 1.5036995231240355 0.610726884662274 -0.005000000000000554
    vertex 1.5038446997248625 0.6105099236012645 -0.005000000000000554
  endloop
endfacet
facet normal 0.0 0.0 -1.0
  outer loop
    vertex 1.5039037323013744 0.6092934346840501 -0.005000000000000554
    vertex 1.5038446997248625 0.6105099236012645 -0.005000000000000554
    vertex 1.5040410832076085 0.6103379297783338 -0.005000000000000554
  endloop
endfacet
facet normal 0.0 0.0 -1.0
  outer loop
    vertex 1.5039037323013744 0.6092934346840501 -0.005000000000000554
    vertex 1.5040410832076085 0.6103379297783338 -0.005000000000000554
    vertex 1.5044129547977851 0.6091781704708845 -0.005000000000000554
  endloop
endfacet
facet normal 0.0 0.0 -1.0
  outer loop
    vertex 1.5044129547977851 0.6091781704708845 -0.005000000000000554
    vertex 1.5040410832076085 0.6103379297783338 -0.005000000000000554
    vertex 1.5042752903624648 0.6102226242882812 -0.005000000000000554
  endloop
endfacet
facet normal 0.0 0.0 -1.0
  outer loop
    vertex 1.5044129547977851 0.6091781704708845 -0.005000000000000554
    vertex 1.5042752903624648 0.6102226242882812 -0.005000000000000554
    vertex 1.5045313603588715 0.6101718650097022 -0.005000000000000554
  endloop
endfacet
facet normal 0.0 0.0 -1.0
  outer loop
    vertex 1.5044129547977851 0.6091781704708845 -0.005000000000000554
    vertex 1.5045313603588715 0.6101718650097022 -0.005000000000000554
    vertex 1.5049346585319816 0.609198630270807 -0.005000000000000554
  endloop
endfacet
facet normal 0.0 0.0 -1.0
  outer loop
    vertex 1.5049346585319816 0.609198630270807 -0.005000000000000554
    vertex 1.5045313603588715 0.6101718650097022 -0.005000000000000554
    vertex 1.504791842449751 0.610189111103549 -0.005000000000000554
  endloop
endfacet
facet normal 0.0 0.0 -1.0
  outer loop
    vertex 1.5049346585319816 0.609198630270807 -0.005000000000000554
    vertex 1.504791842449751 0.610189111103549 -0.005000000000000554
    vertex 1.5050389852110764 0.6102731872770252 -0.005000000000000554
  endloop
endfacet
facet normal 0.0 0.0 -1.0
  outer loop
    vertex 1.5049346585319816 0.609198630270807 -0.005000000000000554
    vertex 1.5050389852110764 0.6102731872770252 -0.005000000000000554
    vertex 1.505433290256635 0.6093534197822639 -0.005000000000000554
  endloop
endfacet
facet normal 0.0 0.0 -1.0
  outer loop
    vertex 1.505433290256635 0.6093534197822639 -0.005000000000000554
    vertex 1.5050389852110764 0.6102731872770252 -0.005000000000000554
    vertex 1.5052559462720854 0.610418363877852 -0.005000000000000554
  endloop
endfacet
facet normal 0.0 0.0 -1.0
  outer loop
    vertex 1.505433290256635 0.6093534197822639 -0.005000000000000554
    vertex 1.5052559462720854 0.610418363877852 -0.005000000000000554
    vertex 1.505427940095016 0.6106147473605982 -0.005000000000000554
  endloop
endfacet
facet normal 0.0 0.0 -1.0
  outer loop
    vertex 1.505433290256635 0.6093534197822639 -0.005000000000000554
    vertex 1.505427940095016 0.6106147473605982 -0.005000000000000554
    vertex 1.505543245585069 0.6108489545154538 -0.005000000000000554
  endloop
endfacet
facet normal 0.0 0.0 -1.0
  outer loop
    vertex 1.505433290256635 0.6093534197822639 -0.005000000000000554
    vertex 1.505543245585069 0.6108489545154538 -0.005000000000000554
    vertex 1.5058748690437371 0.6096319903558512 -0.005000000000000554
  endloop
endfacet
facet normal 0.0 0.0 -1.0
  outer loop
    vertex 1.5058748690437371 0.6096319903558512 -0.005000000000000554
    vertex 1.505543245585069 0.6108489545154538 -0.005000000000000554
    vertex 1.505594004863648 0.6111050245118611 -0.005000000000000554
  endloop
endfacet
facet normal 0.0 0.0 -1.0
  outer loop
    vertex 1.5058748690437371 0.6096319903558512 -0.005000000000000554
    vertex 1.505594004863648 0.6111050245118611 -0.005000000000000554
    vertex 1.5057505120060113 0.6128029661816801 -0.005000000000000554
  endloop
endfacet
facet normal 0.0 0.0 -1.0
  outer loop
    vertex 1.5058748690437371 0.6096319903558512 -0.005000000000000554
    vertex 1.5057505120060113 0.6128029661816801 -0.005000000000000554
    vertex 1.5061338795174988 0.6124485331967262 -0.005000000000000554
  endloop
endfacet
facet normal 0.0 0.0 -1.0
  outer loop
    vertex 1.5058748690437371 0.6096319903558512 -0.005000000000000554
    vertex 1.5061338795174988 0.6124485331967262 -0.005000000000000554
    vertex 1.5062293020286908 0.6100153578673388 -0.005000000000000554
  endloop
endfacet
facet normal 0.0 0.0 -1.0
  outer loop
    vertex 1.5062293020286908 0.6100153578673388 -0.005000000000000554
    vertex 1.5061338795174988 0.6124485331967262 -0.005000000000000554
    vertex 1.5064124500910865 0.6120069544096239 -0.005000000000000554
  endloop
endfacet
facet normal 0.0 0.0 -1.0
  outer loop
    vertex 1.5062293020286908 0.6100153578673388 -0.005000000000000554
    vertex 1.5064124500910865 0.6120069544096239 -0.005000000000000554
    vertex 1.5064724351893002 0.6104773964543635 -0.005000000000000554
  endloop
endfacet
facet normal 0.0 0.0 -1.0
  outer loop
    vertex 1.5064724351893002 0.6104773964543635 -0.005000000000000554
    vertex 1.5064124500910865 0.6120069544096239 -0.005000000000000554
    vertex 1.5065672396025431 0.6115083226849709 -0.005000000000000554
  endloop
endfacet
facet normal 0.0 0.0 -1.0
  outer loop
    vertex 1.5064724351893002 0.6104773964543635 -0.005000000000000554
    vertex 1.5065672396025431 0.6115083226849709 -0.005000000000000554
    vertex 1.5065876994024656 0.6109866189507742 -0.005000000000000554
  endloop
endfacet
endsolid rod
