solid rod2~
facet normal -0.322066292008085 0.9467171190763178 -0.0
  outer loop
    vertex 2.9366089654959815 1.1524352179762405 0.04199999999999999
    vertex 2.9371032510186317 1.1526033703231933 -0.008
    vertex 2.9366089654959815 1.1524352179762405 -0.008
  endloop
endfacet
facet normal -0.322066292008085 0.9467171190763178 -0.0
  outer loop
    vertex 2.9371032510186317 1.1526033703231933 -0.008
    vertex 2.9366089654959815 1.1524352179762405 0.04199999999999999
    vertex 2.9371032510186317 1.1526033703231933 0.04199999999999999
  endloop
endfacet
facet normal -0.06606372848599466 0.9978154056630558 -0.0
  outer loop
    vertex 2.9371032510186317 1.1526033703231933 0.04199999999999999
    vertex 2.93762421520039 1.1526378625108857 -0.008
    vertex 2.9371032510186317 1.1526033703231933 -0.008
  endloop
endfacet
facet normal -0.06606372848599466 0.9978154056630558 -0.0
  outer loop
    vertex 2.93762421520039 1.1526378625108857 -0.008
    vertex 2.9371032510186317 1.1526033703231933 0.04199999999999999
    vertex 2.93762421520039 1.1526378625108857 0.04199999999999999
  endloop
endfacet
facet normal 0.19444096895550922 0.9809142213219476 0.0
  outer loop
    vertex 2.93762421520039 1.1526378625108857 0.04199999999999999
    vertex 2.9381363551932043 1.1525363439537284 -0.008
    vertex 2.93762421520039 1.1526378625108857 -0.008
  endloop
endfacet
facet normal 0.19444096895550922 0.9809142213219476 0.0
  outer loop
    vertex 2.9381363551932043 1.1525363439537284 -0.008
    vertex 2.93762421520039 1.1526378625108857 0.04199999999999999
    vertex 2.9381363551932043 1.1525363439537284 0.04199999999999999
  endloop
endfacet
facet normal 0.44169483569297174 0.8971653538351549 0.0
  outer loop
    vertex 2.9381363551932043 1.1525363439537284 0.04199999999999999
    vertex 2.938604769502917 1.1523057329736228 -0.008
    vertex 2.9381363551932043 1.1525363439537284 -0.008
  endloop
endfacet
facet normal 0.44169483569297174 0.8971653538351549 0.0
  outer loop
    vertex 2.938604769502917 1.1523057329736228 -0.008
    vertex 2.9381363551932043 1.1525363439537284 0.04199999999999999
    vertex 2.938604769502917 1.1523057329736228 0.04199999999999999
  endloop
endfacet
facet normal 0.6588479293144553 0.7522761501191266 0.0
  outer loop
    vertex 2.938604769502917 1.1523057329736228 0.04199999999999999
    vertex 2.9389975364684084 1.1519617453277617 -0.008
    vertex 2.938604769502917 1.1523057329736228 -0.008
  endloop
endfacet
facet normal 0.6588479293144553 0.7522761501191266 0.0
  outer loop
    vertex 2.9389975364684084 1.1519617453277617 -0.008
    vertex 2.938604769502917 1.1523057329736228 0.04199999999999999
    vertex 2.9389975364684084 1.1519617453277617 0.04199999999999999
  endloop
endfacet
facet normal 0.8311016253482718 0.556120569969733 0.0
  outer loop
    vertex 2.9389975364684084 1.1519617453277617 -0.008
    vertex 2.939287889670062 1.1515278232057429 0.04199999999999999
    vertex 2.939287889670062 1.1515278232057429 -0.008
  endloop
endfacet
facet normal 0.8311016253482718 0.556120569969733 0.0
  outer loop
    vertex 2.939287889670062 1.1515278232057429 0.04199999999999999
    vertex 2.9389975364684084 1.1519617453277617 -0.008
    vertex 2.9389975364684084 1.1519617453277617 0.04199999999999999
  endloop
endfacet
facet normal 0.9467171190768062 0.3220662920066496 0.0
  outer loop
    vertex 2.939287889670062 1.1515278232057429 -0.008
    vertex 2.9394560420170146 1.151033537683092 0.04199999999999999
    vertex 2.9394560420170146 1.151033537683092 -0.008
  endloop
endfacet
facet normal 0.9467171190768062 0.3220662920066496 0.0
  outer loop
    vertex 2.9394560420170146 1.151033537683092 0.04199999999999999
    vertex 2.939287889670062 1.1515278232057429 -0.008
    vertex 2.939287889670062 1.1515278232057429 0.04199999999999999
  endloop
endfacet
facet normal 0.9978154056630054 0.0660637284867564 0.0
  outer loop
    vertex 2.9394560420170146 1.151033537683092 -0.008
    vertex 2.9394905342047073 1.1505125735013337 0.04199999999999999
    vertex 2.9394905342047073 1.1505125735013337 -0.008
  endloop
endfacet
facet normal 0.9978154056630054 0.0660637284867564 0.0
  outer loop
    vertex 2.9394905342047073 1.1505125735013337 0.04199999999999999
    vertex 2.9394560420170146 1.151033537683092 -0.008
    vertex 2.9394560420170146 1.151033537683092 0.04199999999999999
  endloop
endfacet
facet normal 0.9809142213218713 -0.19444096895589405 0.0
  outer loop
    vertex 2.9394905342047073 1.1505125735013337 -0.008
    vertex 2.9393890156475497 1.1500004335085194 0.04199999999999999
    vertex 2.9393890156475497 1.1500004335085194 -0.008
  endloop
endfacet
facet normal 0.9809142213218713 -0.19444096895589405 0.0
  outer loop
    vertex 2.9393890156475497 1.1500004335085194 0.04199999999999999
    vertex 2.9394905342047073 1.1505125735013337 -0.008
    vertex 2.9394905342047073 1.1505125735013337 0.04199999999999999
  endloop
endfacet
facet normal 0.897165353834382 -0.4416948356945419 0.0
  outer loop
    vertex 2.9393890156475497 1.1500004335085194 -0.008
    vertex 2.939158404667444 1.149532019198808 0.04199999999999999
    vertex 2.939158404667444 1.149532019198808 -0.008
  endloop
endfacet
facet normal 0.897165353834382 -0.4416948356945419 0.0
  outer loop
    vertex 2.939158404667444 1.149532019198808 0.04199999999999999
    vertex 2.9393890156475497 1.1500004335085194 -0.008
    vertex 2.9393890156475497 1.1500004335085194 0.04199999999999999
  endloop
endfacet
facet normal 0.7522761501202755 -0.6588479293131435 0.0
  outer loop
    vertex 2.939158404667444 1.149532019198808 -0.008
    vertex 2.938814417021583 1.1491392522333157 0.04199999999999999
    vertex 2.938814417021583 1.1491392522333157 -0.008
  endloop
endfacet
facet normal 0.7522761501202755 -0.6588479293131435 0.0
  outer loop
    vertex 2.938814417021583 1.1491392522333157 0.04199999999999999
    vertex 2.939158404667444 1.149532019198808 -0.008
    vertex 2.939158404667444 1.149532019198808 0.04199999999999999
  endloop
endfacet
facet normal 0.5561205699701014 -0.8311016253480255 0.0
  outer loop
    vertex 2.938814417021583 1.1491392522333157 0.04199999999999999
    vertex 2.9383804948995644 1.148848899031662 -0.008
    vertex 2.938814417021583 1.1491392522333157 -0.008
  endloop
endfacet
facet normal 0.5561205699701014 -0.8311016253480255 0.0
  outer loop
    vertex 2.9383804948995644 1.148848899031662 -0.008
    vertex 2.938814417021583 1.1491392522333157 0.04199999999999999
    vertex 2.9383804948995644 1.148848899031662 0.04199999999999999
  endloop
endfacet
facet normal 0.3220662920070661 -0.9467171190766644 0.0
  outer loop
    vertex 2.9383804948995644 1.148848899031662 0.04199999999999999
    vertex 2.937886209376914 1.1486807466847095 -0.008
    vertex 2.9383804948995644 1.148848899031662 -0.008
  endloop
endfacet
facet normal 0.3220662920070661 -0.9467171190766644 0.0
  outer loop
    vertex 2.937886209376914 1.1486807466847095 -0.008
    vertex 2.9383804948995644 1.148848899031662 0.04199999999999999
    vertex 2.937886209376914 1.1486807466847095 0.04199999999999999
  endloop
endfacet
facet normal 0.0660637284872893 -0.9978154056629702 0.0
  outer loop
    vertex 2.937886209376914 1.1486807466847095 0.04199999999999999
    vertex 2.937365245195155 1.1486462544970164 -0.008
    vertex 2.937886209376914 1.1486807466847095 -0.008
  endloop
endfacet
facet normal 0.0660637284872893 -0.9978154056629702 0.0
  outer loop
    vertex 2.937365245195155 1.1486462544970164 -0.008
    vertex 2.937886209376914 1.1486807466847095 0.04199999999999999
    vertex 2.937365245195155 1.1486462544970164 0.04199999999999999
  endloop
endfacet
facet normal -0.1944409689565838 -0.9809142213217346 0.0
  outer loop
    vertex 2.937365245195155 1.1486462544970164 0.04199999999999999
    vertex 2.9368531052023417 1.1487477730541742 -0.008
    vertex 2.937365245195155 1.1486462544970164 -0.008
  endloop
endfacet
facet normal -0.1944409689565838 -0.9809142213217346 0.0
  outer loop
    vertex 2.9368531052023417 1.1487477730541742 -0.008
    vertex 2.937365245195155 1.1486462544970164 0.04199999999999999
    vertex 2.9368531052023417 1.1487477730541742 0.04199999999999999
  endloop
endfacet
facet normal -0.44169483569279544 -0.8971653538352418 0.0
  outer loop
    vertex 2.9368531052023417 1.1487477730541742 0.04199999999999999
    vertex 2.9363846908926297 1.1489783840342793 -0.008
    vertex 2.9368531052023417 1.1487477730541742 -0.008
  endloop
endfacet
facet normal -0.44169483569279544 -0.8971653538352418 0.0
  outer loop
    vertex 2.9363846908926297 1.1489783840342793 -0.008
    vertex 2.9368531052023417 1.1487477730541742 0.04199999999999999
    vertex 2.9363846908926297 1.1489783840342793 0.04199999999999999
  endloop
endfacet
facet normal -0.6588479293138283 -0.7522761501196755 0.0
  outer loop
    vertex 2.9363846908926297 1.1489783840342793 0.04199999999999999
    vertex 2.935991923927137 1.1493223716801408 -0.008
    vertex 2.9363846908926297 1.1489783840342793 -0.008
  endloop
endfacet
facet normal -0.6588479293138283 -0.7522761501196755 0.0
  outer loop
    vertex 2.935991923927137 1.1493223716801408 -0.008
    vertex 2.9363846908926297 1.1489783840342793 0.04199999999999999
    vertex 2.935991923927137 1.1493223716801408 0.04199999999999999
  endloop
endfacet
facet normal -0.8311016253480805 -0.5561205699700191 0.0
  outer loop
    vertex 2.935701570725483 1.1497562938021595 0.04199999999999999
    vertex 2.935991923927137 1.1493223716801408 -0.008
    vertex 2.935991923927137 1.1493223716801408 0.04199999999999999
  endloop
endfacet
facet normal -0.8311016253480805 -0.5561205699700191 0.0
  outer loop
    vertex 2.935991923927137 1.1493223716801408 -0.008
    vertex 2.935701570725483 1.1497562938021595 0.04199999999999999
    vertex 2.935701570725483 1.1497562938021595 -0.008
  endloop
endfacet
facet normal -0.9467171190759738 -0.3220662920090962 0.0
  outer loop
    vertex 2.9355334183785295 1.1502505793248097 0.04199999999999999
    vertex 2.935701570725483 1.1497562938021595 -0.008
    vertex 2.935701570725483 1.1497562938021595 0.04199999999999999
  endloop
endfacet
facet normal -0.9467171190759738 -0.3220662920090962 0.0
  outer loop
    vertex 2.935701570725483 1.1497562938021595 -0.008
    vertex 2.9355334183785295 1.1502505793248097 0.04199999999999999
    vertex 2.9355334183785295 1.1502505793248097 -0.008
  endloop
endfacet
facet normal -0.9978154056632653 -0.06606372848283337 0.0
  outer loop
    vertex 2.9354989261908386 1.1507715435065684 0.04199999999999999
    vertex 2.9355334183785295 1.1502505793248097 -0.008
    vertex 2.9355334183785295 1.1502505793248097 0.04199999999999999
  endloop
endfacet
facet normal -0.9978154056632653 -0.06606372848283337 0.0
  outer loop
    vertex 2.9355334183785295 1.1502505793248097 -0.008
    vertex 2.9354989261908386 1.1507715435065684 0.04199999999999999
    vertex 2.9354989261908386 1.1507715435065684 -0.008
  endloop
endfacet
facet normal -0.9809142213222984 0.19444096895373894 0.0
  outer loop
    vertex 2.9356004447479953 1.1512836834993831 0.04199999999999999
    vertex 2.9354989261908386 1.1507715435065684 -0.008
    vertex 2.9354989261908386 1.1507715435065684 0.04199999999999999
  endloop
endfacet
facet normal -0.9809142213222984 0.19444096895373894 0.0
  outer loop
    vertex 2.9354989261908386 1.1507715435065684 -0.008
    vertex 2.9356004447479953 1.1512836834993831 0.04199999999999999
    vertex 2.9356004447479953 1.1512836834993831 -0.008
  endloop
endfacet
facet normal -0.8971653538347664 0.44169483569376117 0.0
  outer loop
    vertex 2.9358310557281007 1.1517520978090943 0.04199999999999999
    vertex 2.9356004447479953 1.1512836834993831 -0.008
    vertex 2.9356004447479953 1.1512836834993831 0.04199999999999999
  endloop
endfacet
facet normal -0.8971653538347664 0.44169483569376117 0.0
  outer loop
    vertex 2.9356004447479953 1.1512836834993831 -0.008
    vertex 2.9358310557281007 1.1517520978090943 0.04199999999999999
    vertex 2.9358310557281007 1.1517520978090943 -0.008
  endloop
endfacet
facet normal -0.7522761501194745 0.658847929314058 0.0
  outer loop
    vertex 2.9361750433739626 1.1521448647745867 0.04199999999999999
    vertex 2.9358310557281007 1.1517520978090943 -0.008
    vertex 2.9358310557281007 1.1517520978090943 0.04199999999999999
  endloop
endfacet
facet normal -0.7522761501194745 0.658847929314058 0.0
  outer loop
    vertex 2.9358310557281007 1.1517520978090943 -0.008
    vertex 2.9361750433739626 1.1521448647745867 0.04199999999999999
    vertex 2.9361750433739626 1.1521448647745867 -0.008
  endloop
endfacet
facet normal -0.5561205699694778 0.8311016253484427 -0.0
  outer loop
    vertex 2.9361750433739626 1.1521448647745867 0.04199999999999999
    vertex 2.9366089654959815 1.1524352179762405 -0.008
    vertex 2.9361750433739626 1.1521448647745867 -0.008
  endloop
endfacet
facet normal -0.5561205699694778 0.8311016253484427 -0.0
  outer loop
    vertex 2.9366089654959815 1.1524352179762405 -0.008
    vertex 2.9361750433739626 1.1521448647745867 0.04199999999999999
    vertex 2.9366089654959815 1.1524352179762405 0.04199999999999999
  endloop
endfacet
facet normal 0.0 0.0 1.0
  outer loop
    vertex 2.9355334183785295 1.1502505793248097 0.04199999999999999
    vertex 2.9356004447479953 1.1512836834993831 0.04199999999999999
    vertex 2.9354989261908386 1.1507715435065684 0.04199999999999999
  endloop
endfacet
facet normal 0.0 0.0 1.0
  outer loop
    vertex 2.9356004447479953 1.1512836834993831 0.04199999999999999
    vertex 2.9355334183785295 1.1502505793248097 0.04199999999999999
    vertex 2.935701570725483 1.1497562938021595 0.04199999999999999
  endloop
endfacet
facet normal 0.0 0.0 1.0
  outer loop
    vertex 2.9356004447479953 1.1512836834993831 0.04199999999999999
    vertex 2.935701570725483 1.1497562938021595 0.04199999999999999
    vertex 2.9358310557281007 1.1517520978090943 0.04199999999999999
  endloop
endfacet
facet normal 0.0 0.0 1.0
  outer loop
    vertex 2.9358310557281007 1.1517520978090943 0.04199999999999999
    vertex 2.935701570725483 1.1497562938021595 0.04199999999999999
    vertex 2.935991923927137 1.1493223716801408 0.04199999999999999
  endloop
endfacet
facet normal 0.0 0.0 1.0
  outer loop
    vertex 2.9358310557281007 1.1517520978090943 0.04199999999999999
    vertex 2.935991923927137 1.1493223716801408 0.04199999999999999
    vertex 2.9361750433739626 1.1521448647745867 0.04199999999999999
  endloop
endfacet
facet normal 0.0 0.0 1.0
  outer loop
    vertex 2.9361750433739626 1.1521448647745867 0.04199999999999999
    vertex 2.935991923927137 1.1493223716801408 0.04199999999999999
    vertex 2.9363846908926297 1.1489783840342793 0.04199999999999999
  endloop
endfacet
facet normal 0.0 0.0 1.0
  outer loop
    vertex 2.9361750433739626 1.1521448647745867 0.04199999999999999
    vertex 2.9363846908926297 1.1489783840342793 0.04199999999999999
    vertex 2.9366089654959815 1.1524352179762405 0.04199999999999999
  endloop
endfacet
facet normal 0.0 0.0 1.0
  outer loop
    vertex 2.9366089654959815 1.1524352179762405 0.04199999999999999
    vertex 2.9363846908926297 1.1489783840342793 0.04199999999999999
    vertex 2.9368531052023417 1.1487477730541742 0.04199999999999999
  endloop
endfacet
facet normal 0.0 0.0 1.0
  outer loop
    vertex 2.9366089654959815 1.1524352179762405 0.04199999999999999
    vertex 2.9368531052023417 1.1487477730541742 0.04199999999999999
    vertex 2.9371032510186317 1.1526033703231933 0.04199999999999999
  endloop
endfacet
facet normal 0.0 0.0 1.0
  outer loop
    vertex 2.9371032510186317 1.1526033703231933 0.04199999999999999
    vertex 2.9368531052023417 1.1487477730541742 0.04199999999999999
    vertex 2.937365245195155 1.1486462544970164 0.04199999999999999
  endloop
endfacet
facet normal 0.0 0.0 1.0
  outer loop
    vertex 2.9371032510186317 1.1526033703231933 0.04199999999999999
    vertex 2.937365245195155 1.1486462544970164 0.04199999999999999
    vertex 2.93762421520039 1.1526378625108857 0.04199999999999999
  endloop
endfacet
facet normal 0.0 0.0 1.0
  outer loop
    vertex 2.93762421520039 1.1526378625108857 0.04199999999999999
    vertex 2.937365245195155 1.1486462544970164 0.04199999999999999
    vertex 2.937886209376914 1.1486807466847095 0.04199999999999999
  endloop
endfacet
facet normal 0.0 0.0 1.0
  outer loop
    vertex 2.93762421520039 1.1526378625108857 0.04199999999999999
    vertex 2.937886209376914 1.1486807466847095 0.04199999999999999
    vertex 2.9381363551932043 1.1525363439537284 0.04199999999999999
  endloop
endfacet
facet normal 0.0 0.0 1.0
  outer loop
    vertex 2.9381363551932043 1.1525363439537284 0.04199999999999999
    vertex 2.937886209376914 1.1486807466847095 0.04199999999999999
    vertex 2.9383804948995644 1.148848899031662 0.04199999999999999
  endloop
endfacet
facet normal 0.0 0.0 1.0
  outer loop
    vertex 2.9381363551932043 1.1525363439537284 0.04199999999999999
    vertex 2.9383804948995644 1.148848899031662 0.04199999999999999
    vertex 2.938604769502917 1.1523057329736228 0.04199999999999999
  endloop
endfacet
facet normal 0.0 0.0 1.0
  outer loop
    vertex 2.938604769502917 1.1523057329736228 0.04199999999999999
    vertex 2.9383804948995644 1.148848899031662 0.04199999999999999
    vertex 2.938814417021583 1.1491392522333157 0.04199999999999999
  endloop
endfacet
facet normal 0.0 0.0 1.0
  outer loop
    vertex 2.938604769502917 1.1523057329736228 0.04199999999999999
    vertex 2.938814417021583 1.1491392522333157 0.04199999999999999
    vertex 2.9389975364684084 1.1519617453277617 0.04199999999999999
  endloop
endfacet
facet normal 0.0 0.0 1.0
  outer loop
    vertex 2.9389975364684084 1.1519617453277617 0.04199999999999999
    vertex 2.938814417021583 1.1491392522333157 0.04199999999999999
    vertex 2.939158404667444 1.149532019198808 0.04199999999999999
  endloop
endfacet
facet normal 0.0 0.0 1.0
  outer loop
    vertex 2.9389975364684084 1.1519617453277617 0.04199999999999999
    vertex 2.939158404667444 1.149532019198808 0.04199999999999999
    vertex 2.939287889670062 1.1515278232057429 0.04199999999999999
  endloop
endfacet
facet normal 0.0 0.0 1.0
  outer loop
    vertex 2.939287889670062 1.1515278232057429 0.04199999999999999
    vertex 2.939158404667444 1.149532019198808 0.04199999999999999
    vertex 2.9393890156475497 1.1500004335085194 0.04199999999999999
  endloop
endfacet
facet normal 0.0 0.0 1.0
  outer loop
    vertex 2.939287889670062 1.1515278232057429 0.04199999999999999
    vertex 2.9393890156475497 1.1500004335085194 0.04199999999999999
    vertex 2.9394560420170146 1.151033537683092 0.04199999999999999
  endloop
endfacet
facet normal 0.0 0.0 1.0
  outer loop
    vertex 2.9394560420170146 1.151033537683092 0.04199999999999999
    vertex 2.9393890156475497 1.1500004335085194 0.04199999999999999
    vertex 2.9394905342047073 1.1505125735013337 0.04199999999999999
  endloop
endfacet
facet normal 0.0 0.0 1.0
  outer loop
    vertex 2.935185911906112 1.1473756601669303 -0.008
    vertex 2.9355334183785295 1.1502505793248097 -0.008
    vertex 2.9354989261908386 1.1507715435065684 -0.008
  endloop
endfacet
facet normal 0.0 0.0 1.0
  outer loop
    vertex 2.9355334183785295 1.1502505793248097 -0.008
    vertex 2.935185911906112 1.1473756601669303 -0.008
    vertex 2.936109989080161 1.146889393845712 -0.008
  endloop
endfacet
facet normal 0.0 0.0 1.0
  outer loop
    vertex 2.9355334183785295 1.1502505793248097 -0.008
    vertex 2.936109989080161 1.146889393845712 -0.008
    vertex 2.935701570725483 1.1497562938021595 -0.008
  endloop
endfacet
facet normal 0.0 0.0 1.0
  outer loop
    vertex 2.935701570725483 1.1497562938021595 -0.008
    vertex 2.936109989080161 1.146889393845712 -0.008
    vertex 2.935991923927137 1.1493223716801408 -0.008
  endloop
endfacet
facet normal 0.0 0.0 1.0
  outer loop
    vertex 2.935991923927137 1.1493223716801408 -0.008
    vertex 2.936109989080161 1.146889393845712 -0.008
    vertex 2.9363846908926297 1.1489783840342793 -0.008
  endloop
endfacet
facet normal 0.0 0.0 1.0
  outer loop
    vertex 2.9363846908926297 1.1489783840342793 -0.008
    vertex 2.936109989080161 1.146889393845712 -0.008
    vertex 2.9371284340729824 1.146658865419381 -0.008
  endloop
endfacet
facet normal 0.0 0.0 1.0
  outer loop
    vertex 2.9363846908926297 1.1489783840342793 -0.008
    vertex 2.9371284340729824 1.146658865419381 -0.008
    vertex 2.9368531052023417 1.1487477730541742 -0.008
  endloop
endfacet
facet normal 0.0 0.0 1.0
  outer loop
    vertex 2.9368531052023417 1.1487477730541742 -0.008
    vertex 2.9371284340729824 1.146658865419381 -0.008
    vertex 2.937365245195155 1.1486462544970164 -0.008
  endloop
endfacet
facet normal 0.0 0.0 1.0
  outer loop
    vertex 2.937365245195155 1.1486462544970164 -0.008
    vertex 2.9371284340729824 1.146658865419381 -0.008
    vertex 2.9381718415413753 1.146699785019226 -0.008
  endloop
endfacet
facet normal 0.0 0.0 1.0
  outer loop
    vertex 2.937365245195155 1.1486462544970164 -0.008
    vertex 2.9381718415413753 1.146699785019226 -0.008
    vertex 2.937886209376914 1.1486807466847095 -0.008
  endloop
endfacet
facet normal 0.0 0.0 1.0
  outer loop
    vertex 2.937886209376914 1.1486807466847095 -0.008
    vertex 2.9381718415413753 1.146699785019226 -0.008
    vertex 2.9383804948995644 1.148848899031662 -0.008
  endloop
endfacet
facet normal 0.0 0.0 1.0
  outer loop
    vertex 2.9383804948995644 1.148848899031662 -0.008
    vertex 2.9381718415413753 1.146699785019226 -0.008
    vertex 2.9391691049906816 1.1470093640421397 -0.008
  endloop
endfacet
facet normal 0.0 0.0 1.0
  outer loop
    vertex 2.9383804948995644 1.148848899031662 -0.008
    vertex 2.9391691049906816 1.1470093640421397 -0.008
    vertex 2.938814417021583 1.1491392522333157 -0.008
  endloop
endfacet
facet normal 0.0 0.0 1.0
  outer loop
    vertex 2.938814417021583 1.1491392522333157 -0.008
    vertex 2.9391691049906816 1.1470093640421397 -0.008
    vertex 2.939158404667444 1.149532019198808 -0.008
  endloop
endfacet
facet normal 0.0 0.0 1.0
  outer loop
    vertex 2.939158404667444 1.149532019198808 -0.008
    vertex 2.9391691049906816 1.1470093640421397 -0.008
    vertex 2.9393890156475497 1.1500004335085194 -0.008
  endloop
endfacet
facet normal 0.0 0.0 1.0
  outer loop
    vertex 2.9393890156475497 1.1500004335085194 -0.008
    vertex 2.9391691049906816 1.1470093640421397 -0.008
    vertex 2.940052262564886 1.1475665051893145 -0.008
  endloop
endfacet
facet normal 0.0 0.0 1.0
  outer loop
    vertex 2.9393890156475497 1.1500004335085194 -0.008
    vertex 2.940052262564886 1.1475665051893145 -0.008
    vertex 2.9394905342047073 1.1505125735013337 -0.008
  endloop
endfacet
facet normal 0.0 0.0 1.0
  outer loop
    vertex 2.9394905342047073 1.1505125735013337 -0.008
    vertex 2.940052262564886 1.1475665051893145 -0.008
    vertex 2.9398035484894343 1.1539084568409714 -0.008
  endloop
endfacet
facet normal 0.0 0.0 1.0
  outer loop
    vertex 2.9398035484894343 1.1539084568409714 -0.008
    vertex 2.940052262564886 1.1475665051893145 -0.008
    vertex 2.9405702835124092 1.1531995908710635 -0.008
  endloop
endfacet
facet normal 0.0 0.0 1.0
  outer loop
    vertex 2.9405702835124092 1.1531995908710635 -0.008
    vertex 2.940052262564886 1.1475665051893145 -0.008
    vertex 2.940761128534793 1.1483332402122894 -0.008
  endloop
endfacet
facet normal 0.0 0.0 1.0
  outer loop
    vertex 2.9405702835124092 1.1531995908710635 -0.008
    vertex 2.940761128534793 1.1483332402122894 -0.008
    vertex 2.941127424659584 1.1523164332968592 -0.008
  endloop
endfacet
facet normal 0.0 0.0 1.0
  outer loop
    vertex 2.941127424659584 1.1523164332968592 -0.008
    vertex 2.940761128534793 1.1483332402122894 -0.008
    vertex 2.9412473948560116 1.1492573173863385 -0.008
  endloop
endfacet
facet normal 0.0 0.0 1.0
  outer loop
    vertex 2.941127424659584 1.1523164332968592 -0.008
    vertex 2.9412473948560116 1.1492573173863385 -0.008
    vertex 2.9414370036824975 1.1513191698475533 -0.008
  endloop
endfacet
facet normal 0.0 0.0 1.0
  outer loop
    vertex 2.9414370036824975 1.1513191698475533 -0.008
    vertex 2.9412473948560116 1.1492573173863385 -0.008
    vertex 2.9414779232823425 1.1502757623791602 -0.008
  endloop
endfacet
facet normal 0.0 0.0 1.0
  outer loop
    vertex 2.933552456713048 1.1499649471603484 -0.008
    vertex 2.933742065539534 1.1520267996215627 -0.008
    vertex 2.9335115371132034 1.1510083546287413 -0.008
  endloop
endfacet
facet normal 0.0 0.0 1.0
  outer loop
    vertex 2.933742065539534 1.1520267996215627 -0.008
    vertex 2.933552456713048 1.1499649471603484 -0.008
    vertex 2.933862035735962 1.1489676837110423 -0.008
  endloop
endfacet
facet normal 0.0 0.0 1.0
  outer loop
    vertex 2.933742065539534 1.1520267996215627 -0.008
    vertex 2.933862035735962 1.1489676837110423 -0.008
    vertex 2.9342283318607523 1.1529508767956118 -0.008
  endloop
endfacet
facet normal 0.0 0.0 1.0
  outer loop
    vertex 2.9342283318607523 1.1529508767956118 -0.008
    vertex 2.933862035735962 1.1489676837110423 -0.008
    vertex 2.9344191768831367 1.148084526136838 -0.008
  endloop
endfacet
facet normal 0.0 0.0 1.0
  outer loop
    vertex 2.9342283318607523 1.1529508767956118 -0.008
    vertex 2.9344191768831367 1.148084526136838 -0.008
    vertex 2.93493719783066 1.153717611818587 -0.008
  endloop
endfacet
facet normal 0.0 0.0 1.0
  outer loop
    vertex 2.93493719783066 1.153717611818587 -0.008
    vertex 2.9344191768831367 1.148084526136838 -0.008
    vertex 2.935185911906112 1.1473756601669303 -0.008
  endloop
endfacet
facet normal 0.0 0.0 1.0
  outer loop
    vertex 2.93493719783066 1.153717611818587 -0.008
    vertex 2.935185911906112 1.1473756601669303 -0.008
    vertex 2.9358203554048647 1.1542747529657618 -0.008
  endloop
endfacet
facet normal 0.0 0.0 1.0
  outer loop
    vertex 2.9358203554048647 1.1542747529657618 -0.008
    vertex 2.935185911906112 1.1473756601669303 -0.008
    vertex 2.9354989261908386 1.1507715435065684 -0.008
  endloop
endfacet
facet normal 0.0 0.0 1.0
  outer loop
    vertex 2.9358203554048647 1.1542747529657618 -0.008
    vertex 2.9354989261908386 1.1507715435065684 -0.008
    vertex 2.9356004447479953 1.1512836834993831 -0.008
  endloop
endfacet
facet normal 0.0 0.0 1.0
  outer loop
    vertex 2.9358203554048647 1.1542747529657618 -0.008
    vertex 2.9356004447479953 1.1512836834993831 -0.008
    vertex 2.9358310557281007 1.1517520978090943 -0.008
  endloop
endfacet
facet normal 0.0 0.0 1.0
  outer loop
    vertex 2.9358203554048647 1.1542747529657618 -0.008
    vertex 2.9358310557281007 1.1517520978090943 -0.008
    vertex 2.93681761885417 1.1545843319886757 -0.008
  endloop
endfacet
facet normal 0.0 0.0 1.0
  outer loop
    vertex 2.93681761885417 1.1545843319886757 -0.008
    vertex 2.9358310557281007 1.1517520978090943 -0.008
    vertex 2.9361750433739626 1.1521448647745867 -0.008
  endloop
endfacet
facet normal 0.0 0.0 1.0
  outer loop
    vertex 2.93681761885417 1.1545843319886757 -0.008
    vertex 2.9361750433739626 1.1521448647745867 -0.008
    vertex 2.9366089654959815 1.1524352179762405 -0.008
  endloop
endfacet
facet normal 0.0 0.0 1.0
  outer loop
    vertex 2.93681761885417 1.1545843319886757 -0.008
    vertex 2.9366089654959815 1.1524352179762405 -0.008
    vertex 2.9371032510186317 1.1526033703231933 -0.008
  endloop
endfacet
facet normal 0.0 0.0 1.0
  outer loop
    vertex 2.93681761885417 1.1545843319886757 -0.008
    vertex 2.9371032510186317 1.1526033703231933 -0.008
    vertex 2.937861026322563 1.1546252515885203 -0.008
  endloop
endfacet
facet normal 0.0 0.0 1.0
  outer loop
    vertex 2.937861026322563 1.1546252515885203 -0.008
    vertex 2.9371032510186317 1.1526033703231933 -0.008
    vertex 2.93762421520039 1.1526378625108857 -0.008
  endloop
endfacet
facet normal 0.0 0.0 1.0
  outer loop
    vertex 2.937861026322563 1.1546252515885203 -0.008
    vertex 2.93762421520039 1.1526378625108857 -0.008
    vertex 2.9381363551932043 1.1525363439537284 -0.008
  endloop
endfacet
facet normal 0.0 0.0 1.0
  outer loop
    vertex 2.937861026322563 1.1546252515885203 -0.008
    vertex 2.9381363551932043 1.1525363439537284 -0.008
    vertex 2.938879471315385 1.1543947231621896 -0.008
  endloop
endfacet
facet normal 0.0 0.0 1.0
  outer loop
    vertex 2.938879471315385 1.1543947231621896 -0.008
    vertex 2.9381363551932043 1.1525363439537284 -0.008
    vertex 2.938604769502917 1.1523057329736228 -0.008
  endloop
endfacet
facet normal 0.0 0.0 1.0
  outer loop
    vertex 2.938879471315385 1.1543947231621896 -0.008
    vertex 2.938604769502917 1.1523057329736228 -0.008
    vertex 2.9389975364684084 1.1519617453277617 -0.008
  endloop
endfacet
facet normal 0.0 0.0 1.0
  outer loop
    vertex 2.938879471315385 1.1543947231621896 -0.008
    vertex 2.9389975364684084 1.1519617453277617 -0.008
    vertex 2.9398035484894343 1.1539084568409714 -0.008
  endloop
endfacet
facet normal 0.0 0.0 1.0
  outer loop
    vertex 2.9398035484894343 1.1539084568409714 -0.008
    vertex 2.9389975364684084 1.1519617453277617 -0.008
    vertex 2.939287889670062 1.1515278232057429 -0.008
  endloop
endfacet
facet normal 0.0 0.0 1.0
  outer loop
    vertex 2.9398035484894343 1.1539084568409714 -0.008
    vertex 2.939287889670062 1.1515278232057429 -0.008
    vertex 2.9394560420170146 1.151033537683092 -0.008
  endloop
endfacet
facet normal 0.0 0.0 1.0
  outer loop
    vertex 2.9398035484894343 1.1539084568409714 -0.008
    vertex 2.9394560420170146 1.151033537683092 -0.008
    vertex 2.9394905342047073 1.1505125735013337 -0.008
  endloop
endfacet
facet normal 0.0 0.0 -1.0
  outer loop
    vertex 2.933742065539534 1.1520267996215627 -0.01
    vertex 2.933552456713048 1.1499649471603484 -0.01
    vertex 2.9335115371132034 1.1510083546287413 -0.01
  endloop
endfacet
facet normal 0.0 0.0 -1.0
  outer loop
    vertex 2.933552456713048 1.1499649471603484 -0.01
    vertex 2.933742065539534 1.1520267996215627 -0.01
    vertex 2.933862035735962 1.1489676837110423 -0.01
  endloop
endfacet
facet normal 0.0 0.0 -1.0
  outer loop
    vertex 2.933862035735962 1.1489676837110423 -0.01
    vertex 2.933742065539534 1.1520267996215627 -0.01
    vertex 2.9342283318607523 1.1529508767956118 -0.01
  endloop
endfacet
facet normal 0.0 0.0 -1.0
  outer loop
    vertex 2.933862035735962 1.1489676837110423 -0.01
    vertex 2.9342283318607523 1.1529508767956118 -0.01
    vertex 2.9344191768831367 1.148084526136838 -0.01
  endloop
endfacet
facet normal 0.0 0.0 -1.0
  outer loop
    vertex 2.9344191768831367 1.148084526136838 -0.01
    vertex 2.9342283318607523 1.1529508767956118 -0.01
    vertex 2.93493719783066 1.153717611818587 -0.01
  endloop
endfacet
facet normal 0.0 0.0 -1.0
  outer loop
    vertex 2.9344191768831367 1.148084526136838 -0.01
    vertex 2.93493719783066 1.153717611818587 -0.01
    vertex 2.935185911906112 1.1473756601669303 -0.01
  endloop
endfacet
facet normal 0.0 0.0 -1.0
  outer loop
    vertex 2.935185911906112 1.1473756601669303 -0.01
    vertex 2.93493719783066 1.153717611818587 -0.01
    vertex 2.9358203554048647 1.1542747529657618 -0.01
  endloop
endfacet
facet normal 0.0 0.0 -1.0
  outer loop
    vertex 2.935185911906112 1.1473756601669303 -0.01
    vertex 2.9358203554048647 1.1542747529657618 -0.01
    vertex 2.9354989261908386 1.1507715435065684 -0.01
  endloop
endfacet
facet normal 0.0 0.0 -1.0
  outer loop
    vertex 2.9354989261908386 1.1507715435065684 -0.01
    vertex 2.9358203554048647 1.1542747529657618 -0.01
    vertex 2.9356004447479953 1.1512836834993831 -0.01
  endloop
endfacet
facet normal 0.0 0.0 -1.0
  outer loop
    vertex 2.9356004447479953 1.1512836834993831 -0.01
    vertex 2.9358203554048647 1.1542747529657618 -0.01
    vertex 2.9358310557281007 1.1517520978090943 -0.01
  endloop
endfacet
facet normal 0.0 0.0 -1.0
  outer loop
    vertex 2.9358310557281007 1.1517520978090943 -0.01
    vertex 2.9358203554048647 1.1542747529657618 -0.01
    vertex 2.93681761885417 1.1545843319886757 -0.01
  endloop
endfacet
facet normal 0.0 0.0 -1.0
  outer loop
    vertex 2.9358310557281007 1.1517520978090943 -0.01
    vertex 2.93681761885417 1.1545843319886757 -0.01
    vertex 2.9361750433739626 1.1521448647745867 -0.01
  endloop
endfacet
facet normal 0.0 0.0 -1.0
  outer loop
    vertex 2.9361750433739626 1.1521448647745867 -0.01
    vertex 2.93681761885417 1.1545843319886757 -0.01
    vertex 2.9366089654959815 1.1524352179762405 -0.01
  endloop
endfacet
facet normal 0.0 0.0 -1.0
  outer loop
    vertex 2.9366089654959815 1.1524352179762405 -0.01
    vertex 2.93681761885417 1.1545843319886757 -0.01
    vertex 2.9371032510186317 1.1526033703231933 -0.01
  endloop
endfacet
facet normal 0.0 0.0 -1.0
  outer loop
    vertex 2.9371032510186317 1.1526033703231933 -0.01
    vertex 2.93681761885417 1.1545843319886757 -0.01
    vertex 2.937861026322563 1.1546252515885203 -0.01
  endloop
endfacet
facet normal 0.0 0.0 -1.0
  outer loop
    vertex 2.9371032510186317 1.1526033703231933 -0.01
    vertex 2.937861026322563 1.1546252515885203 -0.01
    vertex 2.93762421520039 1.1526378625108857 -0.01
  endloop
endfacet
facet normal 0.0 0.0 -1.0
  outer loop
    vertex 2.93762421520039 1.1526378625108857 -0.01
    vertex 2.937861026322563 1.1546252515885203 -0.01
    vertex 2.9381363551932043 1.1525363439537284 -0.01
  endloop
endfacet
facet normal 0.0 0.0 -1.0
  outer loop
    vertex 2.9381363551932043 1.1525363439537284 -0.01
    vertex 2.937861026322563 1.1546252515885203 -0.01
    vertex 2.938879471315385 1.1543947231621896 -0.01
  endloop
endfacet
facet normal 0.0 0.0 -1.0
  outer loop
    vertex 2.9381363551932043 1.1525363439537284 -0.01
    vertex 2.938879471315385 1.1543947231621896 -0.01
    vertex 2.938604769502917 1.1523057329736228 -0.01
  endloop
endfacet
facet normal 0.0 0.0 -1.0
  outer loop
    vertex 2.938604769502917 1.1523057329736228 -0.01
    vertex 2.938879471315385 1.1543947231621896 -0.01
    vertex 2.9389975364684084 1.1519617453277617 -0.01
  endloop
endfacet
facet normal 0.0 0.0 -1.0
  outer loop
    vertex 2.9389975364684084 1.1519617453277617 -0.01
    vertex 2.938879471315385 1.1543947231621896 -0.01
    vertex 2.9398035484894343 1.1539084568409714 -0.01
  endloop
endfacet
facet normal 0.0 0.0 -1.0
  outer loop
    vertex 2.9389975364684084 1.1519617453277617 -0.01
    vertex 2.9398035484894343 1.1539084568409714 -0.01
    vertex 2.939287889670062 1.1515278232057429 -0.01
  endloop
endfacet
facet normal 0.0 0.0 -1.0
  outer loop
    vertex 2.939287889670062 1.1515278232057429 -0.01
    vertex 2.9398035484894343 1.1539084568409714 -0.01
    vertex 2.9394560420170146 1.151033537683092 -0.01
  endloop
endfacet
facet normal 0.0 0.0 -1.0
  outer loop
    vertex 2.9394560420170146 1.151033537683092 -0.01
    vertex 2.9398035484894343 1.1539084568409714 -0.01
    vertex 2.9394905342047073 1.1505125735013337 -0.01
  endloop
endfacet
facet normal 0.0 0.0 -1.0
  outer loop
    vertex 2.935185911906112 1.1473756601669303 -0.01
    vertex 2.9355334183785295 1.1502505793248097 -0.01
    vertex 2.936109989080161 1.146889393845712 -0.01
  endloop
endfacet
facet normal 0.0 0.0 -1.0
  outer loop
    vertex 2.9355334183785295 1.1502505793248097 -0.01
    vertex 2.935185911906112 1.1473756601669303 -0.01
    vertex 2.9354989261908386 1.1507715435065684 -0.01
  endloop
endfacet
facet normal 0.0 0.0 -1.0
  outer loop
    vertex 2.936109989080161 1.146889393845712 -0.01
    vertex 2.9355334183785295 1.1502505793248097 -0.01
    vertex 2.935701570725483 1.1497562938021595 -0.01
  endloop
endfacet
facet normal 0.0 0.0 -1.0
  outer loop
    vertex 2.936109989080161 1.146889393845712 -0.01
    vertex 2.935701570725483 1.1497562938021595 -0.01
    vertex 2.935991923927137 1.1493223716801408 -0.01
  endloop
endfacet
facet normal 0.0 0.0 -1.0
  outer loop
    vertex 2.936109989080161 1.146889393845712 -0.01
    vertex 2.935991923927137 1.1493223716801408 -0.01
    vertex 2.9363846908926297 1.1489783840342793 -0.01
  endloop
endfacet
facet normal 0.0 0.0 -1.0
  outer loop
    vertex 2.936109989080161 1.146889393845712 -0.01
    vertex 2.9363846908926297 1.1489783840342793 -0.01
    vertex 2.9371284340729824 1.146658865419381 -0.01
  endloop
endfacet
facet normal 0.0 0.0 -1.0
  outer loop
    vertex 2.9371284340729824 1.146658865419381 -0.01
    vertex 2.9363846908926297 1.1489783840342793 -0.01
    vertex 2.9368531052023417 1.1487477730541742 -0.01
  endloop
endfacet
facet normal 0.0 0.0 -1.0
  outer loop
    vertex 2.9371284340729824 1.146658865419381 -0.01
    vertex 2.9368531052023417 1.1487477730541742 -0.01
    vertex 2.937365245195155 1.1486462544970164 -0.01
  endloop
endfacet
facet normal 0.0 0.0 -1.0
  outer loop
    vertex 2.9371284340729824 1.146658865419381 -0.01
    vertex 2.937365245195155 1.1486462544970164 -0.01
    vertex 2.9381718415413753 1.146699785019226 -0.01
  endloop
endfacet
facet normal 0.0 0.0 -1.0
  outer loop
    vertex 2.9381718415413753 1.146699785019226 -0.01
    vertex 2.937365245195155 1.1486462544970164 -0.01
    vertex 2.937886209376914 1.1486807466847095 -0.01
  endloop
endfacet
facet normal 0.0 0.0 -1.0
  outer loop
    vertex 2.9381718415413753 1.146699785019226 -0.01
    vertex 2.937886209376914 1.1486807466847095 -0.01
    vertex 2.9383804948995644 1.148848899031662 -0.01
  endloop
endfacet
facet normal 0.0 0.0 -1.0
  outer loop
    vertex 2.9381718415413753 1.146699785019226 -0.01
    vertex 2.9383804948995644 1.148848899031662 -0.01
    vertex 2.9391691049906816 1.1470093640421397 -0.01
  endloop
endfacet
facet normal 0.0 0.0 -1.0
  outer loop
    vertex 2.9391691049906816 1.1470093640421397 -0.01
    vertex 2.9383804948995644 1.148848899031662 -0.01
    vertex 2.938814417021583 1.1491392522333157 -0.01
  endloop
endfacet
facet normal 0.0 0.0 -1.0
  outer loop
    vertex 2.9391691049906816 1.1470093640421397 -0.01
    vertex 2.938814417021583 1.1491392522333157 -0.01
    vertex 2.939158404667444 1.149532019198808 -0.01
  endloop
endfacet
facet normal 0.0 0.0 -1.0
  outer loop
    vertex 2.9391691049906816 1.1470093640421397 -0.01
    vertex 2.939158404667444 1.149532019198808 -0.01
    vertex 2.9393890156475497 1.1500004335085194 -0.01
  endloop
endfacet
facet normal 0.0 0.0 -1.0
  outer loop
    vertex 2.9391691049906816 1.1470093640421397 -0.01
    vertex 2.9393890156475497 1.1500004335085194 -0.01
    vertex 2.940052262564886 1.1475665051893145 -0.01
  endloop
endfacet
facet normal 0.0 0.0 -1.0
  outer loop
    vertex 2.940052262564886 1.1475665051893145 -0.01
    vertex 2.9393890156475497 1.1500004335085194 -0.01
    vertex 2.9394905342047073 1.1505125735013337 -0.01
  endloop
endfacet
facet normal 0.0 0.0 -1.0
  outer loop
    vertex 2.940052262564886 1.1475665051893145 -0.01
    vertex 2.9394905342047073 1.1505125735013337 -0.01
    vertex 2.9398035484894343 1.1539084568409714 -0.01
  endloop
endfacet
facet normal 0.0 0.0 -1.0
  outer loop
    vertex 2.940052262564886 1.1475665051893145 -0.01
    vertex 2.9398035484894343 1.1539084568409714 -0.01
    vertex 2.9405702835124092 1.1531995908710635 -0.01
  endloop
endfacet
facet normal 0.0 0.0 -1.0
  outer loop
    vertex 2.940052262564886 1.1475665051893145 -0.01
    vertex 2.9405702835124092 1.1531995908710635 -0.01
    vertex 2.940761128534793 1.1483332402122894 -0.01
  endloop
endfacet
facet normal 0.0 0.0 -1.0
  outer loop
    vertex 2.940761128534793 1.1483332402122894 -0.01
    vertex 2.9405702835124092 1.1531995908710635 -0.01
    vertex 2.941127424659584 1.1523164332968592 -0.01
  endloop
endfacet
facet normal 0.0 0.0 -1.0
  outer loop
    vertex 2.940761128534793 1.1483332402122894 -0.01
    vertex 2.941127424659584 1.1523164332968592 -0.01
    vertex 2.9412473948560116 1.1492573173863385 -0.01
  endloop
endfacet
facet normal 0.0 0.0 -1.0
  outer loop
    vertex 2.9412473948560116 1.1492573173863385 -0.01
    vertex 2.941127424659584 1.1523164332968592 -0.01
    vertex 2.9414370036824975 1.1513191698475533 -0.01
  endloop
endfacet
facet normal 0.0 0.0 -1.0
  outer loop
    vertex 2.9412473948560116 1.1492573173863385 -0.01
    vertex 2.9414370036824975 1.1513191698475533 -0.01
    vertex 2.9414779232823425 1.1502757623791602 -0.01
  endloop
endfacet
facet normal -0.9992318884875346 -0.03918715388536479 0.0
  outer loop
    vertex 2.9335115371132034 1.1510083546287413 -0.008
    vertex 2.933552456713048 1.1499649471603484 -0.01
    vertex 2.933552456713048 1.1499649471603484 -0.008
  endloop
endfacet
facet normal -0.9992318884875346 -0.03918715388536479 0.0
  outer loop
    vertex 2.933552456713048 1.1499649471603484 -0.01
    vertex 2.9335115371132034 1.1510083546287413 -0.008
    vertex 2.9335115371132034 1.1510083546287413 -0.01
  endloop
endfacet
facet normal -0.9753262692906056 0.2207683592176863 0.0
  outer loop
    vertex 2.933742065539534 1.1520267996215627 -0.008
    vertex 2.9335115371132034 1.1510083546287413 -0.01
    vertex 2.9335115371132034 1.1510083546287413 -0.008
  endloop
endfacet
facet normal -0.9753262692906056 0.2207683592176863 0.0
  outer loop
    vertex 2.9335115371132034 1.1510083546287413 -0.01
    vertex 2.933742065539534 1.1520267996215627 -0.008
    vertex 2.933742065539534 1.1520267996215627 -0.01
  endloop
endfacet
facet normal -0.8849537766443568 0.4656788734770884 0.0
  outer loop
    vertex 2.9342283318607523 1.1529508767956118 -0.008
    vertex 2.933742065539534 1.1520267996215627 -0.01
    vertex 2.933742065539534 1.1520267996215627 -0.008
  endloop
endfacet
facet normal -0.8849537766443568 0.4656788734770884 0.0
  outer loop
    vertex 2.933742065539534 1.1520267996215627 -0.01
    vertex 2.9342283318607523 1.1529508767956118 -0.008
    vertex 2.9342283318607523 1.1529508767956118 -0.01
  endloop
endfacet
facet normal -0.7342731465751224 0.6788541420796289 0.0
  outer loop
    vertex 2.93493719783066 1.153717611818587 -0.008
    vertex 2.9342283318607523 1.1529508767956118 -0.01
    vertex 2.9342283318607523 1.1529508767956118 -0.008
  endloop
endfacet
facet normal -0.7342731465751224 0.6788541420796289 0.0
  outer loop
    vertex 2.9342283318607523 1.1529508767956118 -0.01
    vertex 2.93493719783066 1.153717611818587 -0.008
    vertex 2.93493719783066 1.153717611818587 -0.01
  endloop
endfacet
facet normal -0.5335530150105057 0.8457666227590205 0.0
  outer loop
    vertex 2.93493719783066 1.153717611818587 -0.008
    vertex 2.9358203554048647 1.1542747529657618 -0.01
    vertex 2.93493719783066 1.153717611818587 -0.01
  endloop
endfacet
facet normal -0.5335530150105057 0.8457666227590205 0.0
  outer loop
    vertex 2.9358203554048647 1.1542747529657618 -0.01
    vertex 2.93493719783066 1.153717611818587 -0.008
    vertex 2.9358203554048647 1.1542747529657618 -0.008
  endloop
endfacet
facet normal -0.2964721272109531 0.9550415057928178 0.0
  outer loop
    vertex 2.9358203554048647 1.1542747529657618 -0.008
    vertex 2.93681761885417 1.1545843319886757 -0.01
    vertex 2.9358203554048647 1.1542747529657618 -0.01
  endloop
endfacet
facet normal -0.2964721272109531 0.9550415057928178 0.0
  outer loop
    vertex 2.93681761885417 1.1545843319886757 -0.01
    vertex 2.9358203554048647 1.1542747529657618 -0.008
    vertex 2.93681761885417 1.1545843319886757 -0.008
  endloop
endfacet
facet normal -0.03918715388536615 0.9992318884875346 0.0
  outer loop
    vertex 2.93681761885417 1.1545843319886757 -0.008
    vertex 2.937861026322563 1.1546252515885203 -0.01
    vertex 2.93681761885417 1.1545843319886757 -0.01
  endloop
endfacet
facet normal -0.03918715388536615 0.9992318884875346 0.0
  outer loop
    vertex 2.937861026322563 1.1546252515885203 -0.01
    vertex 2.93681761885417 1.1545843319886757 -0.008
    vertex 2.937861026322563 1.1546252515885203 -0.008
  endloop
endfacet
facet normal 0.22076835921771915 0.9753262692905981 0.0
  outer loop
    vertex 2.937861026322563 1.1546252515885203 -0.008
    vertex 2.938879471315385 1.1543947231621896 -0.01
    vertex 2.937861026322563 1.1546252515885203 -0.01
  endloop
endfacet
facet normal 0.22076835921771915 0.9753262692905981 0.0
  outer loop
    vertex 2.938879471315385 1.1543947231621896 -0.01
    vertex 2.937861026322563 1.1546252515885203 -0.008
    vertex 2.938879471315385 1.1543947231621896 -0.008
  endloop
endfacet
facet normal 0.46567887347703424 0.8849537766443852 0.0
  outer loop
    vertex 2.938879471315385 1.1543947231621896 -0.008
    vertex 2.9398035484894343 1.1539084568409714 -0.01
    vertex 2.938879471315385 1.1543947231621896 -0.01
  endloop
endfacet
facet normal 0.46567887347703424 0.8849537766443852 0.0
  outer loop
    vertex 2.9398035484894343 1.1539084568409714 -0.01
    vertex 2.938879471315385 1.1543947231621896 -0.008
    vertex 2.9398035484894343 1.1539084568409714 -0.008
  endloop
endfacet
facet normal 0.6788541420796474 0.7342731465751052 0.0
  outer loop
    vertex 2.9398035484894343 1.1539084568409714 -0.008
    vertex 2.9405702835124092 1.1531995908710635 -0.01
    vertex 2.9398035484894343 1.1539084568409714 -0.01
  endloop
endfacet
facet normal 0.6788541420796474 0.7342731465751052 0.0
  outer loop
    vertex 2.9405702835124092 1.1531995908710635 -0.01
    vertex 2.9398035484894343 1.1539084568409714 -0.008
    vertex 2.9405702835124092 1.1531995908710635 -0.008
  endloop
endfacet
facet normal 0.8457666227590361 0.5335530150104809 0.0
  outer loop
    vertex 2.9405702835124092 1.1531995908710635 -0.01
    vertex 2.941127424659584 1.1523164332968592 -0.008
    vertex 2.941127424659584 1.1523164332968592 -0.01
  endloop
endfacet
facet normal 0.8457666227590361 0.5335530150104809 0.0
  outer loop
    vertex 2.941127424659584 1.1523164332968592 -0.008
    vertex 2.9405702835124092 1.1531995908710635 -0.01
    vertex 2.9405702835124092 1.1531995908710635 -0.008
  endloop
endfacet
facet normal 0.9550415057928048 0.2964721272109944 0.0
  outer loop
    vertex 2.941127424659584 1.1523164332968592 -0.01
    vertex 2.9414370036824975 1.1513191698475533 -0.008
    vertex 2.9414370036824975 1.1513191698475533 -0.01
  endloop
endfacet
facet normal 0.9550415057928048 0.2964721272109944 0.0
  outer loop
    vertex 2.9414370036824975 1.1513191698475533 -0.008
    vertex 2.941127424659584 1.1523164332968592 -0.01
    vertex 2.941127424659584 1.1523164332968592 -0.008
  endloop
endfacet
facet normal 0.9992318884875346 0.03918715388536479 0.0
  outer loop
    vertex 2.9414370036824975 1.1513191698475533 -0.01
    vertex 2.9414779232823425 1.1502757623791602 -0.008
    vertex 2.9414779232823425 1.1502757623791602 -0.01
  endloop
endfacet
facet normal 0.9992318884875346 0.03918715388536479 0.0
  outer loop
    vertex 2.9414779232823425 1.1502757623791602 -0.008
    vertex 2.9414370036824975 1.1513191698475533 -0.01
    vertex 2.9414370036824975 1.1513191698475533 -0.008
  endloop
endfacet
facet normal 0.9753262692906056 -0.2207683592176863 0.0
  outer loop
    vertex 2.9414779232823425 1.1502757623791602 -0.01
    vertex 2.9412473948560116 1.1492573173863385 -0.008
    vertex 2.9412473948560116 1.1492573173863385 -0.01
  endloop
endfacet
facet normal 0.9753262692906056 -0.2207683592176863 0.0
  outer loop
    vertex 2.9412473948560116 1.1492573173863385 -0.008
    vertex 2.9414779232823425 1.1502757623791602 -0.01
    vertex 2.9414779232823425 1.1502757623791602 -0.008
  endloop
endfacet
facet normal 0.8849537766443568 -0.4656788734770884 0.0
  outer loop
    vertex 2.9412473948560116 1.1492573173863385 -0.01
    vertex 2.940761128534793 1.1483332402122894 -0.008
    vertex 2.940761128534793 1.1483332402122894 -0.01
  endloop
endfacet
facet normal 0.8849537766443568 -0.4656788734770884 0.0
  outer loop
    vertex 2.940761128534793 1.1483332402122894 -0.008
    vertex 2.9412473948560116 1.1492573173863385 -0.01
    vertex 2.9412473948560116 1.1492573173863385 -0.008
  endloop
endfacet
facet normal 0.7342731465751224 -0.6788541420796289 0.0
  outer loop
    vertex 2.940761128534793 1.1483332402122894 -0.01
    vertex 2.940052262564886 1.1475665051893145 -0.008
    vertex 2.940052262564886 1.1475665051893145 -0.01
  endloop
endfacet
facet normal 0.7342731465751224 -0.6788541420796289 0.0
  outer loop
    vertex 2.940052262564886 1.1475665051893145 -0.008
    vertex 2.940761128534793 1.1483332402122894 -0.01
    vertex 2.940761128534793 1.1483332402122894 -0.008
  endloop
endfacet
facet normal 0.5335530150105057 -0.8457666227590205 0.0
  outer loop
    vertex 2.940052262564886 1.1475665051893145 -0.008
    vertex 2.9391691049906816 1.1470093640421397 -0.01
    vertex 2.940052262564886 1.1475665051893145 -0.01
  endloop
endfacet
facet normal 0.5335530150105057 -0.8457666227590205 0.0
  outer loop
    vertex 2.9391691049906816 1.1470093640421397 -0.01
    vertex 2.940052262564886 1.1475665051893145 -0.008
    vertex 2.9391691049906816 1.1470093640421397 -0.008
  endloop
endfacet
facet normal 0.2964721272109531 -0.9550415057928178 0.0
  outer loop
    vertex 2.9391691049906816 1.1470093640421397 -0.008
    vertex 2.9381718415413753 1.146699785019226 -0.01
    vertex 2.9391691049906816 1.1470093640421397 -0.01
  endloop
endfacet
facet normal 0.2964721272109531 -0.9550415057928178 0.0
  outer loop
    vertex 2.9381718415413753 1.146699785019226 -0.01
    vertex 2.9391691049906816 1.1470093640421397 -0.008
    vertex 2.9381718415413753 1.146699785019226 -0.008
  endloop
endfacet
facet normal 0.03918715388536615 -0.9992318884875346 0.0
  outer loop
    vertex 2.9381718415413753 1.146699785019226 -0.008
    vertex 2.9371284340729824 1.146658865419381 -0.01
    vertex 2.9381718415413753 1.146699785019226 -0.01
  endloop
endfacet
facet normal 0.03918715388536615 -0.9992318884875346 0.0
  outer loop
    vertex 2.9371284340729824 1.146658865419381 -0.01
    vertex 2.9381718415413753 1.146699785019226 -0.008
    vertex 2.9371284340729824 1.146658865419381 -0.008
  endloop
endfacet
facet normal -0.22076835921771915 -0.9753262692905981 0.0
  outer loop
    vertex 2.9371284340729824 1.146658865419381 -0.008
    vertex 2.936109989080161 1.146889393845712 -0.01
    vertex 2.9371284340729824 1.146658865419381 -0.01
  endloop
endfacet
facet normal -0.22076835921771915 -0.9753262692905981 0.0
  outer loop
    vertex 2.936109989080161 1.146889393845712 -0.01
    vertex 2.9371284340729824 1.146658865419381 -0.008
    vertex 2.936109989080161 1.146889393845712 -0.008
  endloop
endfacet
facet normal -0.46567887347703424 -0.8849537766443852 0.0
  outer loop
    vertex 2.936109989080161 1.146889393845712 -0.008
    vertex 2.935185911906112 1.1473756601669303 -0.01
    vertex 2.936109989080161 1.146889393845712 -0.01
  endloop
endfacet
facet normal -0.46567887347703424 -0.8849537766443852 0.0
  outer loop
    vertex 2.935185911906112 1.1473756601669303 -0.01
    vertex 2.936109989080161 1.146889393845712 -0.008
    vertex 2.935185911906112 1.1473756601669303 -0.008
  endloop
endfacet
facet normal -0.6788541420796474 -0.7342731465751052 0.0
  outer loop
    vertex 2.935185911906112 1.1473756601669303 -0.008
    vertex 2.9344191768831367 1.148084526136838 -0.01
    vertex 2.935185911906112 1.1473756601669303 -0.01
  endloop
endfacet
facet normal -0.6788541420796474 -0.7342731465751052 0.0
  outer loop
    vertex 2.9344191768831367 1.148084526136838 -0.01
    vertex 2.935185911906112 1.1473756601669303 -0.008
    vertex 2.9344191768831367 1.148084526136838 -0.008
  endloop
endfacet
facet normal -0.8457666227590361 -0.5335530150104809 0.0
  outer loop
    vertex 2.933862035735962 1.1489676837110423 -0.008
    vertex 2.9344191768831367 1.148084526136838 -0.01
    vertex 2.9344191768831367 1.148084526136838 -0.008
  endloop
endfacet
facet normal -0.8457666227590361 -0.5335530150104809 0.0
  outer loop
    vertex 2.9344191768831367 1.148084526136838 -0.01
    vertex 2.933862035735962 1.1489676837110423 -0.008
    vertex 2.933862035735962 1.1489676837110423 -0.01
  endloop
endfacet
facet normal -0.9550415057928048 -0.2964721272109944 0.0
  outer loop
    vertex 2.933552456713048 1.1499649471603484 -0.008
    vertex 2.933862035735962 1.1489676837110423 -0.01
    vertex 2.933862035735962 1.1489676837110423 -0.008
  endloop
endfacet
facet normal -0.9550415057928048 -0.2964721272109944 0.0
  outer loop
    vertex 2.933862035735962 1.1489676837110423 -0.01
    vertex 2.933552456713048 1.1499649471603484 -0.008
    vertex 2.933552456713048 1.1499649471603484 -0.01
  endloop
endfacet
facet normal -0.997815405663024 -0.06606372848647651 0.0
  outer loop
    vertex 2.9394560420170146 1.151033537683092 -0.008
    vertex 2.9394905342047073 1.1505125735013337 -0.01
    vertex 2.9394905342047073 1.1505125735013337 -0.008
  endloop
endfacet
facet normal -0.997815405663024 -0.06606372848647651 0.0
  outer loop
    vertex 2.9394905342047073 1.1505125735013337 -0.01
    vertex 2.9394560420170146 1.151033537683092 -0.008
    vertex 2.9394560420170146 1.151033537683092 -0.01
  endloop
endfacet
facet normal -0.9467171190765882 -0.32206629200729037 2.204227033083807e-28
  outer loop
    vertex 2.939287889670062 1.1515278232057429 -0.008
    vertex 2.9394560420170146 1.151033537683092 -0.01
    vertex 2.9394560420170146 1.151033537683092 -0.008
  endloop
endfacet
facet normal -0.9467171190765882 -0.32206629200729037 2.204227033083807e-28
  outer loop
    vertex 2.9394560420170146 1.151033537683092 -0.01
    vertex 2.939287889670062 1.1515278232057429 -0.008
    vertex 2.939287889670062 1.1515278232057429 -0.01
  endloop
endfacet
facet normal -0.8311016253485918 -0.5561205699692553 -3.6333886516976845e-18
  outer loop
    vertex 2.9389975364684084 1.1519617453277617 -0.008
    vertex 2.939287889670062 1.1515278232057429 -0.01
    vertex 2.939287889670062 1.1515278232057429 -0.008
  endloop
endfacet
facet normal -0.8311016253485918 -0.5561205699692553 -3.6333886516976845e-18
  outer loop
    vertex 2.939287889670062 1.1515278232057429 -0.01
    vertex 2.9389975364684084 1.1519617453277617 -0.008
    vertex 2.9389975364684084 1.1519617453277617 -0.01
  endloop
endfacet
facet normal 0.0 0.0 -1.0
  outer loop
    vertex 2.9356004447479953 1.1512836834993831 -0.01
    vertex 2.9355334183785295 1.1502505793248097 -0.01
    vertex 2.9354989261908386 1.1507715435065684 -0.01
  endloop
endfacet
facet normal 0.0 0.0 -1.0
  outer loop
    vertex 2.9355334183785295 1.1502505793248097 -0.01
    vertex 2.9356004447479953 1.1512836834993831 -0.01
    vertex 2.935701570725483 1.1497562938021595 -0.01
  endloop
endfacet
facet normal 0.0 0.0 -1.0
  outer loop
    vertex 2.935701570725483 1.1497562938021595 -0.01
    vertex 2.9356004447479953 1.1512836834993831 -0.01
    vertex 2.9358310557281007 1.1517520978090943 -0.01
  endloop
endfacet
facet normal 0.0 0.0 -1.0
  outer loop
    vertex 2.935701570725483 1.1497562938021595 -0.01
    vertex 2.9358310557281007 1.1517520978090943 -0.01
    vertex 2.935991923927137 1.1493223716801408 -0.01
  endloop
endfacet
facet normal 0.0 0.0 -1.0
  outer loop
    vertex 2.935991923927137 1.1493223716801408 -0.01
    vertex 2.9358310557281007 1.1517520978090943 -0.01
    vertex 2.9361750433739626 1.1521448647745867 -0.01
  endloop
endfacet
facet normal 0.0 0.0 -1.0
  outer loop
    vertex 2.935991923927137 1.1493223716801408 -0.01
    vertex 2.9361750433739626 1.1521448647745867 -0.01
    vertex 2.9363846908926297 1.1489783840342793 -0.01
  endloop
endfacet
facet normal 0.0 0.0 -1.0
  outer loop
    vertex 2.9363846908926297 1.1489783840342793 -0.01
    vertex 2.9361750433739626 1.1521448647745867 -0.01
    vertex 2.9366089654959815 1.1524352179762405 -0.01
  endloop
endfacet
facet normal 0.0 0.0 -1.0
  outer loop
    vertex 2.9363846908926297 1.1489783840342793 -0.01
    vertex 2.9366089654959815 1.1524352179762405 -0.01
    vertex 2.9368531052023417 1.1487477730541742 -0.01
  endloop
endfacet
facet normal 0.0 0.0 -1.0
  outer loop
    vertex 2.9368531052023417 1.1487477730541742 -0.01
    vertex 2.9366089654959815 1.1524352179762405 -0.01
    vertex 2.9371032510186317 1.1526033703231933 -0.01
  endloop
endfacet
facet normal 0.0 0.0 -1.0
  outer loop
    vertex 2.9368531052023417 1.1487477730541742 -0.01
    vertex 2.9371032510186317 1.1526033703231933 -0.01
    vertex 2.937365245195155 1.1486462544970164 -0.01
  endloop
endfacet
facet normal 0.0 0.0 -1.0
  outer loop
    vertex 2.937365245195155 1.1486462544970164 -0.01
    vertex 2.9371032510186317 1.1526033703231933 -0.01
    vertex 2.93762421520039 1.1526378625108857 -0.01
  endloop
endfacet
facet normal 0.0 0.0 -1.0
  outer loop
    vertex 2.937365245195155 1.1486462544970164 -0.01
    vertex 2.93762421520039 1.1526378625108857 -0.01
    vertex 2.937886209376914 1.1486807466847095 -0.01
  endloop
endfacet
facet normal 0.0 0.0 -1.0
  outer loop
    vertex 2.937886209376914 1.1486807466847095 -0.01
    vertex 2.93762421520039 1.1526378625108857 -0.01
    vertex 2.9381363551932043 1.1525363439537284 -0.01
  endloop
endfacet
facet normal 0.0 0.0 -1.0
  outer loop
    vertex 2.937886209376914 1.1486807466847095 -0.01
    vertex 2.9381363551932043 1.1525363439537284 -0.01
    vertex 2.9383804948995644 1.148848899031662 -0.01
  endloop
endfacet
facet normal 0.0 0.0 -1.0
  outer loop
    vertex 2.9383804948995644 1.148848899031662 -0.01
    vertex 2.9381363551932043 1.1525363439537284 -0.01
    vertex 2.938604769502917 1.1523057329736228 -0.01
  endloop
endfacet
facet normal 0.0 0.0 -1.0
  outer loop
    vertex 2.9383804948995644 1.148848899031662 -0.01
    vertex 2.938604769502917 1.1523057329736228 -0.01
    vertex 2.938814417021583 1.1491392522333157 -0.01
  endloop
endfacet
facet normal 0.0 0.0 -1.0
  outer loop
    vertex 2.938814417021583 1.1491392522333157 -0.01
    vertex 2.938604769502917 1.1523057329736228 -0.01
    vertex 2.9389975364684084 1.1519617453277617 -0.01
  endloop
endfacet
facet normal 0.0 0.0 -1.0
  outer loop
    vertex 2.938814417021583 1.1491392522333157 -0.01
    vertex 2.9389975364684084 1.1519617453277617 -0.01
    vertex 2.939158404667444 1.149532019198808 -0.01
  endloop
endfacet
facet normal 0.0 0.0 -1.0
  outer loop
    vertex 2.939158404667444 1.149532019198808 -0.01
    vertex 2.9389975364684084 1.1519617453277617 -0.01
    vertex 2.939287889670062 1.1515278232057429 -0.01
  endloop
endfacet
facet normal 0.0 0.0 -1.0
  outer loop
    vertex 2.939158404667444 1.149532019198808 -0.01
    vertex 2.939287889670062 1.1515278232057429 -0.01
    vertex 2.9393890156475497 1.1500004335085194 -0.01
  endloop
endfacet
facet normal 0.0 0.0 -1.0
  outer loop
    vertex 2.9393890156475497 1.1500004335085194 -0.01
    vertex 2.939287889670062 1.1515278232057429 -0.01
    vertex 2.9394560420170146 1.151033537683092 -0.01
  endloop
endfacet
facet normal 0.0 0.0 -1.0
  outer loop
    vertex 2.9393890156475497 1.1500004335085194 -0.01
    vertex 2.9394560420170146 1.151033537683092 -0.01
    vertex 2.9394905342047073 1.1505125735013337 -0.01
  endloop
endfacet
facet normal 0.19444096895565482 0.9809142213219187 -3.7663724915250756e-29
  outer loop
    vertex 2.93762421520039 1.1526378625108857 -0.008
    vertex 2.9381363551932043 1.1525363439537284 -0.01
    vertex 2.93762421520039 1.1526378625108857 -0.01
  endloop
endfacet
facet normal 0.19444096895565482 0.9809142213219187 -3.7663724915250756e-29
  outer loop
    vertex 2.9381363551932043 1.1525363439537284 -0.01
    vertex 2.93762421520039 1.1526378625108857 -0.008
    vertex 2.9381363551932043 1.1525363439537284 -0.008
  endloop
endfacet
facet normal 0.44169483569274925 0.8971653538352646 -3.8619801828038235e-18
  outer loop
    vertex 2.9381363551932043 1.1525363439537284 -0.008
    vertex 2.938604769502917 1.1523057329736228 -0.01
    vertex 2.9381363551932043 1.1525363439537284 -0.01
  endloop
endfacet
facet normal 0.44169483569274925 0.8971653538352646 -3.8619801828038235e-18
  outer loop
    vertex 2.938604769502917 1.1523057329736228 -0.01
    vertex 2.9381363551932043 1.1525363439537284 -0.008
    vertex 2.938604769502917 1.1523057329736228 -0.008
  endloop
endfacet
facet normal 0.6588479293142497 0.7522761501193067 -0.0
  outer loop
    vertex 2.938604769502917 1.1523057329736228 -0.008
    vertex 2.9389975364684084 1.1519617453277617 -0.01
    vertex 2.938604769502917 1.1523057329736228 -0.01
  endloop
endfacet
facet normal 0.6588479293142497 0.7522761501193067 -0.0
  outer loop
    vertex 2.9389975364684084 1.1519617453277617 -0.01
    vertex 2.938604769502917 1.1523057329736228 -0.008
    vertex 2.9389975364684084 1.1519617453277617 -0.008
  endloop
endfacet
facet normal 0.9809142213218397 -0.19444096895605337 -1.1243710434868806e-28
  outer loop
    vertex 2.9394905342047073 1.1505125735013337 -0.01
    vertex 2.9393890156475497 1.1500004335085194 -0.008
    vertex 2.9393890156475497 1.1500004335085194 -0.01
  endloop
endfacet
facet normal 0.9809142213218397 -0.19444096895605337 -1.1243710434868806e-28
  outer loop
    vertex 2.9393890156475497 1.1500004335085194 -0.008
    vertex 2.9394905342047073 1.1505125735013337 -0.01
    vertex 2.9394905342047073 1.1505125735013337 -0.008
  endloop
endfacet
facet normal 0.8971653538345185 -0.4416948356942646 3.861980182903125e-18
  outer loop
    vertex 2.9393890156475497 1.1500004335085194 -0.01
    vertex 2.939158404667444 1.149532019198808 -0.008
    vertex 2.939158404667444 1.149532019198808 -0.01
  endloop
endfacet
facet normal 0.8971653538345185 -0.4416948356942646 3.861980182903125e-18
  outer loop
    vertex 2.939158404667444 1.149532019198808 -0.008
    vertex 2.9393890156475497 1.1500004335085194 -0.01
    vertex 2.9393890156475497 1.1500004335085194 -0.008
  endloop
endfacet
facet normal 0.7522761501202069 -0.6588479293132217 -9.5716138367341e-29
  outer loop
    vertex 2.939158404667444 1.149532019198808 -0.01
    vertex 2.938814417021583 1.1491392522333157 -0.008
    vertex 2.938814417021583 1.1491392522333157 -0.01
  endloop
endfacet
facet normal 0.7522761501202069 -0.6588479293132217 -9.5716138367341e-29
  outer loop
    vertex 2.938814417021583 1.1491392522333157 -0.008
    vertex 2.939158404667444 1.149532019198808 -0.01
    vertex 2.939158404667444 1.149532019198808 -0.008
  endloop
endfacet
facet normal 0.556120569970133 -0.8311016253480044 -3.633388651642243e-18
  outer loop
    vertex 2.938814417021583 1.1491392522333157 -0.008
    vertex 2.9383804948995644 1.148848899031662 -0.01
    vertex 2.938814417021583 1.1491392522333157 -0.01
  endloop
endfacet
facet normal 0.556120569970133 -0.8311016253480044 -3.633388651642243e-18
  outer loop
    vertex 2.9383804948995644 1.148848899031662 -0.01
    vertex 2.938814417021583 1.1491392522333157 -0.008
    vertex 2.9383804948995644 1.148848899031662 -0.008
  endloop
endfacet
facet normal 0.32206629200677617 -0.946717119076763 -1.2045590804627036e-28
  outer loop
    vertex 2.9383804948995644 1.148848899031662 -0.008
    vertex 2.937886209376914 1.1486807466847095 -0.01
    vertex 2.9383804948995644 1.148848899031662 -0.01
  endloop
endfacet
facet normal 0.32206629200677617 -0.946717119076763 -1.2045590804627036e-28
  outer loop
    vertex 2.937886209376914 1.1486807466847095 -0.01
    vertex 2.9383804948995644 1.148848899031662 -0.008
    vertex 2.937886209376914 1.1486807466847095 -0.008
  endloop
endfacet
facet normal 0.06606372848741784 -0.9978154056629617 -5.776314087642043e-19
  outer loop
    vertex 2.937886209376914 1.1486807466847095 -0.008
    vertex 2.937365245195155 1.1486462544970164 -0.01
    vertex 2.937886209376914 1.1486807466847095 -0.01
  endloop
endfacet
facet normal 0.06606372848741784 -0.9978154056629617 -5.776314087642043e-19
  outer loop
    vertex 2.937365245195155 1.1486462544970164 -0.01
    vertex 2.937886209376914 1.1486807466847095 -0.008
    vertex 2.937365245195155 1.1486462544970164 -0.008
  endloop
endfacet
facet normal -0.19444096895671564 -0.9809142213217085 6.240349459405204e-29
  outer loop
    vertex 2.937365245195155 1.1486462544970164 -0.008
    vertex 2.9368531052023417 1.1487477730541742 -0.01
    vertex 2.937365245195155 1.1486462544970164 -0.01
  endloop
endfacet
facet normal -0.19444096895671564 -0.9809142213217085 6.240349459405204e-29
  outer loop
    vertex 2.9368531052023417 1.1487477730541742 -0.01
    vertex 2.937365245195155 1.1486462544970164 -0.008
    vertex 2.9368531052023417 1.1487477730541742 -0.008
  endloop
endfacet
facet normal -0.4416948356927406 -0.8971653538352687 -3.86198018269135e-18
  outer loop
    vertex 2.9368531052023417 1.1487477730541742 -0.008
    vertex 2.9363846908926297 1.1489783840342793 -0.01
    vertex 2.9368531052023417 1.1487477730541742 -0.01
  endloop
endfacet
facet normal -0.4416948356927406 -0.8971653538352687 -3.86198018269135e-18
  outer loop
    vertex 2.9363846908926297 1.1489783840342793 -0.01
    vertex 2.9368531052023417 1.1487477730541742 -0.008
    vertex 2.9363846908926297 1.1489783840342793 -0.008
  endloop
endfacet
facet normal -0.6588479293136129 -0.7522761501198643 -8.382876361977059e-29
  outer loop
    vertex 2.9363846908926297 1.1489783840342793 -0.008
    vertex 2.935991923927137 1.1493223716801408 -0.01
    vertex 2.9363846908926297 1.1489783840342793 -0.01
  endloop
endfacet
facet normal -0.6588479293136129 -0.7522761501198643 -8.382876361977059e-29
  outer loop
    vertex 2.935991923927137 1.1493223716801408 -0.01
    vertex 2.9363846908926297 1.1489783840342793 -0.008
    vertex 2.935991923927137 1.1493223716801408 -0.008
  endloop
endfacet
facet normal -0.8311016253482721 -0.5561205699697328 0.0
  outer loop
    vertex 2.935701570725483 1.1497562938021595 -0.008
    vertex 2.935991923927137 1.1493223716801408 -0.01
    vertex 2.935991923927137 1.1493223716801408 -0.008
  endloop
endfacet
facet normal -0.8311016253482721 -0.5561205699697328 0.0
  outer loop
    vertex 2.935991923927137 1.1493223716801408 -0.01
    vertex 2.935701570725483 1.1497562938021595 -0.008
    vertex 2.935701570725483 1.1497562938021595 -0.01
  endloop
endfacet
facet normal -0.9467171190758126 -0.3220662920095708 -9.996679526188882e-29
  outer loop
    vertex 2.9355334183785295 1.1502505793248097 -0.008
    vertex 2.935701570725483 1.1497562938021595 -0.01
    vertex 2.935701570725483 1.1497562938021595 -0.008
  endloop
endfacet
facet normal -0.9467171190758126 -0.3220662920095708 -9.996679526188882e-29
  outer loop
    vertex 2.935701570725483 1.1497562938021595 -0.01
    vertex 2.9355334183785295 1.1502505793248097 -0.008
    vertex 2.9355334183785295 1.1502505793248097 -0.01
  endloop
endfacet
facet normal -0.9978154056632565 -0.0660637284829665 1.227545960755286e-28
  outer loop
    vertex 2.9354989261908386 1.1507715435065684 -0.008
    vertex 2.9355334183785295 1.1502505793248097 -0.01
    vertex 2.9355334183785295 1.1502505793248097 -0.008
  endloop
endfacet
facet normal -0.9978154056632565 -0.0660637284829665 1.227545960755286e-28
  outer loop
    vertex 2.9355334183785295 1.1502505793248097 -0.01
    vertex 2.9354989261908386 1.1507715435065684 -0.008
    vertex 2.9354989261908386 1.1507715435065684 -0.01
  endloop
endfacet
facet normal -0.9809142213222484 0.19444096895399185 0.0
  outer loop
    vertex 2.9356004447479953 1.1512836834993831 -0.008
    vertex 2.9354989261908386 1.1507715435065684 -0.01
    vertex 2.9354989261908386 1.1507715435065684 -0.008
  endloop
endfacet
facet normal -0.9809142213222484 0.19444096895399185 0.0
  outer loop
    vertex 2.9354989261908386 1.1507715435065684 -0.01
    vertex 2.9356004447479953 1.1512836834993831 -0.008
    vertex 2.9356004447479953 1.1512836834993831 -0.01
  endloop
endfacet
facet normal -0.8971653538347251 0.4416948356938451 5.619920823311558e-29
  outer loop
    vertex 2.9358310557281007 1.1517520978090943 -0.008
    vertex 2.9356004447479953 1.1512836834993831 -0.01
    vertex 2.9356004447479953 1.1512836834993831 -0.008
  endloop
endfacet
facet normal -0.8971653538347251 0.4416948356938451 5.619920823311558e-29
  outer loop
    vertex 2.9356004447479953 1.1512836834993831 -0.01
    vertex 2.9358310557281007 1.1517520978090943 -0.008
    vertex 2.9358310557281007 1.1517520978090943 -0.01
  endloop
endfacet
facet normal -0.7522761501195216 0.6588479293140042 9.571613836725381e-29
  outer loop
    vertex 2.9361750433739626 1.1521448647745867 -0.008
    vertex 2.9358310557281007 1.1517520978090943 -0.01
    vertex 2.9358310557281007 1.1517520978090943 -0.008
  endloop
endfacet
facet normal -0.7522761501195216 0.6588479293140042 9.571613836725381e-29
  outer loop
    vertex 2.9358310557281007 1.1517520978090943 -0.01
    vertex 2.9361750433739626 1.1521448647745867 -0.008
    vertex 2.9361750433739626 1.1521448647745867 -0.01
  endloop
endfacet
facet normal -0.5561205699694132 0.8311016253484859 4.862467130820001e-18
  outer loop
    vertex 2.9361750433739626 1.1521448647745867 -0.008
    vertex 2.9366089654959815 1.1524352179762405 -0.01
    vertex 2.9361750433739626 1.1521448647745867 -0.01
  endloop
endfacet
facet normal -0.5561205699694132 0.8311016253484859 4.862467130820001e-18
  outer loop
    vertex 2.9366089654959815 1.1524352179762405 -0.01
    vertex 2.9361750433739626 1.1521448647745867 -0.008
    vertex 2.9366089654959815 1.1524352179762405 -0.008
  endloop
endfacet
facet normal -0.32206629200781733 0.9467171190764089 -0.0
  outer loop
    vertex 2.9366089654959815 1.1524352179762405 -0.008
    vertex 2.9371032510186317 1.1526033703231933 -0.01
    vertex 2.9366089654959815 1.1524352179762405 -0.01
  endloop
endfacet
facet normal -0.32206629200781733 0.9467171190764089 -0.0
  outer loop
    vertex 2.9371032510186317 1.1526033703231933 -0.01
    vertex 2.9366089654959815 1.1524352179762405 -0.008
    vertex 2.9371032510186317 1.1526033703231933 -0.008
  endloop
endfacet
facet normal -0.06606372848613236 0.9978154056630469 7.188435215572692e-29
  outer loop
    vertex 2.9371032510186317 1.1526033703231933 -0.008
    vertex 2.93762421520039 1.1526378625108857 -0.01
    vertex 2.9371032510186317 1.1526033703231933 -0.01
  endloop
endfacet
facet normal -0.06606372848613236 0.9978154056630469 7.188435215572692e-29
  outer loop
    vertex 2.93762421520039 1.1526378625108857 -0.01
    vertex 2.9371032510186317 1.1526033703231933 -0.008
    vertex 2.93762421520039 1.1526378625108857 -0.008
  endloop
endfacet
endsolid rod2~
