solid shell~
facet normal 0.9973627525376945 -0.07257781927306618 0.0
  outer loop
    vertex -0.9472979540224339 0.13434853828873053 16.219148936170246
    vertex -0.9493820814280904 0.10570850657154379 16.38297872340429
    vertex -0.9493820814280904 0.10570850657154379 16.219148936170246
  endloop
endfacet
facet normal 0.9973627525376945 -0.07257781927306618 0.0
  outer loop
    vertex -0.9493820814280904 0.10570850657154379 16.38297872340429
    vertex -0.9472979540224339 0.13434853828873053 16.219148936170246
    vertex -0.9472979540224339 0.13434853828873053 16.38297872340429
  endloop
endfacet
facet normal 0.9445939189750646 -0.32824126528413416 0.0
  outer loop
    vertex -0.9493820814280904 0.10570850657154379 16.219148936170246
    vertex -0.9588077795752377 0.07858377213517485 16.38297872340429
    vertex -0.9588077795752377 0.07858377213517485 16.219148936170246
  endloop
endfacet
facet normal 0.9445939189750646 -0.32824126528413416 0.0
  outer loop
    vertex -0.9588077795752377 0.07858377213517485 16.38297872340429
    vertex -0.9493820814280904 0.10570850657154379 16.219148936170246
    vertex -0.9493820814280904 0.10570850657154379 16.38297872340429
  endloop
endfacet
facet normal -0.5615356115105214 -0.827452570849535 0.0
  outer loop
    vertex -1.1064713470289023 0.029640224584382258 16.38297872340429
    vertex -1.1302322783583536 0.045765147720996845 16.219148936170246
    vertex -1.1064713470289023 0.029640224584382258 16.219148936170246
  endloop
endfacet
facet normal -0.5615356115105214 -0.827452570849535 0.0
  outer loop
    vertex -1.1302322783583536 0.045765147720996845 16.219148936170246
    vertex -1.1064713470289023 0.029640224584382258 16.38297872340429
    vertex -1.1302322783583536 0.045765147720996845 16.38297872340429
  endloop
endfacet
facet normal 0.4358271410270651 -0.900030390122564 0.0
  outer loop
    vertex -0.9966579639738681 0.03604498078650022 16.38297872340429
    vertex -1.022503022708976 0.023529872205928084 16.219148936170246
    vertex -0.9966579639738681 0.03604498078650022 16.219148936170246
  endloop
endfacet
facet normal 0.4358271410270651 -0.900030390122564 0.0
  outer loop
    vertex -1.022503022708976 0.023529872205928084 16.219148936170246
    vertex -0.9966579639738681 0.03604498078650022 16.38297872340429
    vertex -1.022503022708976 0.023529872205928084 16.38297872340429
  endloop
endfacet
facet normal -0.997362752537703 0.07257781927294912 0.0
  outer loop
    vertex -1.1648405927268457 0.15017905760168132 16.38297872340429
    vertex -1.1669247201324988 0.12153902588449461 16.219148936170246
    vertex -1.1669247201324988 0.12153902588449461 16.38297872340429
  endloop
endfacet
facet normal -0.997362752537703 0.07257781927294912 0.0
  outer loop
    vertex -1.1669247201324988 0.12153902588449461 16.219148936170246
    vertex -1.1648405927268457 0.15017905760168132 16.38297872340429
    vertex -1.1648405927268457 0.15017905760168132 16.219148936170246
  endloop
endfacet
facet normal -0.827452570849498 0.5615356115105761 0.0
  outer loop
    vertex -1.1392899714430804 0.2010647233674981 16.38297872340429
    vertex -1.155414894579695 0.17730379203805027 16.219148936170246
    vertex -1.155414894579695 0.17730379203805027 16.38297872340429
  endloop
endfacet
facet normal -0.827452570849498 0.5615356115105761 0.0
  outer loop
    vertex -1.155414894579695 0.17730379203805027 16.219148936170246
    vertex -1.1392899714430804 0.2010647233674981 16.38297872340429
    vertex -1.1392899714430804 0.2010647233674981 16.219148936170246
  endloop
endfacet
facet normal -0.3282412652841705 -0.9445939189750518 0.0
  outer loop
    vertex -1.0793466125925368 0.020214526437234964 16.38297872340429
    vertex -1.1064713470289023 0.029640224584382258 16.219148936170246
    vertex -1.0793466125925368 0.020214526437234964 16.219148936170246
  endloop
endfacet
facet normal -0.3282412652841705 -0.9445939189750518 0.0
  outer loop
    vertex -1.1064713470289023 0.029640224584382258 16.219148936170246
    vertex -1.0793466125925368 0.020214526437234964 16.38297872340429
    vertex -1.1064713470289023 0.029640224584382258 16.38297872340429
  endloop
endfacet
facet normal 0.5615356115105214 0.827452570849535 0.0
  outer loop
    vertex -1.0077513271260303 0.22624733958884283 16.38297872340429
    vertex -0.9839903957965791 0.21012241645222826 16.219148936170246
    vertex -1.0077513271260303 0.22624733958884283 16.219148936170246
  endloop
endfacet
facet normal 0.5615356115105214 0.827452570849535 0.0
  outer loop
    vertex -0.9839903957965791 0.21012241645222826 16.219148936170246
    vertex -1.0077513271260303 0.22624733958884283 16.38297872340429
    vertex -0.9839903957965791 0.21012241645222826 16.38297872340429
  endloop
endfacet
facet normal -0.9821629627347792 -0.18803168518109092 0.0
  outer loop
    vertex -1.1669247201324988 0.12153902588449461 16.38297872340429
    vertex -1.1615252469581492 0.09333546771812049 16.219148936170246
    vertex -1.1615252469581492 0.09333546771812049 16.38297872340429
  endloop
endfacet
facet normal -0.9821629627347792 -0.18803168518109092 0.0
  outer loop
    vertex -1.1615252469581492 0.09333546771812049 16.219148936170246
    vertex -1.1669247201324988 0.12153902588449461 16.38297872340429
    vertex -1.1669247201324988 0.12153902588449461 16.219148936170246
  endloop
endfacet
facet normal 0.827452570849498 -0.5615356115105761 0.0
  outer loop
    vertex -0.9588077795752377 0.07858377213517485 16.219148936170246
    vertex -0.9749327027118523 0.054822840805727024 16.38297872340429
    vertex -0.9749327027118523 0.054822840805727024 16.219148936170246
  endloop
endfacet
facet normal 0.827452570849498 -0.5615356115105761 0.0
  outer loop
    vertex -0.9749327027118523 0.054822840805727024 16.38297872340429
    vertex -0.9588077795752377 0.07858377213517485 16.219148936170246
    vertex -0.9588077795752377 0.07858377213517485 16.38297872340429
  endloop
endfacet
facet normal 0.6539216974506415 -0.7565622337939371 0.0
  outer loop
    vertex -0.9749327027118523 0.054822840805727024 16.38297872340429
    vertex -0.9966579639738681 0.03604498078650022 16.219148936170246
    vertex -0.9749327027118523 0.054822840805727024 16.219148936170246
  endloop
endfacet
facet normal 0.6539216974506415 -0.7565622337939371 0.0
  outer loop
    vertex -0.9966579639738681 0.03604498078650022 16.219148936170246
    vertex -0.9749327027118523 0.054822840805727024 16.38297872340429
    vertex -0.9966579639738681 0.03604498078650022 16.38297872340429
  endloop
endfacet
facet normal -0.9445939189750281 0.3282412652842392 0.0
  outer loop
    vertex -1.155414894579695 0.17730379203805027 16.38297872340429
    vertex -1.1648405927268457 0.15017905760168132 16.219148936170246
    vertex -1.1648405927268457 0.15017905760168132 16.38297872340429
  endloop
endfacet
facet normal -0.9445939189750281 0.3282412652842392 0.0
  outer loop
    vertex -1.1648405927268457 0.15017905760168132 16.219148936170246
    vertex -1.155414894579695 0.17730379203805027 16.38297872340429
    vertex -1.155414894579695 0.17730379203805027 16.219148936170246
  endloop
endfacet
facet normal 0.18803168518109092 -0.9821629627347792 0.0
  outer loop
    vertex -1.022503022708976 0.023529872205928084 16.38297872340429
    vertex -1.05070658087535 0.018130399031578412 16.219148936170246
    vertex -1.022503022708976 0.023529872205928084 16.219148936170246
  endloop
endfacet
facet normal 0.18803168518109092 -0.9821629627347792 0.0
  outer loop
    vertex -1.05070658087535 0.018130399031578412 16.219148936170246
    vertex -1.022503022708976 0.023529872205928084 16.38297872340429
    vertex -1.05070658087535 0.018130399031578412 16.38297872340429
  endloop
endfacet
facet normal 0.3282412652841705 0.9445939189750518 0.0
  outer loop
    vertex -1.0348760615623958 0.23567303773599016 16.38297872340429
    vertex -1.0077513271260303 0.22624733958884283 16.219148936170246
    vertex -1.0348760615623958 0.23567303773599016 16.219148936170246
  endloop
endfacet
facet normal 0.3282412652841705 0.9445939189750518 0.0
  outer loop
    vertex -1.0077513271260303 0.22624733958884283 16.219148936170246
    vertex -1.0348760615623958 0.23567303773599016 16.38297872340429
    vertex -1.0077513271260303 0.22624733958884283 16.38297872340429
  endloop
endfacet
facet normal -0.18803168518111257 0.982162962734775 -0.0
  outer loop
    vertex -1.0917196514459568 0.232357691967297 16.38297872340429
    vertex -1.063516093279586 0.2377571651416467 16.219148936170246
    vertex -1.0917196514459568 0.232357691967297 16.219148936170246
  endloop
endfacet
facet normal -0.18803168518111257 0.982162962734775 -0.0
  outer loop
    vertex -1.063516093279586 0.2377571651416467 16.219148936170246
    vertex -1.0917196514459568 0.232357691967297 16.38297872340429
    vertex -1.063516093279586 0.2377571651416467 16.38297872340429
  endloop
endfacet
facet normal 0.9000303901225418 0.4358271410271113 0.0
  outer loop
    vertex -0.9652125357773557 0.188397155190209 16.219148936170246
    vertex -0.9526974271967835 0.16255209645510463 16.38297872340429
    vertex -0.9526974271967835 0.16255209645510463 16.219148936170246
  endloop
endfacet
facet normal 0.9000303901225418 0.4358271410271113 0.0
  outer loop
    vertex -0.9526974271967835 0.16255209645510463 16.38297872340429
    vertex -0.9652125357773557 0.188397155190209 16.219148936170246
    vertex -0.9652125357773557 0.188397155190209 16.38297872340429
  endloop
endfacet
facet normal 0.9821629627347792 0.18803168518109092 0.0
  outer loop
    vertex -0.9526974271967835 0.16255209645510463 16.219148936170246
    vertex -0.9472979540224339 0.13434853828873053 16.38297872340429
    vertex -0.9472979540224339 0.13434853828873053 16.219148936170246
  endloop
endfacet
facet normal 0.9821629627347792 0.18803168518109092 0.0
  outer loop
    vertex -0.9472979540224339 0.13434853828873053 16.38297872340429
    vertex -0.9526974271967835 0.16255209645510463 16.219148936170246
    vertex -0.9526974271967835 0.16255209645510463 16.38297872340429
  endloop
endfacet
facet normal 0.07257781927305765 0.9973627525376951 0.0
  outer loop
    vertex -1.063516093279586 0.2377571651416467 16.38297872340429
    vertex -1.0348760615623958 0.23567303773599016 16.219148936170246
    vertex -1.063516093279586 0.2377571651416467 16.219148936170246
  endloop
endfacet
facet normal 0.07257781927305765 0.9973627525376951 0.0
  outer loop
    vertex -1.0348760615623958 0.23567303773599016 16.219148936170246
    vertex -1.063516093279586 0.2377571651416467 16.38297872340429
    vertex -1.0348760615623958 0.23567303773599016 16.38297872340429
  endloop
endfacet
facet normal -0.4358271410270651 0.900030390122564 -0.0
  outer loop
    vertex -1.1175647101810644 0.2198425833867249 16.38297872340429
    vertex -1.0917196514459568 0.232357691967297 16.219148936170246
    vertex -1.1175647101810644 0.2198425833867249 16.219148936170246
  endloop
endfacet
facet normal -0.4358271410270651 0.900030390122564 -0.0
  outer loop
    vertex -1.0917196514459568 0.232357691967297 16.219148936170246
    vertex -1.1175647101810644 0.2198425833867249 16.38297872340429
    vertex -1.0917196514459568 0.232357691967297 16.38297872340429
  endloop
endfacet
facet normal 0.7565622337940457 0.6539216974505159 0.0
  outer loop
    vertex -0.9839903957965791 0.21012241645222826 16.219148936170246
    vertex -0.9652125357773557 0.188397155190209 16.38297872340429
    vertex -0.9652125357773557 0.188397155190209 16.219148936170246
  endloop
endfacet
facet normal 0.7565622337940457 0.6539216974505159 0.0
  outer loop
    vertex -0.9652125357773557 0.188397155190209 16.38297872340429
    vertex -0.9839903957965791 0.21012241645222826 16.219148936170246
    vertex -0.9839903957965791 0.21012241645222826 16.38297872340429
  endloop
endfacet
facet normal -0.6539216974506415 0.7565622337939371 -0.0
  outer loop
    vertex -1.1392899714430804 0.2010647233674981 16.38297872340429
    vertex -1.1175647101810644 0.2198425833867249 16.219148936170246
    vertex -1.1392899714430804 0.2010647233674981 16.219148936170246
  endloop
endfacet
facet normal -0.6539216974506415 0.7565622337939371 -0.0
  outer loop
    vertex -1.1175647101810644 0.2198425833867249 16.219148936170246
    vertex -1.1392899714430804 0.2010647233674981 16.38297872340429
    vertex -1.1175647101810644 0.2198425833867249 16.38297872340429
  endloop
endfacet
facet normal -0.7565622337940457 -0.6539216974505159 0.0
  outer loop
    vertex -1.149010138377577 0.06749040898301611 16.38297872340429
    vertex -1.1302322783583536 0.045765147720996845 16.219148936170246
    vertex -1.1302322783583536 0.045765147720996845 16.38297872340429
  endloop
endfacet
facet normal -0.7565622337940457 -0.6539216974505159 0.0
  outer loop
    vertex -1.1302322783583536 0.045765147720996845 16.219148936170246
    vertex -1.149010138377577 0.06749040898301611 16.38297872340429
    vertex -1.149010138377577 0.06749040898301611 16.219148936170246
  endloop
endfacet
facet normal -0.9000303901225418 -0.4358271410271113 0.0
  outer loop
    vertex -1.1615252469581492 0.09333546771812049 16.38297872340429
    vertex -1.149010138377577 0.06749040898301611 16.219148936170246
    vertex -1.149010138377577 0.06749040898301611 16.38297872340429
  endloop
endfacet
facet normal -0.9000303901225418 -0.4358271410271113 0.0
  outer loop
    vertex -1.149010138377577 0.06749040898301611 16.219148936170246
    vertex -1.1615252469581492 0.09333546771812049 16.38297872340429
    vertex -1.1615252469581492 0.09333546771812049 16.219148936170246
  endloop
endfacet
facet normal -0.07257781927306618 -0.9973627525376945 0.0
  outer loop
    vertex -1.05070658087535 0.018130399031578412 16.38297872340429
    vertex -1.0793466125925368 0.020214526437234964 16.219148936170246
    vertex -1.05070658087535 0.018130399031578412 16.219148936170246
  endloop
endfacet
facet normal -0.07257781927306618 -0.9973627525376945 0.0
  outer loop
    vertex -1.0793466125925368 0.020214526437234964 16.219148936170246
    vertex -1.05070658087535 0.018130399031578412 16.38297872340429
    vertex -1.0793466125925368 0.020214526437234964 16.38297872340429
  endloop
endfacet
endsolid shell~
